<?xml version="1.0" standalone="no"?>
<!DOCTYPE svg PUBLIC "-//W3C//DTD SVG 20010904//EN"
 "http://www.w3.org/TR/2001/REC-SVG-20010904/DTD/svg10.dtd">
<svg version="1.0" xmlns="http://www.w3.org/2000/svg"
 width="300.000000pt" height="300.000000pt" viewBox="0 0 300.000000 300.000000"
 preserveAspectRatio="xMidYMid meet">
<metadata>
Created by potrace 1.16, written by Peter Selinger 2001-2019
</metadata>
<g transform="translate(0.000000,300.000000) scale(0.100000,-0.100000)"
fill="#ffffff" stroke="none">
<path d="M1430 2575 c-67 -39 -66 -38 -98 -15 -25 19 -39 22 -83 18 -46 -5
-58 -11 -85 -42 -31 -36 -31 -36 -92 -30 -51 6 -66 3 -94 -14 -37 -23 -78 -73
-78 -97 0 -11 -11 -15 -44 -15 -67 0 -135 -50 -155 -114 -16 -50 -21 -55 -80
-77 -18 -7 -46 -30 -62 -52 -23 -32 -29 -50 -29 -94 0 -37 -4 -53 -13 -53 -7
0 -32 -16 -54 -35 -49 -42 -60 -79 -43 -142 13 -43 12 -45 -17 -76 -58 -61
-67 -106 -33 -163 l21 -33 -21 -40 c-34 -68 -23 -136 31 -181 27 -23 29 -28
20 -53 -26 -67 2 -143 59 -167 26 -11 30 -18 30 -52 0 -60 23 -93 85 -123 47
-23 60 -36 88 -89 18 -33 48 -84 65 -111 27 -43 31 -55 23 -80 -27 -83 -73
-276 -78 -322 -11 -104 21 -108 202 -24 125 59 248 103 269 97 215 -54 223
-55 343 -56 121 0 164 6 273 38 84 24 137 50 234 115 142 95 227 189 301 335
38 75 51 92 70 92 50 0 105 70 105 134 0 28 5 36 28 44 56 19 85 121 52 182
-6 10 4 28 31 57 34 37 39 48 39 91 0 35 -6 57 -21 77 -21 26 -21 28 -5 61 29
63 18 135 -31 186 -24 25 -25 30 -13 58 16 38 8 105 -17 132 -10 11 -35 31
-56 44 -29 19 -37 30 -35 52 5 82 -34 140 -112 163 -36 11 -40 15 -46 56 -5
35 -14 50 -49 78 -34 28 -54 36 -103 41 -57 6 -61 9 -67 35 -13 60 -93 98
-175 85 -37 -6 -42 -3 -79 36 -38 42 -42 43 -100 43 -34 -1 -66 -6 -73 -13
-18 -18 -46 -15 -75 8 -31 24 -115 27 -153 5z m-23 -712 c37 -25 149 -25 186
0 26 17 27 17 46 -2 29 -29 105 -54 148 -49 35 4 42 1 90 -48 28 -29 68 -58
87 -65 20 -7 36 -20 36 -29 1 -42 41 -101 90 -132 49 -30 50 -32 50 -79 0 -42
5 -55 35 -88 30 -33 35 -45 35 -89 0 -61 11 -93 42 -122 51 -47 11 -191 -98
-356 -88 -131 -230 -244 -366 -291 -194 -65 -335 -68 -523 -13 -60 18 -119 32
-131 32 -23 -2 -82 -26 -203 -84 -90 -44 -108 -41 -89 14 14 38 57 196 64 229
3 19 -7 41 -48 95 -92 121 -167 333 -124 350 23 9 66 85 66 117 0 14 -4 37
-10 51 -8 23 -6 30 20 52 30 27 60 98 60 144 0 19 9 30 35 44 37 20 65 59 84
119 11 32 17 37 43 37 30 0 88 48 114 95 9 17 20 20 67 17 58 -3 118 19 146
52 17 20 16 20 48 -1z"/>
<path d="M1128 1579 c-10 -5 -29 -30 -44 -54 -21 -37 -25 -52 -19 -85 21 -123
167 -162 244 -64 40 51 23 148 -35 193 -29 23 -114 29 -146 10z"/>
<path d="M1763 1543 c-76 -15 -126 -158 -62 -178 30 -10 58 4 76 38 29 58 64
63 93 15 30 -51 40 -59 63 -52 34 9 48 35 41 69 -19 89 -99 130 -211 108z"/>
<path d="M1033 1093 c-31 -21 -29 -46 7 -98 69 -100 224 -198 355 -225 71 -14
177 -9 255 12 123 32 275 142 319 230 24 49 16 71 -30 87 -29 10 -33 8 -58
-22 -58 -71 -129 -131 -196 -165 -67 -34 -75 -36 -176 -36 -58 -1 -117 4 -130
10 -13 6 -45 21 -71 33 -66 31 -141 92 -178 146 -34 49 -58 56 -97 28z"/>
</g>
</svg>
