<?xml version="1.0" standalone="no"?>
<!DOCTYPE svg PUBLIC "-//W3C//DTD SVG 20010904//EN"
 "http://www.w3.org/TR/2001/REC-SVG-20010904/DTD/svg10.dtd">
<svg version="1.0" xmlns="http://www.w3.org/2000/svg"
 width="300.000000pt" height="300.000000pt" viewBox="0 0 300.000000 300.000000"
 preserveAspectRatio="xMidYMid meet">
<metadata>
Created by potrace 1.16, written by Peter Selinger 2001-2019
</metadata>
<g transform="translate(0.000000,300.000000) scale(0.100000,-0.100000)"
fill="#ffffff" stroke="none">
<path d="M1340 2459 c-14 -5 -28 -17 -33 -25 -6 -10 -26 -14 -67 -14 -73 0
-101 -10 -145 -55 -20 -19 -44 -35 -54 -35 -24 0 -94 -48 -121 -83 -13 -16
-40 -39 -61 -52 -23 -15 -52 -48 -74 -86 -19 -33 -42 -68 -50 -76 -21 -21 -41
-62 -50 -103 -4 -19 -19 -51 -33 -72 -19 -29 -27 -58 -32 -116 -4 -42 -12 -87
-18 -99 -19 -34 -42 -180 -42 -264 0 -86 13 -174 36 -236 15 -41 15 -45 -5
-77 -26 -42 -27 -92 -1 -134 19 -30 19 -35 5 -62 -18 -34 -20 -128 -4 -163 9
-20 8 -30 -6 -50 -19 -30 -14 -93 13 -139 15 -25 14 -29 -1 -46 -24 -26 -22
-96 4 -148 l22 -42 -21 -30 c-12 -16 -26 -41 -32 -56 -9 -26 -9 -26 34 -26 36
0 47 5 60 25 21 32 51 32 72 0 13 -20 25 -25 55 -25 22 0 39 2 39 5 0 3 -11
28 -25 55 -23 45 -24 54 -14 95 10 38 19 50 55 71 24 14 60 30 81 36 21 5 45
15 53 22 8 7 41 22 73 35 62 25 84 25 197 -3 169 -42 269 -47 404 -21 207 40
331 101 453 223 52 52 57 54 69 37 19 -25 18 -75 -1 -89 -13 -10 -14 -18 -1
-64 7 -29 18 -58 24 -64 8 -8 5 -22 -9 -51 -23 -44 -20 -83 9 -143 15 -32 15
-37 -1 -63 -9 -15 -21 -40 -26 -54 -10 -27 -10 -27 33 -27 36 0 45 4 54 26 15
32 62 31 77 -4 8 -18 18 -22 52 -22 49 0 55 13 23 50 -30 35 -35 68 -16 119
19 55 21 104 4 131 -10 16 -10 26 1 52 22 53 25 112 7 127 -18 15 -22 66 -6
76 6 3 10 35 10 70 0 35 -4 67 -10 70 -15 9 -12 57 5 79 19 26 19 65 -1 127
-13 39 -14 56 -6 74 38 82 39 329 2 465 -11 41 -25 105 -30 143 -9 66 -20 97
-45 127 -7 8 -20 41 -29 72 -9 32 -29 73 -45 90 -15 18 -36 47 -44 65 -18 34
-83 100 -107 108 -8 3 -24 18 -34 34 -24 35 -92 81 -121 81 -11 0 -33 14 -50
31 -38 40 -82 59 -141 59 -30 0 -56 7 -74 20 -43 31 -85 35 -130 15 -34 -15
-45 -16 -82 -5 -64 18 -100 21 -128 9z m131 -105 c20 -18 38 -18 58 0 17 15
101 32 101 21 0 -4 -15 -25 -34 -48 -68 -85 -91 -166 -58 -207 17 -21 22 -22
36 -11 9 7 21 32 28 55 28 96 102 176 163 176 34 0 61 -22 50 -40 -3 -5 -12
-10 -20 -10 -19 0 -77 -56 -109 -104 -41 -61 -32 -106 20 -106 8 0 23 20 35
44 24 52 71 96 119 113 44 16 62 16 95 1 36 -16 31 -35 -12 -42 -42 -8 -138
-69 -154 -97 -5 -10 -7 -30 -3 -44 8 -34 42 -33 88 4 87 70 184 94 225 57 12
-11 21 -22 21 -26 0 -4 -26 -10 -57 -14 -106 -12 -173 -58 -158 -106 8 -26 46
-26 101 0 63 31 107 35 159 15 64 -24 59 -41 -11 -37 -93 6 -168 -42 -133 -84
10 -13 24 -14 73 -8 104 13 166 2 166 -31 0 -18 -11 -19 -62 -3 -32 9 -44 9
-73 -5 -19 -9 -35 -23 -35 -32 0 -18 50 -45 85 -45 38 0 93 -28 101 -52 8 -25
-2 -34 -20 -19 -8 7 -30 11 -48 9 -26 -2 -34 -8 -36 -26 -4 -30 13 -50 51 -60
17 -4 40 -20 51 -36 19 -24 21 -41 21 -159 0 -90 -6 -156 -17 -206 -17 -73
-74 -203 -110 -251 -82 -109 -108 -138 -175 -191 -119 -95 -257 -151 -421
-171 -113 -14 -209 -2 -334 42 -45 16 -91 30 -101 30 -9 0 -48 -14 -85 -31
-79 -36 -203 -89 -210 -89 -7 0 5 67 28 149 11 41 20 96 20 123 0 42 -6 57
-49 116 -61 84 -80 123 -122 242 -29 86 -32 105 -32 210 0 63 5 134 12 157 10
37 18 45 67 68 49 23 55 29 52 53 -3 26 -5 27 -60 26 -61 -1 -65 1 -45 27 12
16 46 26 125 36 34 4 43 10 48 29 3 13 4 30 1 38 -5 14 -75 29 -99 22 -74 -23
-89 -12 -29 22 36 21 43 21 114 10 82 -12 107 -5 107 33 0 30 -40 48 -125 56
l-80 8 28 19 c38 26 117 33 148 13 44 -28 98 -40 114 -27 49 41 -46 120 -145
120 -47 0 -54 20 -15 46 48 31 158 -7 225 -79 24 -26 33 -30 47 -21 10 6 19
23 21 38 5 42 -70 110 -143 132 -59 17 -67 33 -23 48 62 22 196 -57 228 -133
13 -32 31 -44 55 -35 61 24 -17 169 -112 210 -36 15 -40 23 -21 42 21 21 64
13 110 -22 55 -42 77 -74 98 -146 18 -61 39 -73 71 -44 16 15 19 26 14 53 -9
46 -48 122 -85 164 -16 19 -30 38 -30 41 0 12 94 -6 111 -20z m-741 -1532 c25
-20 23 -40 -8 -80 l-18 -23 -22 21 c-27 25 -29 75 -4 89 23 14 27 14 52 -7z
m1598 -28 c2 -30 -2 -45 -17 -58 -24 -22 -34 -17 -55 28 -24 51 -7 77 49 73
16 -2 21 -10 23 -43z m1 -176 c15 -41 -18 -98 -46 -80 -13 9 -33 47 -33 64 0
13 33 34 58 37 7 0 16 -9 21 -21z m-1621 6 c28 -8 29 -44 2 -69 -16 -14 -22
-15 -34 -5 -22 18 -29 49 -16 65 14 17 16 17 48 9z m0 -255 c3 -41 -12 -51
-36 -27 -12 12 -17 80 -6 91 13 13 40 -27 42 -64z m1617 52 c7 -22 -3 -70 -17
-88 -22 -27 -66 55 -51 94 8 21 61 16 68 -6z"/>
<path d="M1130 1674 c-74 -52 -88 -138 -33 -196 82 -86 233 -37 233 76 0 68
-17 104 -61 126 -51 26 -96 24 -139 -6z"/>
<path d="M1750 1644 c-46 -19 -80 -70 -80 -117 0 -30 5 -40 26 -49 32 -15 51
-4 77 45 16 31 24 37 51 37 28 0 35 -6 54 -45 23 -47 53 -60 80 -33 15 15 16
69 1 100 -27 61 -136 93 -209 62z"/>
<path d="M1022 1195 c-25 -32 -20 -51 28 -109 76 -92 199 -171 315 -202 64
-18 206 -18 270 0 133 36 249 116 319 220 32 48 33 80 4 100 -37 26 -53 19
-113 -49 -106 -121 -213 -175 -346 -175 -124 0 -253 59 -332 152 -84 98 -109
109 -145 63z"/>
</g>
</svg>
