<?xml version="1.0" standalone="no"?>
<!DOCTYPE svg PUBLIC "-//W3C//DTD SVG 20010904//EN"
 "http://www.w3.org/TR/2001/REC-SVG-20010904/DTD/svg10.dtd">
<svg version="1.0" xmlns="http://www.w3.org/2000/svg"
 width="300.000000pt" height="300.000000pt" viewBox="0 0 300.000000 300.000000"
 preserveAspectRatio="xMidYMid meet">
<metadata>
Created by potrace 1.16, written by Peter Selinger 2001-2019
</metadata>
<g transform="translate(0.000000,300.000000) scale(0.100000,-0.100000)"
fill="#ffffff" stroke="none">
<path d="M2223 2383 c9 -2 23 -2 30 0 6 3 -1 5 -18 5 -16 0 -22 -2 -12 -5z"/>
<path d="M1290 2329 c-117 -10 -178 -35 -305 -124 -134 -94 -218 -201 -324
-413 -72 -144 -121 -264 -139 -342 -6 -25 -14 -56 -17 -70 -49 -194 -46 -364
8 -466 23 -44 114 -126 192 -174 39 -23 72 -44 74 -46 2 -2 -20 -96 -49 -209
-51 -199 -52 -206 -35 -225 28 -31 65 -24 187 33 62 30 150 67 195 83 75 26
86 27 115 15 99 -39 188 -52 331 -48 78 2 165 9 192 15 144 30 347 147 470
272 46 47 111 105 144 129 91 66 155 138 179 204 31 81 31 268 1 383 -58 225
-99 325 -211 520 -137 242 -284 378 -473 439 -71 24 -90 26 -190 21 -60 -3
-119 -5 -130 -6 -11 0 -47 3 -80 7 -33 4 -94 5 -135 2z m235 -472 c-2 -23 -7
-74 -11 -113 l-6 -72 68 5 c112 7 109 5 133 78 11 36 21 77 21 90 0 42 29 29
52 -21 11 -26 23 -67 27 -93 l6 -46 112 -3 c107 -3 113 -4 118 -25 40 -179 48
-242 49 -387 1 -171 -10 -248 -55 -367 -27 -74 -59 -127 -100 -172 -28 -30
-16 -41 52 -49 l53 -7 -49 -42 c-69 -59 -169 -110 -278 -141 -77 -22 -112 -26
-217 -26 -112 0 -136 3 -231 32 -59 18 -119 32 -134 32 -15 0 -85 -27 -157
-61 -71 -33 -132 -58 -136 -55 -3 4 12 66 34 139 l39 132 80 5 c104 6 117 15
72 46 -46 31 -99 119 -133 219 -25 76 -26 90 -27 285 -1 204 6 267 39 373 11
33 22 48 37 52 12 2 111 6 220 7 195 3 199 3 218 26 10 13 24 43 30 65 6 23
17 49 24 57 7 8 17 29 21 45 9 39 14 46 24 40 5 -3 7 -24 5 -48z"/>
<path d="M1146 1578 c-47 -27 -65 -61 -66 -121 0 -51 4 -61 33 -93 86 -94 237
-24 224 104 -9 88 -120 152 -191 110z"/>
<path d="M1743 1534 c-34 -17 -73 -82 -73 -121 0 -29 28 -55 53 -51 12 2 33
20 47 42 15 21 34 42 43 48 25 14 54 -7 67 -47 11 -34 14 -36 53 -33 40 3 42
5 45 38 5 45 -22 95 -63 120 -40 25 -126 26 -172 4z"/>
<path d="M1043 1093 c-13 -8 -23 -22 -23 -30 0 -58 130 -193 232 -242 178 -84
340 -81 522 11 74 38 161 119 192 180 27 54 24 71 -17 88 -24 10 -33 10 -54
-4 -14 -9 -25 -20 -25 -25 0 -18 -104 -112 -161 -146 -73 -43 -123 -56 -205
-56 -124 0 -217 45 -331 159 -45 45 -88 82 -95 81 -7 0 -23 -7 -35 -16z"/>
</g>
</svg>
