<?xml version="1.0" standalone="no"?>
<!DOCTYPE svg PUBLIC "-//W3C//DTD SVG 20010904//EN"
 "http://www.w3.org/TR/2001/REC-SVG-20010904/DTD/svg10.dtd">
<svg version="1.0" xmlns="http://www.w3.org/2000/svg"
 width="300.000000pt" height="300.000000pt" viewBox="0 0 300.000000 300.000000"
 preserveAspectRatio="xMidYMid meet">
<metadata>
Created by potrace 1.16, written by Peter Selinger 2001-2019
</metadata>
<g transform="translate(0.000000,300.000000) scale(0.100000,-0.100000)"
fill="#ffffff" stroke="none">
<path d="M1357 2524 c-247 -39 -470 -194 -572 -399 -25 -50 -45 -100 -45 -112
0 -12 -5 -25 -10 -28 -6 -3 -10 -30 -10 -60 0 -57 -19 -125 -69 -244 -59 -139
-75 -317 -45 -480 19 -105 60 -208 130 -326 l53 -90 -15 -60 c-8 -33 -17 -71
-20 -85 -3 -14 -17 -62 -30 -107 -16 -51 -24 -99 -22 -129 3 -42 6 -49 31 -57
22 -7 39 -4 80 16 29 14 63 28 77 32 14 4 72 30 130 58 106 51 172 64 202 40
7 -6 48 -20 91 -32 61 -17 106 -21 217 -21 134 0 144 2 246 36 299 100 506
299 618 596 38 101 49 191 43 329 -6 135 -25 218 -77 339 -17 41 -38 109 -46
150 -29 158 -77 272 -149 358 -128 153 -288 240 -505 277 -102 18 -186 17
-303 -1z m343 -86 c30 -7 101 -33 156 -59 88 -40 112 -57 186 -131 70 -69 93
-101 125 -169 50 -104 79 -215 62 -235 -15 -18 -99 -18 -123 -1 -10 8 -35 58
-56 112 -50 135 -63 136 -55 4 7 -97 6 -105 -13 -123 -35 -31 -66 -15 -80 41
-29 117 -44 159 -86 248 -46 98 -68 116 -86 73 -9 -23 -27 -77 -81 -246 -48
-148 -8 -136 -444 -129 -205 4 -380 10 -390 13 -14 6 -16 15 -11 55 4 26 14
67 22 91 9 24 17 48 18 53 1 6 12 31 23 57 52 116 174 229 308 287 28 12 57
26 66 31 27 14 141 39 199 43 75 5 193 -2 260 -15z m95 -495 c9 -38 22 -93 27
-123 6 -30 14 -59 18 -64 5 -4 91 -8 192 -7 166 2 186 0 200 -16 46 -54 97
-318 84 -433 -11 -95 -47 -233 -76 -290 -43 -84 -156 -217 -240 -281 -152
-117 -301 -169 -480 -169 -99 0 -209 21 -298 57 l-64 25 -71 -32 c-40 -18 -88
-39 -107 -46 -19 -8 -42 -19 -50 -23 -9 -5 -30 -12 -47 -15 l-31 -7 8 38 c7
36 27 108 49 183 18 58 13 79 -34 147 -93 132 -133 234 -155 393 -14 96 3 252
35 335 13 33 26 70 30 82 15 53 16 54 288 45 295 -8 520 -6 562 6 31 9 39 24
89 172 37 113 46 116 71 23z"/>
<path d="M1151 1663 c-85 -42 -79 -194 9 -241 33 -17 117 -8 142 15 30 27 48
68 48 110 -1 103 -103 163 -199 116z"/>
<path d="M1801 1639 c-50 -10 -84 -41 -102 -90 -20 -54 -11 -86 27 -95 23 -6
32 -2 51 22 12 16 23 35 23 41 0 7 12 16 27 19 27 7 45 -7 84 -65 21 -32 62
-23 79 18 10 24 9 35 -5 65 -31 65 -108 101 -184 85z"/>
<path d="M1062 1184 c-30 -21 -28 -65 5 -106 114 -141 272 -218 446 -218 154
0 273 43 378 138 104 95 132 170 72 193 -36 13 -59 4 -83 -35 -32 -54 -103
-112 -177 -148 -65 -31 -74 -33 -183 -33 -113 0 -116 1 -191 38 -59 28 -93 55
-147 112 -39 41 -77 75 -84 75 -8 0 -24 -7 -36 -16z"/>
</g>
</svg>
