<?xml version="1.0" standalone="no"?>
<!DOCTYPE svg PUBLIC "-//W3C//DTD SVG 20010904//EN"
 "http://www.w3.org/TR/2001/REC-SVG-20010904/DTD/svg10.dtd">
<svg version="1.0" xmlns="http://www.w3.org/2000/svg"
 width="300.000000pt" height="300.000000pt" viewBox="0 0 300.000000 300.000000"
 preserveAspectRatio="xMidYMid meet">
<metadata>
Created by potrace 1.16, written by Peter Selinger 2001-2019
</metadata>
<g transform="translate(0.000000,300.000000) scale(0.100000,-0.100000)"
fill="#ffffff" stroke="none">
<path d="M1434 2640 c-66 -45 -88 -49 -118 -21 -12 11 -38 23 -59 26 -35 7
-40 5 -81 -40 l-44 -48 -36 23 c-37 22 -38 22 -78 4 -27 -12 -45 -29 -54 -49
-20 -48 -37 -58 -86 -49 -57 10 -69 7 -94 -21 -19 -20 -22 -40 -28 -157 -4
-73 -11 -191 -17 -263 -9 -123 -12 -134 -54 -220 -77 -159 -125 -331 -125
-449 0 -173 53 -341 166 -522 47 -76 51 -95 29 -134 -8 -14 -14 -37 -15 -52 0
-15 -14 -76 -30 -135 -33 -116 -36 -153 -18 -171 18 -18 69 -15 110 6 20 11
65 29 99 42 35 12 95 38 133 57 80 40 111 40 236 2 111 -34 330 -39 432 -9
179 52 305 122 430 239 97 92 160 179 218 305 53 115 72 212 73 366 0 158 -29
276 -108 435 -53 108 -54 112 -60 220 -4 61 -11 151 -16 200 -5 50 -9 116 -9
148 0 69 -10 91 -51 112 -25 13 -36 14 -63 4 -44 -16 -61 -8 -85 40 -34 66
-90 90 -135 56 -29 -22 -40 -19 -91 25 -25 22 -52 40 -58 40 -7 0 -36 -11 -65
-25 -30 -14 -60 -25 -67 -25 -7 0 -35 18 -63 40 -27 22 -52 40 -55 40 -2 0
-31 -18 -63 -40z m-151 -662 c138 -30 317 -29 436 1 47 12 115 21 156 21 70 0
74 -1 109 -36 36 -36 56 -85 56 -137 0 -52 30 -95 106 -153 130 -100 149 -141
149 -319 -1 -209 -54 -350 -187 -503 -81 -92 -141 -140 -250 -200 -107 -58
-195 -83 -321 -89 -119 -6 -171 1 -311 47 l-89 29 -61 -25 c-34 -14 -74 -31
-91 -38 -16 -8 -51 -23 -78 -35 -65 -29 -79 -28 -72 7 9 40 25 102 40 147 30
91 29 108 -13 171 -64 97 -102 168 -134 256 -27 74 -31 98 -35 225 -5 134 -4
144 18 189 17 32 46 64 94 102 39 30 82 68 97 84 29 30 31 36 48 132 13 75 37
116 80 139 42 22 99 18 253 -15z"/>
<path d="M1118 1655 c-58 -39 -73 -107 -38 -174 31 -62 118 -90 180 -58 59 30
88 125 57 187 -34 68 -132 90 -199 45z"/>
<path d="M1744 1626 c-47 -21 -74 -61 -74 -112 0 -33 5 -46 19 -54 30 -16 68
4 85 45 21 50 54 48 96 -6 27 -34 38 -40 64 -37 34 3 42 20 32 71 -7 39 -44
83 -80 97 -37 14 -105 12 -142 -4z"/>
<path d="M1034 1176 c-26 -22 -27 -25 -15 -55 16 -36 106 -130 165 -170 42
-29 130 -65 201 -83 22 -5 87 -7 145 -5 104 5 175 23 251 62 47 25 146 122
176 173 24 40 24 44 9 67 -9 14 -28 28 -43 31 -22 6 -31 2 -48 -21 -54 -76
-111 -127 -184 -163 -75 -37 -77 -37 -196 -36 l-120 1 -81 45 c-53 29 -104 68
-146 111 -35 37 -69 67 -75 67 -7 0 -24 -11 -39 -24z"/>
</g>
</svg>
