<?xml version="1.0" standalone="no"?>
<!DOCTYPE svg PUBLIC "-//W3C//DTD SVG 20010904//EN"
 "http://www.w3.org/TR/2001/REC-SVG-20010904/DTD/svg10.dtd">
<svg version="1.0" xmlns="http://www.w3.org/2000/svg"
 width="300.000000pt" height="300.000000pt" viewBox="0 0 300.000000 300.000000"
 preserveAspectRatio="xMidYMid meet">
<metadata>
Created by potrace 1.16, written by Peter Selinger 2001-2019
</metadata>
<g transform="translate(0.000000,300.000000) scale(0.100000,-0.100000)"
fill="#ffffff" stroke="none">
<path d="M1360 2440 c-171 -21 -349 -105 -478 -224 -105 -96 -185 -252 -222
-431 -7 -33 -22 -80 -35 -105 -30 -61 -55 -176 -62 -285 -4 -69 -1 -115 15
-195 29 -145 60 -220 150 -358 43 -65 41 -87 -34 -337 -27 -90 -30 -136 -9
-151 21 -16 76 -19 90 -5 6 4 66 32 135 61 69 28 141 61 160 72 38 23 111 28
132 11 7 -6 45 -20 84 -32 100 -29 301 -30 416 -1 44 12 87 25 96 30 9 5 46
22 82 39 216 99 399 294 477 508 44 121 65 255 58 368 -6 100 -36 230 -74 319
-11 25 -27 81 -36 123 -68 336 -391 583 -780 598 -55 2 -129 0 -165 -5z m328
-101 c140 -29 282 -110 375 -214 68 -77 139 -207 153 -281 3 -22 10 -43 14
-49 4 -5 11 -53 15 -105 4 -57 13 -107 23 -125 14 -24 17 -60 17 -190 0 -182
-13 -239 -85 -373 -157 -291 -430 -454 -735 -439 -117 6 -171 17 -261 53 -74
29 -51 33 -194 -29 -25 -11 -68 -30 -96 -43 -57 -27 -84 -30 -84 -11 0 11 13
58 55 207 19 69 19 71 -5 100 -73 93 -124 192 -161 311 -32 105 -33 311 -2
419 11 41 24 109 27 150 6 79 39 198 69 243 9 14 17 29 17 33 0 20 67 107 89
116 15 6 21 12 14 15 -24 9 -13 21 85 91 118 84 223 124 387 145 54 7 188 -4
283 -24z"/>
<path d="M1400 2270 c0 -11 7 -20 15 -20 8 0 15 9 15 20 0 11 -7 20 -15 20 -8
0 -15 -9 -15 -20z"/>
<path d="M1557 2283 c-4 -3 -7 -12 -7 -20 0 -17 26 -17 33 1 8 21 -11 35 -26
19z"/>
<path d="M1250 2259 c0 -6 7 -8 16 -5 12 5 15 2 10 -9 -3 -9 -2 -13 4 -10 18
11 11 35 -10 35 -11 0 -20 -5 -20 -11z"/>
<path d="M1702 2249 c1 -13 8 -23 13 -21 15 3 12 35 -3 40 -9 3 -13 -3 -10
-19z"/>
<path d="M1113 2233 c-16 -6 -5 -33 13 -33 8 0 14 6 14 14 0 18 -11 25 -27 19z"/>
<path d="M1846 2225 c4 -8 10 -15 15 -15 5 0 9 7 9 15 0 8 -7 15 -15 15 -9 0
-12 -6 -9 -15z"/>
<path d="M1337 2193 c-13 -12 -7 -43 8 -43 9 0 15 9 15 25 0 24 -10 32 -23 18z"/>
<path d="M1474 2188 c-4 -5 0 -14 7 -19 20 -13 29 -11 29 5 0 18 -27 29 -36
14z"/>
<path d="M1187 2164 c-8 -8 3 -34 14 -34 5 0 9 9 9 20 0 19 -11 26 -23 14z"/>
<path d="M1780 2156 c0 -9 7 -16 16 -16 9 0 14 5 12 12 -6 18 -28 21 -28 4z"/>
<path d="M1036 2153 c-12 -12 -6 -33 9 -33 8 0 15 6 15 14 0 17 -14 28 -24 19z"/>
<path d="M1935 2150 c-10 -17 12 -37 25 -24 8 8 6 15 -4 23 -10 9 -16 9 -21 1z"/>
<path d="M1548 2089 c-10 -6 -18 -14 -18 -19 0 -14 37 -12 46 1 10 17 -9 29
-28 18z"/>
<path d="M1400 2075 c0 -11 7 -15 23 -13 12 2 22 8 22 13 0 6 -10 11 -22 13
-16 2 -23 -2 -23 -13z"/>
<path d="M1107 2074 c-9 -10 4 -34 19 -34 8 0 14 9 14 20 0 19 -19 27 -33 14z"/>
<path d="M1250 2065 c0 -10 7 -15 17 -13 22 4 23 22 1 26 -11 2 -18 -3 -18
-13z"/>
<path d="M1852 2063 c5 -25 28 -28 28 -4 0 12 -6 21 -16 21 -9 0 -14 -7 -12
-17z"/>
<path d="M1700 2060 c0 -5 5 -10 10 -10 6 0 10 5 10 10 0 6 -4 10 -10 10 -5 0
-10 -4 -10 -10z"/>
<path d="M942 2023 c5 -25 28 -28 28 -4 0 12 -6 21 -16 21 -9 0 -14 -7 -12
-17z"/>
<path d="M2006 2013 c-11 -11 -6 -23 9 -23 8 0 15 4 15 9 0 13 -16 22 -24 14z"/>
<path d="M1340 1991 c0 -11 26 -22 34 -14 3 3 3 10 0 14 -7 12 -34 11 -34 0z"/>
<path d="M1620 1985 c0 -9 6 -12 15 -9 8 4 15 10 15 15 0 5 -7 9 -15 9 -8 0
-15 -7 -15 -15z"/>
<path d="M1477 1973 c-4 -3 -7 -11 -7 -17 0 -6 5 -5 12 2 6 6 9 14 7 17 -3 3
-9 2 -12 -2z"/>
<path d="M2090 1960 c-13 -9 -13 -10 0 -10 13 0 13 -1 0 -10 -13 -8 -12 -10 3
-10 10 0 17 8 17 20 0 23 0 23 -20 10z"/>
<path d="M2153 1865 c-3 -9 -3 -18 -1 -21 3 -3 8 4 11 16 6 23 -1 27 -10 5z"/>
<path d="M2180 1739 c0 -5 5 -7 10 -4 6 3 10 8 10 11 0 2 -4 4 -10 4 -5 0 -10
-5 -10 -11z"/>
<path d="M1155 1673 c-38 -10 -64 -35 -81 -78 -22 -58 -13 -103 29 -142 64
-62 153 -53 200 19 32 50 34 85 6 139 -28 56 -86 79 -154 62z"/>
<path d="M1741 1627 c-48 -17 -75 -57 -75 -113 -1 -53 16 -71 57 -60 18 4 30
17 38 41 22 61 72 58 105 -6 29 -57 94 -40 94 25 0 94 -111 151 -219 113z"/>
<path d="M1021 1181 c-28 -28 -16 -65 45 -131 64 -68 157 -131 239 -161 79
-29 284 -33 355 -7 123 44 217 110 276 190 43 58 43 96 2 116 -36 17 -58 5
-95 -50 -37 -55 -106 -107 -185 -138 -54 -21 -79 -25 -173 -25 -105 1 -113 2
-174 34 -80 42 -92 51 -166 129 -64 66 -91 76 -124 43z"/>
</g>
</svg>
