<?xml version="1.0" standalone="no"?>
<!DOCTYPE svg PUBLIC "-//W3C//DTD SVG 20010904//EN"
 "http://www.w3.org/TR/2001/REC-SVG-20010904/DTD/svg10.dtd">
<svg version="1.0" xmlns="http://www.w3.org/2000/svg"
 width="300.000000pt" height="300.000000pt" viewBox="0 0 300.000000 300.000000"
 preserveAspectRatio="xMidYMid meet">
<metadata>
Created by potrace 1.16, written by Peter Selinger 2001-2019
</metadata>
<g transform="translate(0.000000,300.000000) scale(0.100000,-0.100000)"
fill="#ffffff" stroke="none">
<path d="M1270 2470 c-8 -5 -25 -10 -38 -10 -32 0 -166 -57 -227 -96 -84 -53
-156 -125 -211 -211 -82 -127 -112 -211 -129 -368 -4 -33 -16 -77 -27 -99 -11
-21 -31 -82 -44 -134 -61 -239 -13 -495 132 -714 l46 -69 -21 -67 c-11 -37
-28 -94 -37 -127 -14 -54 -21 -86 -40 -176 -8 -38 11 -69 43 -69 14 0 67 19
117 42 50 23 140 61 201 83 l110 42 66 -23 c37 -13 116 -31 175 -40 211 -33
403 15 625 155 177 112 326 332 378 557 23 102 28 260 11 360 -12 62 -64 232
-85 274 -7 14 -16 57 -20 95 -15 150 -57 254 -139 338 -66 69 -113 93 -226
116 -59 12 -101 27 -122 43 -45 34 -116 70 -158 79 -19 4 -53 12 -75 18 -50
13 -285 14 -305 1z m366 -103 c92 -32 123 -49 157 -85 24 -25 39 -31 95 -37
168 -18 270 -122 306 -314 24 -125 24 -124 -26 -116 -42 7 -124 49 -163 83
-40 34 -94 108 -122 167 -16 34 -35 61 -46 63 -9 2 -39 -16 -68 -41 -97 -85
-312 -194 -430 -218 -30 -6 -70 -15 -89 -19 -19 -5 -64 -13 -100 -20 -36 -6
-87 -15 -115 -20 -27 -5 -99 -11 -158 -14 -128 -5 -129 -4 -104 93 55 215 214
396 412 470 88 34 137 40 265 36 90 -2 130 -9 186 -28z m209 -414 c43 -73 117
-137 209 -182 46 -23 96 -41 110 -41 21 0 30 -9 49 -47 135 -268 99 -574 -97
-823 -209 -268 -549 -373 -868 -269 -103 34 -141 34 -210 0 -24 -11 -79 -36
-123 -55 -95 -41 -99 -37 -65 66 32 96 48 193 37 214 -6 10 -26 38 -44 63 -64
83 -120 222 -143 351 -13 68 -7 230 10 285 39 126 52 164 63 178 9 13 45 19
157 27 203 15 407 56 568 116 119 44 174 72 242 123 30 23 60 41 66 41 7 0 24
-21 39 -47z"/>
<path d="M1155 1665 c-82 -37 -112 -113 -76 -188 24 -50 61 -72 122 -72 42 0
105 43 120 82 41 108 -67 224 -166 178z"/>
<path d="M1743 1621 c-46 -21 -71 -53 -83 -105 -6 -29 -4 -38 15 -56 31 -29
56 -22 77 19 36 72 98 77 116 9 6 -26 14 -34 36 -36 29 -4 66 21 66 45 0 7
-10 34 -21 59 -37 77 -120 104 -206 65z"/>
<path d="M1042 1189 c-32 -12 -44 -48 -25 -78 45 -70 128 -147 210 -194 159
-91 355 -91 537 0 56 29 187 157 206 203 11 27 10 33 -5 50 -33 37 -68 26
-124 -39 -63 -73 -137 -124 -221 -151 -161 -54 -372 13 -485 153 -47 58 -63
67 -93 56z"/>
</g>
</svg>
