<?xml version="1.0" standalone="no"?>
<!DOCTYPE svg PUBLIC "-//W3C//DTD SVG 20010904//EN"
 "http://www.w3.org/TR/2001/REC-SVG-20010904/DTD/svg10.dtd">
<svg version="1.0" xmlns="http://www.w3.org/2000/svg"
 width="300.000000pt" height="300.000000pt" viewBox="0 0 300.000000 300.000000"
 preserveAspectRatio="xMidYMid meet">
<metadata>
Created by potrace 1.16, fixed alignment
</metadata>
<g transform="translate(0.000000,300.000000) scale(0.100000,-0.100000)"
fill="#ffffff" stroke="none">
<path d="M3515 7359 c-89 -6 -269 -34 -380 -59 -22 -5 -56 -12 -75 -15 -38 -7 -77 -19 -127 -41 -17 -8 -36 -14 -43 -14 -7 0 -24 -7 -38 -14 -15 -8 -47 -24 -72 -35 -98 -44 -179 -95 -376 -237 -52 -38 -125 -61 -220 -69 -71 -6 -157 -27 -178 -44 -6 -5 -34 -16 -62 -24 -118 -35 -255 -127 -420 -282 -64 -60 -143 -146 -175 -190 -154 -210 -178 -243 -204 -285 -16 -25 -46 -79 -67 -120 -21 -41 -70 -124 -108 -185 -39 -60 -86 -141 -105 -180 -19 -38 -44 -85 -55 -103 -11 -18 -36 -74 -55 -125 -20 -50 -42 -98 -49 -107 -17 -21 -61 -130 -92 -230 -9 -30 -30 -81 -45 -112 -16 -32 -43 -106 -60 -165 -16 -59 -36 -121 -44 -138 -25 -57 -53 -162 -85 -316 -17 -85 -37 -181 -45 -214 -34 -147 -46 -572 -20 -750 19 -131 58 -281 88 -340 146 -282 206 -362 382 -512 78 -66 147 -113 168 -113 8 0 57 -28 108 -63 52 -35 116 -72 143 -83 27 -10 69 -38 92 -61 24 -24 51 -43 58 -43 8 0 24 -12 36 -27 19 -25 21 -35 15 -93 -6 -59 -14 -95 -59 -260 -8 -30 -21 -84 -30 -120 -8 -36 -19 -78 -25 -95 -5 -16 -15 -50 -21 -75 -6 -25 -16 -58 -22 -75 -5 -16 -16 -57 -23 -90 -7 -33 -20 -87 -30 -120 -20 -70 -42 -179 -58 -287 -10 -75 -10 -78 16 -115 33 -47 72 -71 129 -79 37 -5 64 3 208 64 91 38 211 92 266 121 56 28 108 51 116 51 7 0 23 7 34 15 12 8 48 24 80 36 71 25 120 46 154 63 14 7 63 26 110 41 47 15 111 41 144 56 32 16 63 26 68 23 5 -3 15 0 23 6 20 16 76 15 111 -3 16 -7 63 -22 104 -32 41 -10 104 -28 140 -40 36 -12 99 -27 140 -34 41 -7 107 -22 145 -34 66 -20 93 -21 475 -22 394 0 407 1 470 22 36 13 99 27 140 32 109 14 195 36 254 65 28 14 83 36 121 49 111 38 172 62 187 73 7 6 29 17 48 24 39 15 147 84 225 142 28 21 55 38 61 38 6 0 17 6 23 14 7 8 31 24 54 36 23 12 63 39 89 61 26 21 50 39 53 39 14 0 135 101 177 147 24 26 75 81 114 122 74 78 125 142 167 208 36 56 95 113 134 130 19 7 56 28 82 46 84 57 208 127 225 127 15 0 129 67 156 92 14 13 54 45 90 72 53 39 132 123 203 216 40 52 144 283 158 350 6 25 14 72 19 105 5 33 16 85 24 115 24 82 25 528 2 665 -9 55 -21 132 -27 170 -5 39 -14 89 -19 113 -6 23 -10 51 -10 62 0 11 -9 46 -20 77 -11 32 -20 67 -20 79 0 34 -118 383 -150 444 -16 30 -50 100 -75 155 -25 55 -59 127 -75 160 -46 93 -141 298 -151 322 -4 12 -26 48 -47 80 -22 32 -43 69 -47 83 -4 14 -10 27 -14 30 -3 3 -19 29 -35 58 -15 30 -50 87 -77 128 -27 40 -49 76 -49 79 0 12 -195 286 -232 326 -18 20 -60 66 -93 104 -49 55 -163 170 -244 245 -69 66 -185 154 -349 268 -57 39 -327 173 -397 197 -27 9 -54 20 -60 24 -28 21 -339 119 -417 131 -37 6 -80 15 -95 21 -30 11 -238 37 -368 45 -161 9 -192 10 -290 3z m325 -253 c144 -6 329 -31 425 -60 28 -8 68 -20 90 -26 22 -6 49 -15 60 -20 11 -5 36 -13 55 -19 46 -12 161 -56 186 -69 10 -6 69 -34 129 -63 61 -28 129 -64 153 -80 24 -16 45 -29 47 -29 10 0 174 -117 235 -166 36 -29 85 -68 108 -86 24 -18 56 -46 70 -62 15 -16 49 -50 76 -75 27 -25 57 -54 65 -65 9 -10 41 -48 71 -85 76 -90 120 -147 120 -156 0 -4 35 -59 78 -122 77 -116 98 -149 167 -278 20 -38 44 -81 53 -95 58 -88 207 -396 296 -610 15 -36 34 -72 41 -80 7 -8 24 -51 36 -95 12 -44 42 -141 66 -215 69 -213 82 -264 121 -465 35 -180 47 -306 46 -495 -1 -153 -5 -202 -23 -285 -13 -55 -27 -119 -32 -143 -5 -23 -41 -107 -79 -187 -75 -155 -135 -233 -257 -337 -72 -61 -187 -138 -207 -138 -8 0 -17 -4 -21 -9 -7 -12 -143 -53 -230 -71 -33 -7 -93 -21 -134 -32 -41 -10 -80 -17 -88 -14 -18 7 -16 50 3 88 21 40 62 150 77 203 6 22 26 66 44 97 24 41 36 77 42 127 5 38 12 74 15 80 34 54 82 461 73 616 -3 50 -9 146 -12 215 -5 74 -15 147 -25 180 -10 30 -26 96 -34 145 -16 86 -65 228 -93 270 -7 11 -13 25 -13 32 0 18 -96 187 -140 248 -119 162 -314 301 -495 353 -183 52 -342 84 -580 117 -66 10 -147 21 -180 26 -33 4 -114 12 -180 18 -66 5 -132 14 -147 20 -15 6 -60 15 -100 20 -40 6 -104 19 -143 30 -38 11 -88 21 -110 21 -23 0 -45 4 -50 9 -6 4 -57 27 -115 49 -169 67 -309 141 -425 228 -107 80 -284 253 -319 312 -17 29 -35 61 -41 70 -5 9 -36 43 -67 75 -51 50 -63 57 -96 57 -59 0 -72 -22 -93 -156 -17 -111 -58 -250 -100 -343 -46 -100 -194 -301 -279 -376 -105 -95 -283 -282 -307 -324 -15 -25 -37 -59 -49 -76 -25 -34 -79 -147 -119 -250 -15 -38 -36 -82 -46 -97 -33 -46 -71 -280 -92 -563 -18 -243 -15 -351 17 -665 28 -271 35 -308 71 -380 13 -25 39 -85 59 -135 37 -97 63 -159 102 -243 50 -109 36 -123 -96 -98 -138 26 -300 88 -394 149 -45 29 -94 59 -111 67 -66 33 -222 211 -286 327 -23 43 -46 80 -50 83 -10 7 -39 78 -50 120 -27 104 -48 216 -59 304 -17 132 -8 406 14 458 10 23 16 66 16 112 0 101 39 306 70 366 21 41 50 131 50 156 0 9 14 46 30 81 17 34 30 73 30 86 0 12 13 49 29 82 16 33 43 99 60 147 16 48 39 105 50 127 11 21 34 75 51 118 28 71 58 137 140 308 16 33 45 96 65 140 20 44 43 91 51 105 8 14 23 43 33 65 10 22 28 49 40 59 11 11 21 25 21 32 0 7 11 25 24 41 13 15 27 38 31 51 3 13 29 52 56 88 27 35 54 74 60 87 6 12 41 54 78 92 36 39 77 85 91 102 14 17 39 38 55 47 17 9 44 27 60 39 17 12 55 40 85 63 71 52 127 78 224 104 43 11 86 25 95 30 40 21 142 40 160 31 28 -15 101 13 153 58 54 46 160 116 282 184 28 16 72 46 97 67 42 35 145 80 184 80 9 0 44 9 78 19 64 21 156 35 287 46 41 4 104 10 140 14 36 4 81 6 100 4 19 -1 100 -5 180 -7z m-1238 -1572 c28 -15 233 -163 313 -227 17 -13 122 -69 235 -125 180 -88 225 -106 370 -145 252 -68 237 -65 670 -106 128 -12 347 -39 370 -46 8 -2 54 -9 102 -15 48 -6 120 -22 160 -35 40 -14 93 -32 118 -39 137 -43 194 -80 303 -199 57 -62 127 -157 127 -172 0 -2 22 -51 49 -107 58 -122 77 -186 121 -418 32 -169 32 -417 1 -655 -21 -159 -32 -206 -89 -380 -66 -203 -86 -245 -214 -456 -102 -169 -109 -185 -109 -256 -1 -69 11 -83 72 -83 42 0 79 -17 79 -37 0 -14 -47 -62 -91 -93 -27 -19 -81 -62 -121 -95 -100 -82 -169 -130 -253 -175 -22 -12 -56 -34 -75 -49 -19 -15 -60 -39 -90 -53 -213 -101 -282 -128 -329 -128 -28 0 -121 -26 -166 -45 -58 -26 -99 -35 -149 -35 -28 0 -83 -9 -121 -20 -61 -18 -98 -21 -286 -21 -180 0 -231 3 -305 20 -49 11 -141 29 -204 41 -63 13 -125 29 -138 37 -12 7 -48 18 -80 24 -69 13 -171 43 -209 62 -15 8 -48 22 -73 30 -53 18 -108 9 -245 -39 -68 -24 -386 -170 -480 -221 -16 -9 -50 -27 -74 -40 -75 -41 -151 -64 -173 -52 -16 9 -19 18 -15 52 7 63 43 208 60 242 8 17 18 48 21 70 3 22 14 67 24 100 10 33 19 65 20 70 8 50 27 126 42 159 9 23 23 65 29 94 16 65 42 86 123 101 83 14 111 36 119 91 10 76 -5 123 -65 197 -31 37 -70 95 -87 128 -18 33 -45 79 -60 103 -16 24 -29 47 -29 51 0 4 -11 28 -24 53 -13 24 -40 96 -61 159 -21 63 -44 130 -52 149 -8 20 -18 60 -23 90 -4 30 -16 93 -25 140 -26 127 -17 692 14 864 12 65 24 122 27 128 3 5 19 57 34 116 42 159 74 233 135 317 12 17 33 49 45 73 13 23 27 42 31 42 3 0 12 12 18 28 6 15 30 45 54 68 235 227 328 332 383 430 20 35 39 66 44 69 5 3 20 30 34 60 13 30 37 71 52 90 30 40 65 46 116 19z M2604 4710 c-103 -21 -215 -104 -259 -191 -54 -105 -69 -260 -34 -359 14 -39 66 -120 78 -120 4 0 17 -9 28 -20 30 -28 123 -85 167 -104 56 -23 177 -21 251 5 97 34 131 56 179 114 106 130 123 314 44 469 -33 65 -111 140 -185 176 -58 29 -80 34 -148 36 -44 2 -99 -1 -121 -6z M4440 4586 c-120 -24 -147 -35 -203 -86 -125 -114 -175 -329 -98 -420 39 -47 91 -61 155 -42 63 19 96 54 131 143 29 75 44 91 98 109 40 13 88 6 123 -17 22 -14 64 -98 64 -127 0 -23 61 -87 97 -102 70 -30 168 -2 198 56 19 37 15 152 -8 218 -19 56 -83 146 -133 191 -85 75 -267 108 -424 77z M4836 3267 c-44 -11 -121 -83 -179 -167 -58 -85 -143 -181 -179 -202 -18 -11 -37 -25 -43 -31 -40 -47 -170 -137 -250 -173 -33 -15 -85 -42 -115 -60 -52 -30 -169 -60 -326 -84 -89 -14 -372 0 -414 20 -8 4 -48 18 -89 31 -40 12 -94 33 -119 46 -25 13 -52 23 -60 23 -7 0 -26 8 -40 19 -15 10 -47 28 -72 40 -52 25 -112 65 -193 133 -33 26 -69 51 -80 54 -26 6 -47 30 -128 142 -33 45 -65 82 -70 82 -5 0 -9 6 -9 13 0 14 -59 73 -100 101 -39 26 -86 20 -157 -20 -88 -49 -100 -69 -86 -150 8 -46 20 -74 42 -101 17 -21 31 -42 31 -47 0 -30 353 -386 383 -386 3 0 29 -16 58 -36 126 -85 425 -217 539 -239 19 -4 49 -11 65 -15 147 -43 160 -44 355 -44 199 0 213 2 370 49 25 8 86 26 135 40 50 15 104 33 120 40 63 27 201 98 216 111 8 8 31 19 50 26 56 19 149 87 229 168 157 157 220 233 259 315 75 155 74 197 -5 257 -63 48 -90 57 -138 45z" transform="translate(230.53287813566862, 68.79916876948187) scale(0.3562416505863144)"/>
</g>
</svg>
