<?xml version="1.0" standalone="no"?>
<!DOCTYPE svg PUBLIC "-//W3C//DTD SVG 20010904//EN"
 "http://www.w3.org/TR/2001/REC-SVG-20010904/DTD/svg10.dtd">
<svg version="1.0" xmlns="http://www.w3.org/2000/svg"
 width="300.000000pt" height="300.000000pt" viewBox="0 0 300.000000 300.000000"
 preserveAspectRatio="xMidYMid meet">
<metadata>
Created by potrace 1.16, written by Peter Selinger 2001-2019
</metadata>
<g transform="translate(0.000000,300.000000) scale(0.100000,-0.100000)"
fill="#ffffff" stroke="none">

<circle cx="1128" cy="2354" r="60" />

<path d="M1128 2354 c-33 -24 -63 -38 -103 -44 -147 -24 -257 -124 -391 -357
-70 -120 -105 -196 -155 -335 -59 -163 -71 -242 -67 -420 l3 -153 39 -73 c40
-75 99 -136 169 -176 21 -11 51 -28 66 -36 47 -27 81 -57 81 -73 0 -8 -20 -95
-45 -191 -25 -97 -45 -190 -45 -205 0 -64 51 -65 182 -3 146 68 268 114 291
109 12 -2 69 -17 126 -32 95 -24 116 -26 240 -22 75 3 161 10 192 16 167 33
414 191 506 324 26 38 93 87 164 121 65 31 137 103 171 174 l33 67 0 190 c-1
244 -16 301 -150 575 -135 277 -275 440 -466 548 l-56 32 -144 -1 c-79 -1
-130 -4 -114 -6 47 -7 160 -42 212 -66 104 -48 196 -115 271 -195 106 -114
260 -395 315 -577 45 -146 52 -187 52 -321 l0 -130 -38 -76 c-37 -75 -88 -132
-148 -163 -30 -16 -160 -48 -166 -41 -5 5 34 114 46 131 16 21 36 165 36 260
-1 185 -54 336 -147 420 -45 40 -137 85 -175 85 -8 0 -32 4 -52 9 -20 6 -76
15 -126 21 -187 23 -296 50 -375 93 -53 29 -123 85 -151 119 -91 116 -109 121
-126 30 -17 -90 -50 -148 -138 -241 -45 -47 -90 -99 -101 -116 -73 -107 -105
-302 -85 -506 10 -99 18 -132 51 -210 22 -50 37 -95 35 -100 -10 -15 -140 31
-195 68 -67 46 -132 140 -148 215 -26 118 -11 285 38 428 85 249 201 485 284
579 60 67 180 131 246 131 15 0 45 13 66 28 109 78 189 114 279 125 17 2 -31
5 -105 5 l-135 1 -47 -35z m104 -535 c125 -90 270 -142 438 -154 205 -15 319
-48 373 -108 145 -160 148 -494 7 -727 -48 -79 -53 -120 -15 -120 14 0 25 -3
25 -7 0 -23 -172 -147 -247 -179 -130 -55 -335 -78 -453 -50 -113 26 -145 35
-180 49 -43 19 -85 7 -229 -63 -57 -28 -107 -48 -112 -43 -8 8 43 218 64 262
7 15 25 28 45 33 28 8 32 13 32 42 0 18 -7 39 -15 46 -27 22 -82 132 -107 210
-20 65 -23 94 -22 220 2 236 32 317 174 465 36 39 79 94 95 123 15 28 35 52
43 52 8 0 46 -23 84 -51z"/>
<path d="M1123 1569 c-38 -24 -67 -90 -58 -135 23 -127 203 -156 255 -42 24
52 24 67 5 115 -31 77 -131 108 -202 62z"/>
<path d="M1745 1540 c-40 -16 -68 -58 -73 -109 -4 -43 -2 -50 18 -61 32 -17
66 1 84 45 13 29 20 35 46 35 26 0 33 -6 45 -35 19 -44 49 -61 81 -46 49 22
18 136 -46 168 -28 14 -124 16 -155 3z"/>
<path d="M1032 1094 c-14 -10 -22 -25 -22 -45 0 -24 16 -45 78 -107 202 -204
468 -239 710 -94 88 53 182 164 182 216 0 18 -38 46 -62 46 -9 0 -39 -26 -65
-58 -57 -69 -115 -115 -191 -150 -50 -24 -69 -27 -162 -27 -97 0 -110 2 -170
31 -36 17 -79 43 -96 58 -18 14 -37 26 -43 26 -5 0 -15 9 -21 21 -20 37 -82
99 -99 99 -9 0 -27 -7 -39 -16z"/>
</g>
</svg>
