<?xml version="1.0" standalone="no"?>
<!DOCTYPE svg PUBLIC "-//W3C//DTD SVG 20010904//EN"
 "http://www.w3.org/TR/2001/REC-SVG-20010904/DTD/svg10.dtd">
<svg version="1.0" xmlns="http://www.w3.org/2000/svg"
 width="300.000000pt" height="300.000000pt" viewBox="0 0 300.000000 300.000000"
 preserveAspectRatio="xMidYMid meet">
<metadata>
Created by potrace 1.16, written by Peter Selinger 2001-2019
</metadata>
<g transform="translate(0.000000,300.000000) scale(0.100000,-0.100000)"
fill="#ffffff" stroke="none">
<path d="M1480 2718 c-5 -13 -30 -77 -56 -143 -56 -145 -52 -139 -70 -124 -8
7 -14 30 -14 55 0 32 -4 44 -15 44 -23 0 -73 -113 -81 -183 -8 -77 -11 -83
-35 -61 -11 9 -22 14 -27 10 -4 -4 -6 -46 -6 -92 l2 -84 -77 -37 c-239 -114
-431 -351 -501 -618 -30 -112 -30 -325 0 -440 22 -88 114 -283 154 -329 32
-36 32 -38 2 -128 -13 -40 -36 -126 -51 -191 -26 -113 -26 -119 -10 -138 30
-33 39 -30 235 59 25 11 84 35 132 52 l88 32 92 -27 c121 -37 329 -46 452 -20
273 56 528 262 656 530 91 191 105 458 34 667 -77 230 -229 412 -446 535 -119
67 -120 68 -113 106 9 49 13 110 8 124 -8 19 -21 16 -28 -7 -13 -42 -32 -21
-38 43 -7 74 -47 182 -68 182 -8 0 -20 -20 -29 -47 -19 -60 -27 -67 -36 -32
-10 40 -120 270 -133 278 -6 4 -15 -3 -21 -16z m-217 -729 c130 -121 227 -153
327 -108 40 18 135 84 168 116 20 20 47 16 113 -17 176 -87 329 -269 392 -465
41 -126 47 -265 18 -407 -45 -221 -138 -368 -308 -489 -155 -110 -258 -146
-443 -155 -107 -5 -123 -4 -230 26 -63 17 -127 34 -141 37 -31 6 -136 -30
-239 -82 -56 -28 -72 -33 -76 -21 -3 8 8 64 25 125 39 141 40 180 3 223 -101
118 -173 320 -172 486 2 311 172 587 450 729 56 28 84 29 113 2z"/>
<path d="M1133 1570 c-43 -26 -53 -48 -53 -118 0 -57 2 -61 40 -96 48 -44 102
-49 157 -15 41 26 53 53 53 123 0 45 -4 58 -27 81 -50 49 -115 59 -170 25z"/>
<path d="M1773 1548 c-18 -5 -48 -23 -67 -42 -31 -29 -36 -40 -36 -79 0 -84
65 -97 106 -21 31 59 66 56 99 -9 16 -33 40 -43 69 -29 21 9 26 19 26 48 0 42
-31 99 -63 116 -33 17 -98 25 -134 16z"/>
<path d="M1043 1098 c-51 -24 -17 -97 90 -195 132 -120 324 -169 501 -128 121
28 259 121 318 214 33 52 36 86 9 101 -37 19 -58 10 -106 -45 -50 -59 -130
-118 -205 -150 -34 -16 -67 -20 -145 -20 -99 0 -103 1 -186 42 -90 46 -122 71
-183 146 -39 48 -54 54 -93 35z"/>
</g>
</svg>
