<?xml version="1.0" standalone="no"?>
<!DOCTYPE svg PUBLIC "-//W3C//DTD SVG 20010904//EN"
 "http://www.w3.org/TR/2001/REC-SVG-20010904/DTD/svg10.dtd">
<svg version="1.0" xmlns="http://www.w3.org/2000/svg"
 width="300.000000pt" height="300.000000pt" viewBox="0 0 300.000000 300.000000"
 preserveAspectRatio="xMidYMid meet">
<metadata>
Created by potrace 1.16, written by Peter Selinger 2001-2019
</metadata>
<g transform="translate(0.000000,300.000000) scale(0.100000,-0.100000)"
fill="#ffffff" stroke="none">
<path d="M1460 2603 c-8 -3 -24 -17 -35 -30 -25 -30 -95 -41 -149 -23 -54 18
-101 -1 -116 -46 -17 -50 -66 -84 -122 -84 -60 0 -92 -26 -113 -93 -20 -59
-59 -107 -89 -107 -24 0 -59 -26 -74 -54 -5 -11 -7 -46 -5 -77 6 -67 -8 -99
-56 -124 -38 -19 -47 -60 -27 -110 15 -35 15 -40 -10 -99 -65 -156 -76 -204
-81 -356 -4 -112 -1 -161 11 -215 22 -95 79 -232 132 -320 49 -81 50 -87 30
-159 -27 -92 -66 -280 -66 -313 0 -57 52 -64 140 -17 14 7 51 22 82 33 31 11
91 37 133 57 85 41 110 43 182 19 134 -47 345 -60 467 -30 73 19 211 72 246
96 14 9 48 29 75 44 28 16 91 69 140 119 175 175 276 415 275 654 0 101 -30
247 -66 329 -8 17 -14 35 -14 40 0 4 -9 25 -20 46 l-21 38 21 34 c28 46 18 78
-35 115 -23 16 -45 36 -48 44 -3 8 -3 45 0 83 5 64 4 70 -21 94 -14 15 -39 29
-55 32 -39 8 -63 35 -85 97 -24 66 -64 100 -120 100 -35 0 -48 6 -79 38 -20
21 -37 43 -37 49 0 6 -12 21 -27 33 -22 17 -36 20 -63 15 -104 -19 -125 -18
-156 8 -54 45 -98 57 -144 40z m-55 -125 c2 -7 9 -85 15 -173 6 -88 14 -186
18 -217 12 -91 59 -125 100 -73 23 29 26 48 42 230 6 72 14 154 16 183 l6 53
36 -3 37 -3 -1 -60 c-1 -33 -9 -134 -17 -225 -16 -173 -14 -193 25 -206 45
-14 71 38 154 309 28 91 39 102 78 74 18 -13 17 -18 -12 -108 -84 -258 -94
-306 -66 -329 36 -30 121 45 143 126 6 20 17 44 25 53 8 9 18 32 23 51 10 39
41 52 62 26 11 -12 1 -39 -53 -150 -36 -75 -66 -144 -66 -155 0 -11 7 -27 16
-35 33 -33 72 -14 143 70 30 35 58 64 62 64 20 0 14 -33 -14 -73 -18 -25 -49
-70 -70 -101 -44 -62 -43 -88 1 -104 22 -7 36 -5 63 9 18 10 37 18 42 19 15 0
56 -111 71 -193 31 -165 12 -374 -45 -496 -96 -207 -308 -391 -519 -451 -95
-27 -258 -37 -342 -21 -35 7 -97 24 -138 38 -89 30 -107 31 -157 8 -101 -46
-121 -55 -167 -74 -83 -35 -84 -33 -51 79 7 25 21 77 31 116 17 69 17 71 -3
100 -84 120 -129 206 -164 309 -21 62 -24 88 -24 220 0 138 2 157 29 238 16
49 36 98 46 109 l17 22 27 -22 c28 -22 48 -20 79 6 31 27 28 37 -65 168 -42
59 -55 94 -36 94 20 0 31 -10 85 -75 27 -33 62 -66 76 -74 24 -13 29 -12 47 4
32 29 24 69 -40 197 -33 65 -60 125 -60 132 0 18 36 49 49 42 5 -3 13 -21 16
-39 4 -17 16 -44 26 -59 11 -14 19 -32 19 -40 1 -27 67 -123 94 -136 25 -13
30 -12 53 9 31 30 28 44 -38 240 -27 80 -49 152 -49 160 0 15 48 49 69 49 5 0
13 -17 17 -37 14 -78 62 -250 84 -301 33 -76 78 -95 103 -44 12 23 12 51 1
176 -7 81 -15 160 -18 175 -3 14 -6 46 -8 71 -2 43 -1 45 27 51 45 10 45 10
50 -3z"/>
<path d="M1145 1668 c-43 -25 -75 -73 -75 -112 0 -49 36 -110 75 -129 45 -22
70 -21 121 2 95 43 98 187 5 236 -35 18 -98 19 -126 3z"/>
<path d="M1790 1641 c-81 -25 -120 -68 -120 -135 0 -69 77 -73 104 -6 23 58
51 59 101 5 69 -75 125 -52 95 39 -14 43 -58 82 -108 96 -41 11 -38 11 -72 1z"/>
<path d="M1047 1188 c-9 -7 -19 -24 -22 -38 -13 -55 149 -209 260 -246 28 -9
56 -22 64 -28 9 -7 64 -11 145 -11 172 0 233 19 359 113 32 24 65 56 75 70 9
15 19 29 23 32 34 27 33 92 -1 110 -30 16 -54 5 -84 -38 -42 -61 -86 -98 -166
-139 l-75 -38 -125 0 -125 1 -75 43 c-48 27 -98 67 -140 112 -66 70 -83 79
-113 57z"/>
</g>
</svg>
