<?xml version="1.0" standalone="no"?>
<!DOCTYPE svg PUBLIC "-//W3C//DTD SVG 20010904//EN"
 "http://www.w3.org/TR/2001/REC-SVG-20010904/DTD/svg10.dtd">
<svg version="1.0" xmlns="http://www.w3.org/2000/svg"
 width="300.000000pt" height="300.000000pt" viewBox="0 0 300.000000 300.000000"
 preserveAspectRatio="xMidYMid meet">
<metadata>
Created by potrace 1.16, written by Peter Selinger 2001-2019
</metadata>
<g transform="translate(0.000000,300.000000) scale(0.100000,-0.100000)"
fill="#ffffff" stroke="none">
<path d="M1365 2375 c-113 -20 -159 -33 -245 -72 -281 -128 -457 -348 -528
-663 -19 -80 -25 -327 -12 -429 18 -143 72 -285 155 -415 43 -68 45 -46 -16
-310 -25 -113 -29 -143 -20 -163 11 -23 16 -25 54 -20 23 2 78 21 122 42 233
108 277 120 333 91 31 -15 118 -36 177 -41 139 -13 175 -13 276 6 60 10 132
28 161 40 87 34 158 70 158 80 0 5 5 9 12 9 37 0 215 169 268 255 19 31 44 71
55 88 31 48 61 124 87 217 21 77 23 105 22 300 0 169 -4 229 -17 278 -41 153
-120 309 -205 404 -124 137 -317 250 -502 293 -88 21 -245 25 -335 10z m340
-94 c225 -55 403 -189 533 -403 64 -105 125 -298 95 -298 -5 0 -21 23 -38 52
-87 148 -130 196 -257 284 -43 30 -80 54 -84 54 -3 0 -38 15 -77 34 -40 19
-83 36 -97 39 -14 3 -56 13 -95 21 -91 21 -282 21 -383 0 -201 -41 -433 -189
-548 -350 -24 -34 -44 -65 -44 -68 0 -4 -11 -19 -25 -34 -21 -23 -25 -24 -25
-8 0 31 60 197 93 256 115 207 320 366 542 421 101 25 305 25 410 0z m13 -305
c51 -13 98 -28 105 -34 7 -5 23 -13 37 -17 14 -4 64 -35 112 -67 181 -125 290
-277 324 -457 26 -133 -13 -350 -81 -453 -14 -21 -25 -40 -25 -44 0 -14 -125
-157 -182 -208 -73 -66 -190 -128 -297 -159 -155 -44 -400 -24 -548 46 -18 8
-35 4 -85 -18 -35 -15 -100 -43 -145 -61 -82 -32 -83 -32 -83 -11 0 12 5 38
10 57 59 228 59 221 1 288 -45 50 -119 209 -142 301 -28 112 -23 266 11 356
48 124 142 243 268 339 89 67 170 107 282 140 121 35 305 36 438 2z"/>
<path d="M1165 1633 c-35 -9 -84 -54 -95 -88 -30 -90 35 -175 134 -175 88 1
136 48 135 130 -1 98 -79 157 -174 133z"/>
<path d="M1787 1590 c-107 -21 -165 -180 -65 -180 30 0 39 8 68 58 24 39 43
41 73 5 58 -69 73 -76 101 -47 34 33 11 102 -47 141 -39 26 -80 33 -130 23z"/>
<path d="M1042 1144 c-36 -25 -27 -57 36 -132 83 -100 163 -151 287 -183 75
-20 218 -25 257 -10 13 5 48 16 78 25 75 23 166 84 223 151 62 71 76 109 52
135 -33 36 -62 25 -134 -49 -164 -170 -393 -207 -564 -90 -73 50 -135 106
-142 130 -4 13 -51 39 -69 39 -1 0 -12 -7 -24 -16z"/>
</g>
</svg>
