<?xml version="1.0" standalone="no"?>
<!DOCTYPE svg PUBLIC "-//W3C//DTD SVG 20010904//EN"
 "http://www.w3.org/TR/2001/REC-SVG-20010904/DTD/svg10.dtd">
<svg version="1.0" xmlns="http://www.w3.org/2000/svg"
 width="300.000000pt" height="300.000000pt" viewBox="0 0 300.000000 300.000000"
 preserveAspectRatio="xMidYMid meet">
<metadata>
Created by potrace 1.16, written by Peter Selinger 2001-2019
</metadata>
<g transform="translate(0.000000,300.000000) scale(0.100000,-0.100000)"
fill="#ffffff" stroke="none">
<path d="M1325 2480 c-218 -43 -438 -183 -537 -341 -43 -69 -84 -179 -93 -248
-3 -30 -22 -94 -40 -142 -63 -159 -79 -255 -72 -429 4 -108 9 -138 37 -220 18
-52 41 -107 51 -122 11 -14 19 -29 19 -32 0 -3 21 -39 46 -79 l45 -74 -15 -64
c-9 -35 -23 -86 -31 -114 -21 -75 -45 -187 -45 -214 0 -14 7 -32 15 -42 21
-22 54 -14 177 45 53 25 104 46 112 46 9 0 16 4 16 8 0 4 31 18 68 31 73 26
80 25 207 -8 116 -31 279 -38 380 -16 174 37 263 73 363 147 29 22 56 38 58
35 2 -2 0 -27 -6 -55 -9 -42 -8 -61 6 -109 9 -32 19 -96 21 -143 4 -77 2 -88
-16 -104 -12 -11 -21 -30 -21 -43 0 -20 5 -23 40 -23 22 0 40 5 40 10 0 6 9
19 20 30 36 36 130 19 130 -24 0 -13 10 -16 51 -16 l51 0 -26 46 c-36 64 -36
142 0 221 26 59 28 111 9 185 -5 19 0 44 16 82 21 53 22 59 9 127 -11 55 -11
75 -2 90 15 24 16 140 1 173 -10 20 -9 29 2 42 11 13 14 62 16 208 2 163 -1
200 -17 256 -11 36 -24 101 -29 145 -31 256 -149 469 -325 587 -33 23 -63 45
-66 49 -7 10 -150 76 -180 82 -14 3 -43 10 -65 16 -46 12 -360 13 -420 1z
m442 -91 c110 -30 189 -74 293 -163 46 -39 120 -133 144 -182 11 -21 27 -55
36 -74 54 -111 67 -291 27 -367 -29 -57 -57 -57 -126 -2 -75 60 -82 112 -16
125 42 8 49 17 40 51 -5 23 -9 25 -47 20 -50 -7 -185 16 -228 38 -18 9 -71 57
-118 106 -48 50 -106 102 -129 117 -54 34 -55 52 -4 52 122 0 238 -50 325
-139 39 -41 66 -61 82 -61 33 0 30 19 -13 83 -83 122 -212 187 -370 187 -115
0 -207 -33 -289 -103 -20 -17 -22 -17 -44 1 -19 15 -23 28 -22 74 0 65 25 119
74 164 51 47 62 53 119 74 72 26 169 25 266 -1z m-437 -5 c0 -3 -20 -33 -44
-65 -45 -60 -53 -85 -59 -189 l-2 -45 -87 -7 c-105 -9 -199 -51 -290 -130
l-58 -49 0 28 c0 42 65 169 116 230 76 89 164 147 334 221 27 12 90 16 90 6z
m230 -367 c26 -12 86 -63 146 -123 98 -99 139 -128 216 -153 40 -13 78 -53 78
-82 0 -9 16 -39 37 -65 31 -41 36 -55 34 -96 -1 -27 6 -73 15 -104 15 -51 14
-58 -1 -90 -17 -37 -15 -62 12 -147 13 -43 13 -52 -1 -88 -18 -44 -21 -124 -6
-134 35 -21 -17 -130 -90 -191 -116 -95 -340 -174 -495 -174 -65 0 -179 21
-213 39 -11 6 -29 11 -39 11 -10 0 -31 7 -47 15 -15 8 -38 15 -50 15 -23 0
-97 -27 -136 -50 -14 -8 -58 -29 -97 -47 l-73 -32 0 25 c0 13 13 72 30 131 38
136 38 160 -1 204 -17 19 -39 51 -50 71 -10 20 -23 39 -27 42 -12 7 -69 151
-84 212 -17 67 -16 286 1 354 19 75 66 173 120 249 54 76 152 145 255 179 79
26 112 23 201 -19 l60 -28 55 55 c61 61 66 61 150 21z m782 -499 c2 -13 2 -42
0 -65 -5 -54 -66 -125 -99 -117 -31 8 -60 43 -78 94 -17 49 -9 68 23 51 41
-22 79 -13 108 24 31 41 40 43 46 13z m8 -278 c0 -49 -64 -140 -99 -140 -25 0
-68 42 -80 79 -24 72 -7 109 33 72 30 -28 61 -27 88 4 16 19 25 22 39 14 11
-5 19 -18 19 -29z m-128 -233 l27 -20 31 27 c25 21 35 24 46 15 19 -15 18 -53
-2 -95 -28 -59 -84 -82 -118 -49 -21 21 -51 119 -43 140 7 17 13 15 59 -18z
m-27 -217 c8 -25 66 -28 85 -5 7 8 21 15 31 15 15 0 19 -7 19 -35 0 -65 -47
-125 -97 -125 -42 0 -94 99 -78 150 8 26 32 26 40 0z m2 -242 c24 -22 38 -20
84 14 9 6 24 8 34 4 42 -16 -16 -116 -76 -130 -33 -7 -67 27 -79 80 -13 58 -1
68 37 32z m73 -206 c0 -5 -6 -16 -12 -24 -18 -23 -68 -13 -68 13 0 15 7 19 40
19 22 0 40 -4 40 -8z"/>
<path d="M1134 1675 c-70 -42 -84 -143 -26 -198 93 -88 232 -34 232 90 0 50
-18 82 -59 110 -44 30 -95 29 -147 -2z"/>
<path d="M1760 1640 c-34 -13 -50 -28 -70 -63 -23 -43 -24 -48 -10 -74 22 -40
62 -43 87 -6 11 15 23 36 26 46 4 11 17 17 37 17 24 0 35 -8 55 -40 17 -28 32
-40 48 -40 83 0 49 127 -44 164 -48 20 -71 19 -129 -4z"/>
<path d="M1042 1204 c-12 -8 -22 -26 -22 -39 0 -25 56 -101 112 -151 50 -46
173 -110 243 -129 73 -19 203 -19 272 -1 114 30 246 124 313 221 35 51 37 75
10 100 -30 27 -62 12 -120 -55 -106 -122 -226 -176 -372 -168 -75 5 -170 33
-188 56 -3 4 -18 14 -34 22 -16 8 -59 48 -95 88 -36 39 -73 72 -81 72 -9 0
-26 -7 -38 -16z"/>
</g>
</svg>
