<?xml version="1.0" standalone="no"?>
<!DOCTYPE svg PUBLIC "-//W3C//DTD SVG 20010904//EN"
 "http://www.w3.org/TR/2001/REC-SVG-20010904/DTD/svg10.dtd">
<svg version="1.0" xmlns="http://www.w3.org/2000/svg"
 width="300.000000pt" height="300.000000pt" viewBox="0 0 300.000000 300.000000"
 preserveAspectRatio="xMidYMid meet">
<metadata>
Created by potrace 1.16, written by Peter Selinger 2001-2019
</metadata>
<g transform="translate(0.000000,300.000000) scale(0.100000,-0.100000)"
fill="#ffffff" stroke="none">
<path d="M775 2567 c-38 -18 -60 -43 -81 -92 -14 -33 -15 -59 -9 -152 3 -62 3
-149 -1 -194 -7 -81 -7 -81 -63 -144 -98 -111 -161 -261 -192 -460 -21 -132
-23 -232 -9 -341 17 -135 88 -305 167 -402 l35 -43 -37 -142 c-20 -78 -43
-164 -50 -190 -19 -69 -5 -107 40 -107 30 0 56 9 175 62 128 57 204 82 240 81
19 0 82 -12 140 -27 123 -30 263 -34 400 -12 93 16 100 18 178 52 29 13 54 24
57 24 15 0 151 104 208 159 59 56 157 178 157 194 0 2 16 30 35 62 57 95 96
232 102 360 14 277 -57 529 -209 742 -48 68 -51 75 -56 148 -3 42 1 115 8 163
14 100 4 155 -36 210 -40 52 -77 66 -158 59 -83 -7 -185 -55 -270 -128 -51
-43 -113 -68 -135 -55 -5 3 -57 10 -116 15 -93 8 -111 13 -134 34 -14 14 -68
49 -119 77 -84 48 -100 53 -165 57 -47 2 -82 -1 -102 -10z m180 -97 c22 -11
43 -20 47 -20 12 0 141 -93 160 -115 35 -41 15 -45 -94 -18 -60 14 -71 15 -79
2 -23 -35 -5 -48 119 -79 24 -6 42 -17 42 -25 0 -13 -56 -35 -88 -35 -24 0
-72 -41 -72 -61 0 -24 40 -25 117 -5 50 13 63 12 63 -6 0 -11 -158 -113 -190
-123 -14 -4 -34 -14 -45 -21 -11 -8 -42 -14 -70 -14 -41 0 -56 5 -73 23 -36
38 -41 75 -24 161 14 70 13 84 -2 161 -22 115 -21 141 9 170 20 21 34 25 82
25 39 0 72 -7 98 -20z m956 -9 c34 -35 37 -68 14 -177 -9 -46 -12 -87 -7 -115
4 -24 7 -73 7 -107 0 -57 -3 -66 -28 -88 -45 -38 -108 -33 -211 17 -89 43
-166 101 -166 125 0 18 19 18 87 -2 43 -13 61 -14 80 -5 21 10 23 14 12 27
-18 21 -58 41 -101 49 -64 12 -75 54 -15 55 36 0 117 42 117 60 0 26 -16 28
-95 15 -39 -7 -74 -9 -79 -4 -14 13 63 82 139 124 79 44 106 53 168 54 41 1
53 -4 78 -28z m-495 -157 c32 -25 34 -29 34 -90 0 -88 -23 -115 -102 -117 -85
-2 -98 14 -98 118 0 94 5 102 70 108 25 2 49 4 53 5 5 1 24 -10 43 -24z m-73
-286 c140 10 136 11 233 -50 51 -32 118 -68 150 -80 33 -12 61 -25 64 -29 3
-3 17 -12 32 -20 48 -25 158 -130 213 -203 78 -103 105 -191 105 -337 0 -177
-34 -286 -137 -441 -149 -224 -429 -364 -691 -345 -88 7 -199 31 -282 62 -41
15 -48 15 -95 0 -28 -8 -64 -24 -81 -34 -17 -11 -64 -31 -103 -45 -83 -30 -83
-31 -47 77 13 40 29 96 36 125 13 57 14 56 -76 179 -29 40 -94 214 -110 296
-32 158 -2 329 79 451 75 112 210 223 323 266 59 22 168 79 224 117 30 21 42
23 85 17 28 -4 62 -7 78 -6z m-602 -100 c30 -35 36 -48 19 -48 -15 0 -157
-146 -185 -190 -63 -100 -46 -23 27 125 48 97 81 145 101 145 5 0 22 -15 38
-32z m1282 -10 c60 -81 135 -252 115 -264 -9 -6 -67 52 -68 68 0 4 -37 44 -82
89 l-82 82 32 28 c41 37 55 36 85 -3z"/>
<path d="M1006 1630 c-58 -18 -96 -73 -96 -141 0 -35 6 -47 40 -81 39 -40 41
-40 101 -36 51 4 65 9 91 35 26 27 31 39 31 85 1 56 -20 105 -53 126 -26 16
-81 22 -114 12z"/>
<path d="M1633 1590 c-51 -11 -83 -38 -103 -86 -23 -52 -15 -88 21 -97 30 -8
55 7 74 43 8 16 24 34 34 39 20 11 31 2 64 -51 30 -49 97 -31 97 26 0 40 -50
113 -82 121 -47 10 -74 12 -105 5z"/>
<path d="M892 1147 c-54 -25 -37 -75 61 -176 164 -168 457 -212 658 -99 21 12
39 25 39 30 0 4 7 8 15 8 18 0 119 99 146 143 24 40 24 59 1 80 -35 32 -61 21
-141 -61 -87 -88 -152 -125 -254 -143 -143 -26 -279 23 -398 141 -82 82 -96
91 -127 77z"/>
</g>
</svg>
