<?xml version="1.0" standalone="no"?>
<!DOCTYPE svg PUBLIC "-//W3C//DTD SVG 20010904//EN"
 "http://www.w3.org/TR/2001/REC-SVG-20010904/DTD/svg10.dtd">
<svg version="1.0" xmlns="http://www.w3.org/2000/svg"
 width="300.000000pt" height="300.000000pt" viewBox="0 0 300.000000 300.000000"
 preserveAspectRatio="xMidYMid meet">
<metadata>
Created by potrace 1.16, written by Peter Selinger 2001-2019
</metadata>
<g transform="translate(0.000000,300.000000) scale(0.100000,-0.100000)"
fill="#ffffff" stroke="none">
<path d="M831 2705 c-34 -40 -71 -106 -71 -130 0 -8 -4 -15 -9 -15 -29 0 -77
-245 -67 -340 l7 -55 -26 30 c-14 17 -33 51 -43 78 -9 26 -20 47 -24 47 -13 0
-39 -103 -45 -175 -7 -97 13 -334 36 -426 24 -95 33 -166 22 -174 -5 -3 -17
-40 -27 -82 -25 -113 -23 -302 5 -408 21 -80 95 -240 150 -325 31 -47 37 -79
22 -108 -5 -9 -19 -57 -31 -107 -12 -49 -29 -118 -38 -153 -28 -109 6 -145
100 -104 24 11 86 36 138 58 52 21 114 48 137 61 48 27 87 29 140 8 142 -54
363 -66 513 -26 297 78 558 319 653 602 14 40 30 97 36 124 14 63 15 348 1
374 -13 25 -13 95 1 222 11 105 6 162 -27 269 -7 25 -16 60 -19 78 -5 30 -4
32 26 32 16 0 39 -5 51 -11 28 -15 32 -6 14 30 -30 56 -111 101 -185 101 -38
0 -61 14 -61 37 0 44 -81 173 -143 229 -69 61 -85 73 -111 80 -28 7 -29 16 8
-101 8 -27 13 -51 11 -53 -2 -3 -33 22 -69 55 -95 90 -258 164 -400 183 -50 6
-94 14 -98 16 -21 13 -3 -11 36 -49 24 -23 51 -55 61 -70 l18 -29 -39 7 c-40
7 -135 41 -211 76 -24 10 -46 19 -51 19 -10 0 -88 56 -127 92 -37 35 -43 35
-56 2 -12 -33 -3 -122 20 -191 10 -29 15 -53 11 -53 -14 0 -98 66 -125 98 -27
32 -65 137 -65 179 0 36 -16 35 -49 -2z m325 -825 c60 -11 138 -25 174 -31
102 -16 263 -12 370 10 213 45 308 43 347 -5 26 -32 27 -35 41 -148 l10 -79
85 -86 c103 -104 111 -125 110 -281 0 -110 -28 -274 -52 -304 -5 -6 -12 -22
-16 -36 -12 -38 -79 -133 -142 -201 -66 -71 -238 -189 -303 -208 -25 -7 -50
-17 -56 -22 -22 -18 -162 -31 -274 -26 -93 4 -132 11 -205 36 -49 17 -100 31
-111 31 -12 0 -48 -12 -80 -26 -33 -14 -68 -29 -79 -34 -127 -52 -128 -52
-136 -38 -5 7 -6 20 -2 28 11 26 54 184 60 218 4 28 -3 45 -47 109 -29 43 -66
106 -82 142 -16 37 -33 75 -38 86 -25 53 -40 151 -40 254 0 161 9 186 98 273
86 84 99 110 108 208 8 79 27 114 78 136 41 18 54 17 182 -6z"/>
<path d="M1132 1570 c-83 -37 -98 -153 -28 -217 31 -28 43 -33 86 -33 89 0
140 45 140 124 0 69 -34 120 -91 136 -46 14 -57 13 -107 -10z"/>
<path d="M1790 1541 c-47 -10 -74 -26 -99 -57 -25 -31 -28 -96 -7 -113 22 -18
69 -9 81 15 33 66 56 69 107 13 26 -29 44 -40 60 -37 31 4 48 42 37 81 -21 72
-98 115 -179 98z"/>
<path d="M1882 1078 c-61 -77 -111 -121 -175 -154 -71 -37 -74 -38 -201 -41
-99 -2 -134 1 -145 11 -9 8 -26 17 -38 20 -64 20 -138 75 -200 149 -25 29 -70
36 -91 15 -7 -7 -12 -27 -12 -45 0 -28 12 -45 73 -106 117 -118 240 -167 415
-167 158 0 273 45 380 148 95 92 114 154 57 180 -36 16 -43 15 -63 -10z"/>
</g>
</svg>
