<?xml version="1.0" standalone="no"?>
<!DOCTYPE svg PUBLIC "-//W3C//DTD SVG 20010904//EN"
 "http://www.w3.org/TR/2001/REC-SVG-20010904/DTD/svg10.dtd">
<svg version="1.0" xmlns="http://www.w3.org/2000/svg"
 width="300.000000pt" height="300.000000pt" viewBox="0 0 300.000000 300.000000"
 preserveAspectRatio="xMidYMid meet">
<metadata>
Created by potrace 1.16, written by Peter Selinger 2001-2019
</metadata>
<g transform="translate(0.000000,300.000000) scale(0.100000,-0.100000)"
fill="#ffffff" stroke="none">
<path d="M1270 2490 c-158 -39 -304 -123 -406 -232 -106 -113 -173 -266 -182
-413 -2 -44 -10 -87 -17 -95 -14 -18 -40 -83 -67 -165 -24 -78 -35 -277 -19
-368 18 -103 68 -241 123 -336 27 -47 55 -92 61 -99 11 -13 5 -48 -28 -167 -8
-27 -24 -92 -36 -143 -33 -140 -11 -168 89 -119 26 13 90 41 142 61 52 21 114
46 138 57 57 25 87 24 179 -8 64 -22 101 -27 206 -31 157 -5 254 9 366 54 191
77 377 232 465 389 9 17 28 50 42 75 13 24 40 93 59 153 67 212 56 392 -37
617 -19 47 -38 110 -42 140 -12 95 -36 172 -77 249 -91 169 -238 288 -442 357
-109 36 -117 37 -277 40 -136 3 -178 0 -240 -16z m381 -76 c137 -26 257 -77
336 -144 101 -85 163 -164 197 -248 23 -59 55 -232 43 -232 -23 0 -86 45 -97
69 -7 14 -16 52 -20 85 -10 68 -38 104 -108 137 -38 19 -55 21 -126 16 -50 -4
-104 -15 -142 -30 -103 -41 -159 -50 -268 -44 -78 4 -121 12 -190 37 -160 57
-278 51 -347 -18 -31 -32 -37 -46 -47 -111 -8 -58 -17 -80 -38 -102 -29 -30
-68 -38 -77 -16 -8 22 11 128 34 186 79 198 255 350 459 396 41 9 86 21 100
25 42 14 203 11 291 -6z m-459 -418 c230 -75 359 -79 558 -15 79 26 106 30
163 26 44 -3 74 -10 84 -20 9 -9 22 -48 30 -89 16 -85 38 -113 143 -176 l65
-39 28 -89 c55 -174 42 -416 -30 -558 -98 -194 -283 -371 -450 -430 -137 -48
-155 -51 -293 -50 -127 1 -141 3 -245 38 -122 41 -108 42 -240 -19 -158 -73
-165 -75 -165 -49 0 8 12 61 26 117 39 151 38 162 -13 229 -56 73 -116 201
-144 303 -40 151 -13 396 57 502 8 13 39 37 69 54 67 38 125 100 125 135 0 56
22 114 49 129 34 18 128 19 183 1z"/>
<path d="M1167 1670 c-96 -18 -134 -153 -65 -227 79 -84 235 -23 232 91 -2 99
-72 155 -167 136z"/>
<path d="M1745 1621 c-50 -22 -74 -57 -77 -112 -3 -38 0 -45 24 -56 35 -18 55
-8 78 37 32 63 77 61 105 -5 11 -29 19 -35 43 -35 40 0 56 22 49 66 -8 50 -31
80 -77 104 -48 25 -93 25 -145 1z"/>
<path d="M1030 1180 c-26 -26 -25 -45 2 -83 137 -193 382 -289 598 -233 111
29 188 72 261 147 75 77 93 114 75 150 -17 34 -68 38 -90 7 -44 -63 -123 -130
-195 -165 -66 -31 -88 -37 -166 -41 -79 -3 -98 -1 -159 22 -83 31 -143 75
-218 155 -31 34 -63 61 -72 61 -9 0 -25 -9 -36 -20z"/>
</g>
</svg>
