<?xml version="1.0" standalone="no"?>
<!DOCTYPE svg PUBLIC "-//W3C//DTD SVG 20010904//EN"
 "http://www.w3.org/TR/2001/REC-SVG-20010904/DTD/svg10.dtd">
<svg version="1.0" xmlns="http://www.w3.org/2000/svg"
 width="300.000000pt" height="300.000000pt" viewBox="0 0 300.000000 300.000000"
 preserveAspectRatio="xMidYMid meet">
<metadata>
Created by potrace 1.16, written by Peter Selinger 2001-2019
</metadata>
<g transform="translate(0.000000,300.000000) scale(0.100000,-0.100000)"
fill="#ffffff" stroke="none">
<path d="M1315 2573 c-27 -2 -54 -8 -59 -14 -6 -5 -21 -9 -35 -9 -44 0 -178
-47 -246 -84 -35 -20 -82 -55 -105 -79 -41 -43 -101 -154 -126 -236 -21 -66
-44 -251 -44 -346 0 -44 -4 -85 -9 -90 -14 -16 -82 -175 -98 -230 -8 -27 -17
-111 -20 -185 -4 -115 -2 -149 16 -229 24 -105 66 -203 132 -306 56 -86 61
-99 50 -128 -19 -47 -53 -177 -77 -289 -14 -63 -14 -81 -4 -93 21 -25 74 -17
162 24 46 21 101 45 123 51 22 7 64 26 94 42 60 34 79 33 176 -2 161 -59 419
-47 589 28 220 95 358 218 480 424 81 137 110 253 111 438 0 138 -19 257 -51
318 -7 15 -14 33 -14 40 0 7 -11 35 -25 61 -17 34 -26 73 -30 127 -26 332 -74
487 -188 597 -50 48 -156 105 -233 126 -130 35 -422 58 -569 44z m385 -121
c16 -17 32 -54 43 -100 16 -67 16 -78 2 -147 -19 -95 -52 -182 -77 -207 -11
-11 -22 -17 -25 -15 -2 3 5 39 16 79 12 41 21 102 21 136 0 71 -38 201 -74
255 -13 19 -22 37 -20 40 13 12 91 -16 114 -41z m-217 11 c53 -41 77 -76 98
-146 27 -90 25 -181 -8 -278 -22 -65 -32 -81 -51 -86 -33 -8 -155 15 -287 53
-83 24 -201 24 -240 1 -40 -24 -80 -82 -94 -134 -6 -24 -16 -61 -21 -82 -11
-40 -84 -116 -101 -105 -17 10 13 320 42 431 19 72 62 158 102 202 41 44 128
92 230 126 113 38 133 41 228 44 57 1 70 -2 102 -26z m368 -26 c18 -12 36 -33
40 -47 14 -49 10 -189 -6 -228 -25 -58 -76 -132 -91 -132 -18 0 -17 13 5 80
34 102 36 204 6 323 -9 33 1 34 46 4z m228 -117 c96 -128 116 -207 146 -570 2
-30 0 -62 -5 -70 -6 -9 -10 -10 -10 -3 0 6 -8 14 -19 18 -30 9 -69 76 -80 138
-19 104 -73 172 -147 184 -19 3 -37 10 -40 14 -3 5 7 40 23 77 24 59 28 80 28
179 l0 111 39 -21 c21 -12 50 -38 65 -57z m-799 -416 c30 -8 109 -17 175 -21
123 -5 152 -1 413 59 48 11 57 10 90 -7 44 -24 91 -109 91 -168 1 -50 32 -94
117 -164 51 -43 77 -74 99 -118 29 -59 30 -63 30 -216 0 -100 -4 -161 -11
-170 -6 -8 -14 -33 -18 -57 -18 -120 -142 -308 -261 -397 -22 -16 -42 -33 -45
-36 -3 -3 -41 -27 -85 -52 -192 -111 -412 -129 -635 -53 -41 14 -85 26 -96 26
-12 0 -55 -14 -95 -31 -41 -17 -87 -35 -104 -41 -16 -6 -40 -18 -52 -26 -13
-8 -30 -12 -38 -8 -15 5 -21 47 -8 59 10 11 52 178 53 210 0 18 -17 52 -45 92
-148 206 -198 463 -134 688 11 41 60 94 146 160 59 44 93 92 93 131 0 62 46
146 94 173 19 11 116 -3 226 -33z"/>
<path d="M1133 1570 c-36 -14 -63 -68 -63 -124 0 -43 4 -53 39 -87 35 -35 44
-39 90 -39 44 0 56 5 87 33 31 28 37 42 41 84 4 42 1 59 -17 87 -12 20 -30 41
-40 46 -23 12 -107 12 -137 0z"/>
<path d="M1765 1530 c-51 -16 -88 -63 -89 -112 -1 -37 2 -43 27 -52 34 -12 55
-2 77 40 25 44 52 42 90 -6 39 -50 77 -52 98 -7 12 24 11 32 -5 64 -10 20 -30
46 -45 56 -30 23 -108 31 -153 17z"/>
<path d="M1042 1084 c-40 -28 -29 -65 41 -140 76 -83 142 -126 242 -159 68
-23 89 -26 184 -22 125 5 181 17 253 53 75 38 120 76 172 145 63 83 60 129 -9
129 -24 0 -41 -12 -88 -65 -45 -50 -74 -72 -135 -101 -191 -91 -385 -54 -538
103 -39 40 -77 73 -85 73 -8 0 -25 -7 -37 -16z"/>
</g>
</svg>
