<?xml version="1.0" standalone="no"?>
<!DOCTYPE svg PUBLIC "-//W3C//DTD SVG 20010904//EN"
 "http://www.w3.org/TR/2001/REC-SVG-20010904/DTD/svg10.dtd">
<svg version="1.0" xmlns="http://www.w3.org/2000/svg"
 width="300.000000pt" height="300.000000pt" viewBox="0 0 300.000000 300.000000"
 preserveAspectRatio="xMidYMid meet">
<metadata>
Created by potrace 1.16, written by Peter Selinger 2001-2019
</metadata>
<g transform="translate(0.000000,300.000000) scale(0.100000,-0.100000)"
fill="#ffffff" stroke="none">
<path d="M1320 2343 c-25 -2 -49 -8 -54 -14 -6 -5 -21 -9 -34 -9 -39 0 -181
-72 -258 -131 -124 -95 -174 -163 -239 -323 -19 -49 -46 -112 -59 -140 -80
-176 -104 -351 -71 -523 27 -142 76 -265 153 -380 l35 -54 -16 -52 c-9 -29
-19 -70 -23 -92 -3 -22 -10 -44 -14 -50 -3 -5 -15 -54 -25 -108 -22 -115 -17
-133 37 -131 20 1 69 17 109 37 41 20 125 57 187 81 l113 45 67 -24 c190 -68
449 -60 632 20 275 121 470 345 548 630 60 215 38 423 -65 630 -19 38 -50 108
-69 155 -35 87 -76 152 -129 206 -77 78 -218 166 -310 194 -22 7 -51 17 -64
22 -27 10 -377 19 -451 11z m140 -102 c0 -54 -67 -167 -148 -250 -75 -75 -123
-105 -287 -177 -42 -19 -196 -37 -208 -25 -12 12 14 84 56 156 37 64 126 156
200 206 86 60 249 115 345 118 40 1 42 0 42 -28z m270 9 c41 -12 89 -27 105
-35 17 -7 41 -18 55 -23 50 -20 150 -99 203 -160 56 -64 106 -149 132 -222
l14 -41 -52 7 c-174 21 -393 124 -488 230 -64 73 -117 166 -133 237 -6 27 -6
27 42 27 26 0 81 -9 122 -20z m-182 -181 c29 -54 111 -148 170 -195 105 -83
333 -174 437 -174 66 0 91 -17 114 -77 25 -66 51 -205 51 -277 0 -51 -19 -166
-41 -241 -42 -148 -191 -331 -354 -436 -136 -87 -293 -126 -460 -114 -88 7
-122 14 -237 50 -87 28 -80 29 -233 -46 -45 -21 -88 -39 -96 -39 -8 0 -20 -5
-27 -12 -25 -25 -23 6 8 124 47 177 47 176 8 227 -184 244 -225 525 -116 784
23 52 24 53 134 61 113 9 267 66 374 139 62 43 148 131 193 200 21 31 43 57
48 57 5 0 18 -14 27 -31z"/>
<path d="M1185 1669 c-69 -21 -99 -71 -96 -157 3 -82 122 -138 195 -93 46 29
68 65 68 115 1 52 -24 101 -65 126 -35 22 -55 23 -102 9z"/>
<path d="M1775 1624 c-49 -25 -72 -53 -85 -101 -14 -60 1 -78 63 -74 11 1 24
15 32 36 20 47 49 61 81 41 13 -9 27 -27 30 -41 7 -29 48 -44 73 -28 26 17 20
97 -10 129 -48 51 -127 68 -184 38z"/>
<path d="M1060 1180 c-27 -27 -25 -61 6 -96 100 -112 132 -139 209 -175 165
-80 300 -83 470 -12 101 43 235 165 251 231 8 29 -20 62 -53 62 -22 0 -93 -63
-93 -82 0 -15 -129 -97 -192 -122 -166 -65 -375 -3 -490 148 -55 72 -74 80
-108 46z"/>
</g>
</svg>
