<?xml version="1.0" standalone="no"?>
<!DOCTYPE svg PUBLIC "-//W3C//DTD SVG 20010904//EN"
 "http://www.w3.org/TR/2001/REC-SVG-20010904/DTD/svg10.dtd">
<svg version="1.0" xmlns="http://www.w3.org/2000/svg"
 width="300.000000pt" height="300.000000pt" viewBox="0 0 300.000000 300.000000"
 preserveAspectRatio="xMidYMid meet">
<metadata>
Created by potrace 1.16, written by Peter Selinger 2001-2019
</metadata>
<g transform="translate(0.000000,300.000000) scale(0.100000,-0.100000)"
fill="#ffffff" stroke="none">
<path d="M1395 2558 c-195 -47 -303 -98 -391 -185 -49 -48 -70 -63 -93 -63
-55 0 -155 -38 -201 -77 -94 -79 -143 -143 -110 -143 6 0 10 4 10 8 0 11 80
56 86 49 3 -3 -8 -34 -24 -68 -55 -122 -55 -122 -49 -247 3 -64 12 -134 18
-155 11 -32 10 -46 -4 -90 -65 -197 -63 -380 5 -582 22 -65 47 -114 111 -213
39 -62 40 -65 29 -105 -37 -126 -82 -313 -82 -336 0 -73 56 -67 265 29 84 39
169 70 192 70 12 0 40 -7 60 -15 127 -50 343 -60 508 -24 151 33 307 117 426
231 56 54 139 159 139 177 0 5 10 22 23 38 28 35 53 88 82 178 40 122 48 186
42 333 -5 136 -11 162 -58 284 -11 26 -19 71 -19 100 0 44 -12 112 -47 266 -5
18 -2 21 13 15 11 -3 36 -19 56 -35 23 -18 39 -25 43 -18 4 6 -11 49 -33 95
-128 267 -285 394 -579 469 -87 22 -122 26 -240 25 -76 -1 -156 -5 -178 -11z
m-120 -617 c130 -65 330 -249 380 -351 11 -22 23 -40 27 -40 28 0 -28 230 -72
295 -21 32 -26 65 -10 65 6 0 10 -4 10 -9 0 -5 10 -13 23 -17 36 -11 157 -106
219 -173 80 -85 142 -182 178 -281 31 -85 70 -251 70 -302 0 -67 53 -4 134
159 25 51 46 99 46 107 0 7 6 19 14 25 21 17 30 -99 16 -196 -26 -177 -63
-266 -164 -391 -148 -186 -287 -271 -499 -308 -119 -21 -233 -14 -352 22 -173
52 -152 51 -235 11 -108 -51 -141 -64 -177 -72 l-31 -6 9 42 c6 23 12 45 14
49 9 15 45 162 45 184 0 14 -12 40 -27 58 -76 91 -157 267 -173 376 -18 122
-5 312 21 312 5 0 21 -18 35 -40 15 -22 31 -40 35 -40 5 0 9 44 9 98 0 64 6
117 17 153 9 30 16 57 15 61 -1 4 7 26 17 50 20 45 50 80 140 162 l53 49 66
-6 c49 -5 88 -17 147 -46z"/>
<path d="M1185 1633 c-39 -11 -74 -44 -90 -88 -15 -38 -16 -49 -4 -87 33 -102
185 -122 244 -31 24 36 25 112 2 147 -32 48 -98 74 -152 59z"/>
<path d="M1755 1571 c-45 -27 -65 -54 -72 -96 -7 -44 12 -65 59 -65 21 0 33 9
52 39 14 22 30 42 36 46 14 8 59 -21 67 -43 13 -35 54 -43 84 -16 14 13 16 21
7 47 -13 39 -43 74 -80 93 -39 20 -117 18 -153 -5z"/>
<path d="M1062 1144 c-40 -28 -29 -66 39 -141 74 -82 115 -111 217 -154 67
-27 92 -32 187 -36 98 -4 118 -2 182 20 101 35 158 70 234 146 75 75 95 117
73 150 -29 40 -64 28 -145 -52 -194 -191 -423 -204 -623 -37 -30 25 -60 54
-66 66 -10 17 -59 54 -72 54 -2 0 -14 -7 -26 -16z"/>
</g>
</svg>
