<?xml version="1.0" standalone="no"?>
<!DOCTYPE svg PUBLIC "-//W3C//DTD SVG 20010904//EN"
 "http://www.w3.org/TR/2001/REC-SVG-20010904/DTD/svg10.dtd">
<svg version="1.0" xmlns="http://www.w3.org/2000/svg"
 width="300.000000pt" height="300.000000pt" viewBox="0 0 300.000000 300.000000"
 preserveAspectRatio="xMidYMid meet">
<metadata>
Created by potrace 1.16, written by Peter Selinger 2001-2019
</metadata>
<g transform="translate(0.000000,300.000000) scale(0.100000,-0.100000)"
fill="#ffffff" stroke="none">
<path d="M1432 2444 c-145 -26 -252 -72 -319 -137 -45 -43 -66 -45 -39 -4 16
24 12 62 -5 51 -5 -3 -6 -10 -3 -16 5 -7 2 -8 -5 -3 -16 9 -113 -92 -142 -148
-16 -30 -20 -55 -18 -116 l2 -79 -58 -58 c-148 -151 -243 -350 -263 -554 -21
-206 8 -345 115 -557 74 -147 76 -153 65 -190 -6 -21 -25 -97 -42 -170 -42
-185 -40 -223 11 -223 30 0 147 46 318 125 l93 43 47 -14 c165 -53 185 -56
321 -57 158 -1 229 14 360 76 260 122 445 335 523 601 28 93 30 114 30 256 0
164 -8 213 -57 340 -28 73 -92 196 -107 205 -5 4 -9 15 -9 26 0 16 5 18 26 13
23 -6 25 -5 16 12 -6 11 -20 28 -31 38 -12 11 -21 22 -21 26 0 4 36 9 79 12
68 4 87 9 135 38 62 38 72 60 26 60 -34 0 -144 39 -187 67 -15 10 -66 49 -113
88 -111 92 -146 118 -197 143 -49 26 -222 72 -267 72 -38 0 -64 14 -46 25 42
26 -113 32 -238 9z m204 -101 c-2 -5 -37 -25 -78 -46 -113 -59 -164 -101 -199
-162 -37 -66 -49 -75 -49 -38 0 60 64 137 165 196 59 35 88 45 158 56 5 0 6
-2 3 -6z m-340 -83 c-36 -38 -75 -88 -86 -109 -25 -50 -40 -60 -40 -26 0 41
24 77 95 143 91 86 114 80 31 -8z m594 11 c0 -5 -19 -11 -42 -15 -107 -17
-256 -106 -320 -190 -33 -42 -71 -112 -82 -149 -8 -24 -26 -12 -26 16 0 35 55
141 96 186 62 69 109 101 196 131 79 28 178 40 178 21z m-820 -235 c-5 -15
-16 -26 -23 -24 -27 9 -16 93 17 137 15 20 21 -76 6 -113z m967 112 c27 -11
25 -12 -34 -19 -134 -17 -263 -78 -350 -167 -35 -36 -66 -62 -69 -59 -3 3 0
22 8 43 16 47 100 134 153 159 102 48 233 68 292 43z m104 -104 c15 -3 34 -13
43 -23 15 -16 9 -17 -112 -17 -94 1 -141 -4 -181 -17 -62 -19 -81 -21 -81 -7
0 16 101 62 155 70 47 8 118 5 176 -6z m-934 -189 c242 -81 287 -82 533 -12
110 31 222 57 249 57 22 0 106 -77 159 -146 49 -64 107 -184 128 -266 24 -91
27 -332 5 -418 -61 -245 -263 -472 -496 -559 -181 -68 -376 -70 -555 -5 -37
13 -75 24 -84 24 -9 0 -78 -25 -152 -56 -75 -30 -140 -52 -144 -47 -4 4 7 66
25 138 37 145 36 156 -21 235 -50 70 -112 201 -134 284 -43 163 -21 375 56
527 77 153 194 299 240 299 13 0 99 -25 191 -55z"/>
<path d="M1145 1574 c-47 -24 -64 -44 -76 -86 -13 -50 1 -97 43 -138 26 -26
36 -30 87 -30 65 0 100 20 127 72 35 67 -10 167 -84 188 -49 13 -62 13 -97 -6z"/>
<path d="M1773 1533 c-55 -19 -103 -73 -103 -116 0 -40 15 -57 52 -57 22 0 33
9 53 40 16 26 33 40 46 40 11 0 38 -18 60 -40 44 -44 73 -51 89 -21 15 29 12
62 -10 98 -35 58 -115 82 -187 56z"/>
<path d="M1065 1090 c-61 -24 -56 -69 17 -147 115 -121 260 -183 429 -183 112
0 193 22 290 80 74 44 161 132 178 180 9 28 8 34 -14 56 -13 13 -31 24 -39 24
-9 0 -47 -33 -86 -74 -41 -43 -88 -81 -113 -91 -23 -11 -50 -26 -60 -34 -29
-24 -249 -29 -296 -6 -148 70 -158 77 -244 174 -30 33 -32 34 -62 21z"/>
</g>
</svg>
