<?xml version="1.0" standalone="no"?>
<!DOCTYPE svg PUBLIC "-//W3C//DTD SVG 20010904//EN"
 "http://www.w3.org/TR/2001/REC-SVG-20010904/DTD/svg10.dtd">
<svg version="1.0" xmlns="http://www.w3.org/2000/svg"
 width="300.000000pt" height="300.000000pt" viewBox="0 0 300.000000 300.000000"
 preserveAspectRatio="xMidYMid meet">
<metadata>
Created by potrace 1.16, written by Peter Selinger 2001-2019
</metadata>
<g transform="translate(0.000000,300.000000) scale(0.100000,-0.100000)"
fill="#ffffff" stroke="none">
<path d="M2080 2758 c-156 -24 -288 -146 -307 -284 -5 -37 -11 -48 -37 -60
-17 -9 -44 -32 -61 -51 l-30 -34 -65 18 c-100 28 -366 25 -475 -6 -154 -43
-322 -153 -421 -276 -61 -74 -172 -266 -205 -350 -112 -289 -77 -617 91 -840
58 -77 57 -70 12 -238 -63 -231 -65 -242 -53 -266 22 -40 53 -37 183 24 291
134 255 127 436 81 284 -72 628 19 827 219 164 163 255 337 290 549 24 154 19
208 -41 426 -56 203 -116 325 -213 429 -37 40 -39 45 -26 65 8 11 15 34 15 51
0 92 137 100 203 14 42 -56 48 -85 48 -234 -1 -165 10 -235 54 -330 64 -140
175 -227 295 -229 53 -1 55 0 52 24 -1 13 -11 33 -21 45 -32 35 -44 68 -52
145 -9 95 6 186 59 345 22 66 24 361 3 415 -50 129 -119 221 -208 278 -93 59
-237 88 -353 70z m141 -78 c119 -23 234 -99 298 -199 49 -76 64 -155 58 -306
-3 -71 -10 -143 -16 -160 -11 -31 -41 -138 -60 -211 -6 -23 -11 -87 -11 -143
0 -55 -4 -101 -9 -101 -11 0 -71 73 -93 114 -43 79 -53 135 -50 293 2 134 0
160 -19 215 -50 144 -157 208 -300 177 -47 -10 -53 -9 -77 13 -15 13 -40 30
-55 36 -15 7 -30 19 -34 28 -16 42 46 143 119 195 28 20 141 57 179 58 9 1 40
-4 70 -9z m-368 -341 c65 -34 92 -85 64 -123 -12 -16 -17 -14 -78 26 -36 24
-74 48 -84 53 -15 9 -16 14 -6 33 13 25 66 30 104 11z m-408 -48 c157 -26 268
-63 360 -121 119 -75 190 -159 266 -315 44 -91 72 -185 55 -185 -26 0 -200
155 -254 225 -35 46 -82 148 -82 177 0 34 -27 85 -49 91 -12 3 -30 -2 -43 -13
-40 -31 -126 -70 -191 -86 -52 -14 -97 -15 -277 -10 -239 8 -339 -3 -451 -48
-55 -23 -58 -23 -46 -5 18 25 78 89 105 111 159 130 423 208 607 179z m276
-288 c18 -90 156 -252 301 -355 103 -73 133 -146 125 -300 -8 -135 -23 -203
-66 -294 -40 -84 -127 -212 -171 -252 -92 -84 -194 -148 -282 -176 -175 -55
-288 -68 -400 -45 -78 16 -159 40 -191 56 -28 15 -81 10 -92 -8 -4 -5 -16 -9
-29 -9 -12 0 -27 -5 -32 -10 -13 -13 -174 -80 -191 -80 -14 0 -18 46 -4 54 4
3 11 25 15 48 4 23 11 47 17 54 5 7 13 44 16 82 l6 69 -44 59 c-59 79 -77 115
-106 204 -54 167 -63 320 -27 461 36 146 117 284 193 335 22 14 72 37 112 50
67 23 87 25 209 23 74 -1 200 -2 280 -2 143 0 146 0 230 35 104 44 122 44 131
1z"/>
<path d="M972 1675 c-36 -30 -66 -106 -57 -142 8 -33 65 -88 100 -97 39 -10
102 11 135 46 24 25 30 40 30 77 0 84 -56 141 -139 141 -27 0 -48 -8 -69 -25z"/>
<path d="M1629 1653 c-15 -2 -44 -19 -64 -36 -28 -25 -38 -42 -42 -74 -7 -51
8 -73 48 -73 23 0 33 8 55 45 35 61 67 62 90 5 25 -62 82 -65 104 -6 11 32
-22 95 -66 122 -37 22 -66 26 -125 17z"/>
<path d="M883 1196 l-28 -25 20 -38 c49 -94 184 -200 312 -244 102 -35 326
-18 393 30 14 10 41 26 60 36 79 40 163 128 190 199 8 21 6 29 -12 46 -30 28
-65 25 -91 -6 -95 -115 -157 -163 -251 -196 -101 -36 -280 -14 -357 43 -17 13
-67 59 -110 102 -43 42 -83 77 -88 77 -6 0 -23 -11 -38 -24z"/>
</g>
</svg>
