<?xml version="1.0" standalone="no"?>
<!DOCTYPE svg PUBLIC "-//W3C//DTD SVG 20010904//EN"
 "http://www.w3.org/TR/2001/REC-SVG-20010904/DTD/svg10.dtd">
<svg version="1.0" xmlns="http://www.w3.org/2000/svg"
 width="300.000000pt" height="300.000000pt" viewBox="0 0 300.000000 300.000000"
 preserveAspectRatio="xMidYMid meet">
<metadata>
Created by potrace 1.16, written by Peter Selinger 2001-2019
</metadata>
<g transform="translate(0.000000,300.000000) scale(0.100000,-0.100000)"
fill="#ffffff" stroke="none">
<path d="M1360 2560 c-164 -15 -257 -50 -334 -127 -35 -34 -86 -122 -86 -149
0 -5 -21 -18 -47 -27 -101 -37 -173 -112 -210 -220 -8 -23 -18 -105 -22 -182
-7 -119 -13 -155 -41 -240 -29 -89 -33 -116 -37 -242 -5 -133 -4 -150 22 -245
28 -105 68 -197 132 -300 l36 -58 -18 -78 c-9 -42 -24 -108 -32 -147 -8 -38
-18 -84 -24 -101 -13 -45 -11 -80 7 -98 21 -22 31 -21 110 15 76 35 237 103
298 125 36 14 44 13 110 -10 189 -67 428 -62 609 14 92 38 227 118 280 167
111 99 211 255 267 413 70 198 61 471 -22 634 -14 27 -21 65 -24 125 -7 159
-14 219 -28 248 -7 15 -23 49 -35 74 -47 98 -126 167 -306 267 -168 93 -241
121 -363 137 -116 16 -117 16 -242 5z m218 -106 c35 -10 26 -20 -36 -37 -63
-17 -116 -49 -144 -87 -20 -27 -38 -118 -38 -192 0 -34 -4 -48 -14 -48 -16 0
-26 50 -26 134 0 107 69 193 178 222 58 15 52 15 80 8z m-258 -13 c0 -5 -16
-28 -35 -52 -61 -72 -68 -101 -55 -216 4 -43 7 -80 5 -81 -2 -2 -15 14 -30 36
-35 53 -43 128 -21 187 23 58 136 163 136 126z m-225 -88 c-11 -39 -11 -129
-1 -185 7 -44 6 -48 -11 -48 -12 0 -23 11 -30 33 -31 88 -27 154 10 199 28 35
41 35 32 1z m950 -139 c48 -20 155 -102 155 -119 0 -13 -10 -10 -47 11 -27 15
-52 31 -58 34 -29 21 -132 50 -174 50 -62 0 -145 -25 -196 -59 -58 -40 -65
-43 -65 -32 0 18 71 80 116 102 80 38 195 44 269 13z m-1107 -76 c19 -19 14
-25 -18 -20 -18 3 -30 0 -30 -7 0 -6 -7 -11 -15 -11 -9 0 -34 -9 -55 -20 -48
-25 -52 -10 -7 24 56 43 103 56 125 34z m222 -158 c19 -5 89 -19 155 -31 148
-27 228 -22 421 22 142 32 222 35 290 9 33 -13 51 -59 58 -150 l5 -75 65 -60
c68 -62 116 -139 116 -185 0 -14 7 -35 15 -46 32 -42 12 -282 -32 -398 -26
-67 -138 -227 -205 -292 -98 -95 -180 -146 -293 -183 -174 -56 -328 -54 -523
8 l-93 30 -57 -21 c-31 -12 -64 -27 -72 -33 -8 -7 -37 -20 -65 -31 -27 -10
-60 -24 -72 -32 -13 -8 -23 -10 -24 -6 -3 23 5 68 32 172 l29 114 -19 36 c-11
20 -28 46 -38 57 -33 35 -112 207 -133 290 -29 117 -27 237 5 307 14 29 25 59
25 67 0 24 68 118 116 160 l47 41 4 78 c6 109 24 147 76 160 43 11 105 8 167
-8z"/>
<path d="M1172 1670 c-84 -20 -125 -112 -86 -193 19 -40 56 -64 110 -72 32 -5
47 -1 81 21 48 32 63 59 63 116 0 53 -32 104 -77 123 -39 16 -43 17 -91 5z"/>
<path d="M1747 1619 c-72 -38 -102 -132 -53 -164 31 -21 53 -10 76 36 32 62
84 61 112 -1 23 -54 90 -52 96 3 5 42 -26 95 -73 122 -51 30 -106 32 -158 4z"/>
<path d="M1040 1180 c-31 -31 -24 -54 40 -128 71 -82 104 -108 190 -149 91
-43 140 -54 239 -54 151 0 276 54 388 169 77 77 92 108 74 148 -20 45 -55 32
-134 -50 -175 -179 -386 -206 -581 -74 -33 22 -71 54 -85 71 -40 47 -85 87
-98 87 -7 0 -22 -9 -33 -20z"/>
</g>
</svg>
