<?xml version="1.0" standalone="no"?>
<!DOCTYPE svg PUBLIC "-//W3C//DTD SVG 20010904//EN"
 "http://www.w3.org/TR/2001/REC-SVG-20010904/DTD/svg10.dtd">
<svg version="1.0" xmlns="http://www.w3.org/2000/svg"
 width="300.000000pt" height="300.000000pt" viewBox="0 0 300.000000 300.000000"
 preserveAspectRatio="xMidYMid meet">
<metadata>
Created by potrace 1.16, written by Peter Selinger 2001-2019
</metadata>
<g transform="translate(0.000000,300.000000) scale(0.100000,-0.100000)"
fill="#ffffff" stroke="none">
<path d="M1315 2595 c-27 -8 -59 -15 -70 -15 -31 -1 -184 -72 -251 -117 -140
-96 -261 -253 -313 -409 -44 -134 -48 -187 -71 -794 -5 -151 -14 -376 -20
-500 -8 -181 -13 -470 -10 -572 0 -14 9 -18 39 -18 l38 0 7 213 c8 266 23 785
31 1112 9 340 28 458 103 613 92 191 211 297 415 371 82 31 196 44 310 38 121
-7 196 -26 236 -60 19 -15 47 -26 80 -30 75 -9 134 -39 202 -104 106 -100 182
-244 223 -418 9 -38 19 -79 22 -90 3 -11 9 -193 14 -405 13 -556 29 -1084 36
-1167 l6 -73 35 0 34 0 -6 432 c-3 238 -10 516 -16 618 -5 102 -9 264 -10 360
0 186 -11 266 -56 425 -26 90 -30 101 -74 185 -79 152 -253 297 -381 316 -24
3 -54 14 -68 23 -74 48 -182 74 -325 77 -73 2 -127 -2 -160 -11z"/>
<path d="M1768 2257 c-8 -7 -24 -28 -36 -48 -67 -112 -251 -241 -457 -319 -33
-12 -69 -27 -79 -32 -21 -11 -161 -42 -266 -59 -36 -6 -73 -15 -82 -20 -17 -9
-18 -58 -18 -809 l0 -800 45 0 44 0 0 117 c-1 145 -2 143 13 143 6 0 39 13 72
29 112 55 137 57 251 26 168 -46 305 -45 500 2 75 18 209 82 270 128 25 19 49
35 54 35 5 0 7 -107 6 -240 l-3 -240 44 0 44 0 0 800 c0 627 -3 802 -12 810
-7 6 -35 25 -63 42 -56 36 -161 138 -176 171 -5 12 -22 45 -38 74 -27 47 -37
75 -55 155 -8 34 -37 52 -58 35z m22 -194 c23 -72 74 -148 150 -224 42 -41 90
-81 107 -88 30 -12 32 -15 35 -84 2 -40 3 -244 3 -454 l0 -381 -25 -27 c-119
-127 -386 -235 -583 -235 -82 0 -206 28 -299 67 -42 18 -43 17 -176 -44 -40
-18 -78 -31 -83 -27 -15 9 -5 1120 10 1138 7 8 31 17 54 21 143 23 356 93 492
160 89 44 127 70 195 134 47 44 90 80 97 81 6 0 17 -17 23 -37z"/>
<path d="M1133 1680 c-99 -51 -98 -178 2 -231 54 -29 106 -20 151 25 40 40 50
76 36 125 -26 84 -111 120 -189 81z"/>
<path d="M1750 1642 c-72 -28 -112 -108 -77 -156 21 -29 58 -16 90 32 38 56
73 56 99 0 21 -44 52 -57 78 -33 27 24 30 49 10 92 -31 69 -118 97 -200 65z"/>
<path d="M1014 1199 c-18 -20 -18 -21 5 -64 51 -96 197 -207 324 -247 116 -36
317 -15 396 41 16 12 32 21 37 21 18 0 120 90 155 137 42 57 50 98 22 119 -31
23 -48 15 -114 -54 -117 -123 -215 -172 -344 -172 -140 0 -257 57 -361 175
-62 70 -88 80 -120 44z"/>
</g>
</svg>
