<?xml version="1.0" standalone="no"?>
<!DOCTYPE svg PUBLIC "-//W3C//DTD SVG 20010904//EN"
 "http://www.w3.org/TR/2001/REC-SVG-20010904/DTD/svg10.dtd">
<svg version="1.0" xmlns="http://www.w3.org/2000/svg"
 width="300.000000pt" height="300.000000pt" viewBox="0 0 300.000000 300.000000"
 preserveAspectRatio="xMidYMid meet">
<metadata>
Created by potrace 1.16, written by Peter Selinger 2001-2019
</metadata>
<g transform="translate(0.000000,300.000000) scale(0.100000,-0.100000)"
fill="#ffffff" stroke="none">
<path id="subpath_0" d="M917 2693 c-33 -50 -64 -143 -71 -219 -6 -54 -2 -86 19 -181 4 -15 1
-23 -8 -23 -25 0 -72 57 -90 110 -11 29 -23 50 -30 47 -33 -10 -46 -181 -32
-420 l8 -138 -35 -67 c-20 -37 -50 -112 -67 -168 -29 -94 -31 -112 -31 -246 0
-211 31 -322 141 -496 67 -106 66 -97 25 -232 -13 -41 -34 -119 -46 -172 -23
-93 -23 -97 -6 -123 15 -23 23 -26 50 -22 27 4 182 71 256 111 14 7 43 19 65
26 22 7 46 17 52 22 16 13 68 6 163 -21 219 -62 495 -23 701 99 170 101 360
341 412 520 37 126 47 290 27 420 -13 80 -49 210 -65 230 -27 35 -35 77 -35
175 0 105 -16 176 -46 200 -40 32 -84 100 -84 128 0 18 -13 59 -29 92 -49 103
-143 193 -121 116 9 -32 2 -119 -11 -127 -4 -2 -13 6 -20 18 -25 47 -105 131
-159 167 -82 56 -263 122 -281 104 -14 -14 -2 -39 27 -58 13 -8 24 -24 24 -34
0 -10 7 -24 15 -31 8 -7 15 -19 15 -26 0 -17 -35 -11 -97 17 -24 10 -46 19
-50 19 -4 0 -30 11 -58 24 -27 13 -66 30 -85 37 -19 8 -68 36 -108 62 -42 28
-77 46 -82 41 -8 -8 35 -152 54 -183 15 -24 -33 -10 -90 28 -64 42 -119 102
-153 169 -12 23 -25 42 -30 42 -4 0 -20 -17 -34 -37z" fill="#FF0000" stroke="none" />
<path id="subpath_1" d="M 1980 1963 c50 -35 176
-186 232 -280 10 -15 27 -40 39 -54 51 -63 64 -284 25 -442 -81 -327 -303
-534 -641 -598 -148 -28 -236 -21 -399 33 -87 29 -89 29 -135 12 -25 -10 -53
-23 -61 -30 -8 -6 -26 -15 -40 -19 -14 -4 -29 -11 -35 -15 -11 -8 -104 -40
-117 -40 -10 0 -11 44 -1 54 4 4 19 54 34 112 30 117 28 148 -15 193 -60 63
-124 209 -152 346 -28 138 -2 358 52 443 39 60 138 186 178 225 105 102 166
114 326 60 134 -45 198 -55 268 -42 31 6 62 14 67 19 9 7 150 52 200 64 52 12
120 -4 175 -41z" fill="#00FF00" stroke="none" />
</g>
</svg>