<svg viewBox="0 0 100 100" xmlns="http://www.w3.org/2000/svg">
  <path id="hair" d="M 20 20 A 30 30 0 0 1 80 20 L 78 25 Q 70 20 60 20 Q 50 20 40 20 Q 30 20 22 25 L 20 20 Z M 21 16 L 22 25 Q 26 23 30 23 Q 34 23 38 25 L 39 16 Z M 41 16 L 42 25 Q 46 23 50 23 Q 54 23 58 25 L 59 16 Z M 61 16 L 62 25 Q 66 23 70 23 Q 74 23 78 25 L 79 16 Z" fill="white"/>
  <path id="face" d="M50,90 C25,90 10,75 10,50 C10,25 25,10 50,10 C75,10 90,25 90,50 C90,75 75,90 50,90 Z M 25 40 A 5 5 0 1 1 35 40 Z M 75 40 A 5 2.5 0 1 0 65 40 Z M 25 65 Q 50 75 75 65" fill="white"/>
</svg>