<svg viewBox="0 0 100 100" xmlns="http://www.w3.org/2000/svg">
  <path id="hair" d="M50,15 A15,10 0 1 1 50,25 A15,10 0 1 1 50,15 Z M30,30 A40,10 0 0 1 70,30 " fill="none" stroke="white" stroke-width="3"/>
  <path id="face" d="M 75 45 C 75 70 60 90 50 90 C 40 90 25 70 25 45 C 25 40 30 35 35 35 C 40 35 60 35 65 35 C 70 35 75 40 75 45 Z M 35 50 A 5 5 0 1 1 35 60 A 5 5 0 1 1 35 50 Z M 65 52 C 65 55 60 58 55 56 C 50 54 55 50 65 52 Z M 30 70 C 30 75 40 80 50 75 C 60 70 70 75 70 70 Z M 20 70 L 20 95 L 30 75" fill="none" stroke="white" stroke-width="3"/>
</svg>