<svg viewBox="0 0 100 100" fill="white" stroke="none">
  <path id="hair" d="M20 22 C20 22, 80 22, 80 22 C80 22, 80 35, 80 35 C80 35, 20 35, 20 35 C20 35, 20 22, 20 22 M24 26 A0.5 0.5 0 1 1 25 26 A0.5 0.5 0 1 1 24 26 M30 25 A0.5 0.5 0 1 1 31 25 A0.5 0.5 0 1 1 30 25 M35 27 A0.5 0.5 0 1 1 36 27 A0.5 0.5 0 1 1 35 27 M40 24 A0.5 0.5 0 1 1 41 24 A0.5 0.5 0 1 1 40 24 M47 27 A0.5 0.5 0 1 1 48 27 A0.5 0.5 0 1 1 47 27 M54 25 A0.5 0.5 0 1 1 55 25 A0.5 0.5 0 1 1 54 25 M60 27 A0.5 0.5 0 1 1 61 27 A0.5 0.5 0 1 1 60 27 M66 25 A0.5 0.5 0 1 1 67 25 A0.5 0.5 0 1 1 66 25 M72 27 A0.5 0.5 0 1 1 73 27 A0.5 0.5 0 1 1 72 27"/>
  <path id="face" d="M50 10 C25 10, 10 25, 10 50 C10 75, 25 90, 50 90 C60 90, 65 87, 68 85 L68 85 L68 85 C73 93, 85 93, 90 85 C90 85, 90 85, 90 85 C93 83, 97 78, 97 70 C97 45, 75 10, 50 10 M26 40 A5 5 0 1 1 27 40 A5 5 0 1 1 26 40 M62 39 A4 4 0 1 1 63 39 A4 4 0 1 1 62 39 M32 65 C32 65, 68 65, 68 65"/>
</svg>