<svg width="100" height="100" viewBox="0 0 100 100" fill="none" xmlns="http://www.w3.org/2000/svg">
<path id="hair" d="M25.94 27.98C27.89 20.84 34.21 15.48 41.81 15.48C55.28 15.48 66.01 25.44 69.49 38.23" stroke="white" stroke-width="4" stroke-linecap="round" stroke-linejoin="round"/>
<path id="face" d="M21.52 40.75C15.94 46.42 12.34 54.19 12.34 62.68C12.34 77.64 24.53 89.83 39.49 89.83C48.81 89.83 57.03 84.66 61.59 76.63C66.15 68.6 66.69 58.47 62.03 49.86C57.37 41.25 49.44 35.48 40.61 35.48C34.73 35.48 29.35 37.69 25.94 40.75M34.49 55.22C37.28 55.22 39.57 52.93 39.57 50.14C39.57 47.35 37.28 45.06 34.49 45.06C31.7 45.06 29.41 47.35 29.41 50.14C29.41 52.93 31.7 55.22 34.49 55.22M49.15 59.07C51.94 59.07 54.23 56.78 54.23 53.99C54.23 51.2 51.94 48.91 49.15 48.91C46.36 48.91 44.07 51.2 44.07 53.99C44.07 56.78 46.36 59.07 49.15 59.07M31.7 69.83C34.66 69.83 37.12 68.01 38.54 65.52C39.97 63.03 40.05 60.14 38.72 57.51" stroke="white" stroke-width="4" stroke-linecap="round" stroke-linejoin="round"/>
</svg>