<svg viewBox="0 0 100 100" xmlns="http://www.w3.org/2000/svg">
  <path id="hair" d="M20.9,37.4c-0.6,5.3,3.3,8.4,7.7,6.3c5.1-2.3,4.9-9.3-0.3-11.5c-3.6-1.6-8.2,0.4-8.8,5.2z M29.6,24.9c0.1,5.6,4.3,8.1,8.4,5.4c4.2-2.8,4.1-9.4-0.1-12.2c-2.9-1.9-6.5,0.7-8.3,6.8z M43.5,21.2c0.3,5.8,4.9,8.6,9.5,5.6c5.2-3.2,4.9-10,0-13.3c-3.1-2-7.2,0.9-9.8,7.7z M57.4,23.5c0.1,5.7,4.5,8.2,8.6,5.5c4.1-2.7,4-9.2-0.2-12c-2.8-1.8-6.4,0.6-8.4,6.5z M70.8,30.4c0.1,5.8,4.5,8.3,8.7,5.5c4.2-2.7,4.1-9.2-0.1-12c-2.9-1.8-6.6,0.6-8.5,6.5z M74.3,41.4c-0.6,5.3,3.3,8.3,7.7,6.2c5.1-2.2,4.9-9.2-0.3-11.4c-3.6-1.6-8.2,0.4-8.8,5.2z M69.8,50.6c-0.6,5.2,3.3,8.2,7.7,6.1c5.1-2.2,4.9-9.1-0.3-11.3c-3.6-1.6-8.2,0.4-8.8,5.2z M58.8,54.8c-0.6,5.3,3.2,8.3,7.6,6.2c5.1-2.2,4.9-9.1-0.3-11.3c-3.6-1.6-8.2,0.4-8.8,5.2z M44.8,55.3c-0.6,5.3,3.2,8.3,7.6,6.2c5.1-2.2,4.9-9.1-0.3-11.3c-3.6-1.6-8.2,0.4-8.8,5.2z M31.3,50.8c-0.6,5.2,3.3,8.2,7.7,6.1c5.1-2.2,4.9-9.1-0.3-11.3c-3.6-1.6-8.2,0.4-8.8,5.2z M27.2,41.5c-0.6,5.3,3.3,8.3,7.7,6.2c5.1-2.2,4.9-9.2-0.3-11.4c-3.6-1.6-8.2,0.4-8.8,5.2z"/>
  <path id="face" d="M50,95.5c-14.3,0-27.3-7.3-34.7-19.1l-6.8-11.8v-0.1c0-0.1,0-0.2,0-0.3l0-0.1c-0.3-0.5-0.6-1.2-0.8-1.8c-1.6-4.9-0.6-10.2,2.6-14.3 c2.1-2.5,4.8-4.3,7.9-5.4c5.2-1.9,10.8-2.4,16.4-1.4c4.8,0.9,9.1,3.4,12.4,6.8c1.5,1.6,2.8,3.2,3.8,5c2.8-4.2,7.1-6.8,11.9-7.6 c5.4-0.9,11,0,16.1,2c3.2,1.2,6,3,8.3,5.5c3.2,4.3,4.1,9.5,2.5,14.6c-0.2,0.5-0.5,1-0.8,1.5c0,0.1,0,0.2,0,0.2v0.1l-6.8,11.7 C77.4,88.1,64.4,95.5,50,95.5z M32.8,37.7c-3.5,0-6.4,2.9-6.4,6.4c0,3.5,2.9,6.4,6.4,6.4c3.5,0,6.4-2.9,6.4-6.4 C39.2,40.6,36.3,37.7,32.8,37.7z M67.2,37.7c-2.2,0-4.2,1.3-5.3,3.2c-0.5,0.9-0.7,2-0.4,3.1c0.3,1.1,1,2,1.9,2.5c1,0.5,2.2,0.5,3.2,0.1 c1-0.4,1.8-1.2,2.3-2.1c0.5-0.9,0.6-2,0.4-3.1C68.8,39,68,37.7,67.2,37.7z M30.5,64.3c1.4,0,2.8-0.5,3.9-1.3c0.7-0.5,1.4-1.1,2-1.7 c0.6-0.6,1.2-1.3,1.6-2.1c1.3-2.2,1-4.9-0.7-6.8c-0.9-1-2.1-1.7-3.3-2c-1.2-0.2-2.5,0-3.5,0.7c-1.1,0.7-1.9,1.8-2.2,3 c-0.3,1.1-0.2,2.4,0.6,3.4c0.8,1.1,1.9,1.8,3.2,2.1C30,64.2,30.2,64.3,30.5,64.3z"/>
</svg>