<svg viewBox="0 0 100 100" xmlns="http://www.w3.org/2000/svg">
  <path id="hair" d="M21.5 17.2c4.9-3 10.7-4.7 16.7-4.7 5.9 0 11.6 1.7 16.5 4.7 3.1 1.9 6.1 4.1 8.8 6.6 5.5 5 11.1 10.1 16.4 15.5 1.9 1.9 3.6 4 5 5.9 4 4.4-1.5 8.9-5.1 12.8-7.7 2.7-1.8 5.6-3.3 8.7-4.5M15 30c-2.2 2.8-3.8 6.3-4.6 10.1-2.3 10.2-1.5 20.8 2.3 30.5 1.7 4.2 4.4 8 7.8 11.1M84.9 30.4c2.2 2.7 3.8 6.2 4.6 9.9 2.3 10.1 1.6 20.7-2.2 30.4-1.7 4.2-4.4 7.9-7.8 11"/>
  <path id="face" d="M50,85 C30,85 15,70 15,50 C15,30 30,15 50,15 C70,15 85,30 85,50 C85,70 70,85 50,85 Z M66,43 A6,6 0 1 1 54,43 M34,43 A6,6 0 1 1 34,43 Z M30,65 C40,75 60,75 70,65"/>
</svg>