<svg viewBox="0 0 100 100" xmlns="http://www.w3.org/2000/svg">
  <path id="hair" d="M25 20 C 25 20, 45 10, 50 25 C 55 10, 75 20, 75 20 C 75 20, 90 30, 90 40 C 90 50, 70 60, 50 55 C 30 60, 10 50, 10 40 C 10 30, 25 20, 25 20 Z" fill="white"/>
  <path id="face" d="M10 40 C 10 65, 30 90, 50 90 C 70 90, 90 65, 90 40 C 90 30, 80 20, 70 25 C 70 25, 65 35, 60 35 C 55 35, 50 25, 50 25 C 50 25, 45 35, 40 35 C 35 35, 30 25, 30 25 C 20 20, 10 30, 10 40 Z M 20 40 a 5 5 0 1 0 10 0 a 5 5 0 1 0 -10 0 Z M 45 45 C 50 40, 55 45, 60 45 C 55 50, 50 45, 45 45 Z M 20 70 C 25 70, 30 75, 40 75 C 50 75, 75 75, 80 70" fill="white"/>
</svg>