<svg viewBox="0 0 100 100" xmlns="http://www.w3.org/2000/svg">
  <path id="hair" d="M32.2,13.8c0,0,9.2-10.6,23.4-3.5c14.2,7.1,19.8,20.3,19.8,20.3s-2.9,1.5-4.9,0.5c-2-1-2.9-4.9-2.9-4.9s-2.5,0.6-5.7,0.6c-3.2,0-6.4-2.3-6.4-2.3s-0.5,5.4-2.9,6.9c-2.4,1.5-6.9,0.3-6.9,0.3S34.5,32.6,27.1,33.6c-7.4,1-7.4-13-7.4-13S32.2,13.8,32.2,13.8z" fill="white"/>
  <path id="face" d="M49.4,36.4c0,0,16.8,1.1,26.4,16.3c9.6,15.2,0.6,32.4,0.6,32.4s-15.6,7.7-30.2-0.6c-14.6-8.3-10.4-36.4-10.4-36.4s-0.4-22.3,17.6-31.3C53.4,16.7,49.4,36.4,49.4,36.4z M32.9,46.4c3.2,0,5.8-2.6,5.8-5.8s-2.6-5.8-5.8-5.8s-5.8,2.6-5.8,5.8S29.7,46.4,32.9,46.4zM67.2,40.6c-1.6,0.8-3.2,1.5-4.7,1.9c-1.5,0.4-3.1,0.4-4.6,0c-1.9-0.6-3.4-1.9-4.4-3.5c-0.9-1.7-1.4-3.6-1.4-5.6c0-0.2,0-0.4,0-0.5c0-0.4,0.3-0.7,0.7-0.7c0.4,0,0.7,0.3,0.7,0.7c0,0.1,0,0.2,0,0.4c0,1.7,0.4,3.2,1.2,4.6c0.8,1.4,2.1,2.4,3.6,3c1.3,0.5,2.7,0.5,3.9,0.1c1.4-0.4,2.8-1.3,3.8-2.5c1-1.2,1.6-2.7,1.6-4.3c0-0.2,0-0.4,0-0.5c0-0.4,0.3-0.7,0.7-0.7c0.4,0,0.7,0.3,0.7,0.7c0,0.1,0,0.2,0,0.4c0,1.8-0.5,3.6-1.5,5.2C69.5,38.6,68.4,39.7,67.2,40.6zM68.7,64.7c-2.8,2.8-7.2,4.4-11.9,4.4c-4.7,0-9.1-1.6-11.9-4.4" fill="white"/>
</svg>