<svg viewBox="0 0 100 100" xmlns="http://www.w3.org/2000/svg">
  <path id="hair" d="M20 30 C20 15 40 5 60 5 C80 5 95 15 95 30 L95 40 L20 40Z" fill="none" stroke="white" stroke-width="3" stroke-linecap="round"/>
  <path id="face" d="M20 40 C20 55 15 75 30 85 L30 90 C30 95 35 98 40 98 L60 98 C65 98 70 95 70 90 L70 85 C85 75 80 55 80 40 L20 40ZM30 55 A5 5 0 1 0 40 55 A5 5 0 1 0 30 55 Z M60 55 C65 55 70 52 70 50 C70 48 65 45 60 45 C55 45 50 48 50 50 C50 52 55 55 60 55 Z M30 70 C35 75 65 75 70 70" fill="none" stroke="white" stroke-width="3" stroke-linecap="round"/>
</svg>