<svg viewBox="0 0 100 100" xmlns="http://www.w3.org/2000/svg">
  <path id="face" d="M50 8 A42 42 0 0 0 8 50 A42 42 0 0 0 50 92 C50 92 80 92 92 80 A42 42 0 0 0 92 50 A42 42 0 0 0 50 8 Z M25 40 A7 7 0 1 1 25 54 A7 7 0 1 1 25 40 Z M75 48 C75 48 68 44 68 44 C68 44 68 52 68 52 C68 52 75 48 75 48 Z M28 70 C28 70 38 60 62 60 C62 60 72 70 72 70" fill="currentColor"/>
  <path id="hair" d="M15 25 A15 15 0 0 0 25 15 L25 3 L35 3 L35 15 A15 15 0 0 0 45 25 L45 50 A15 15 0 0 0 25 50 L25 25 L15 25 Z M85 25 A15 15 0 0 1 75 15 L75 3 L65 3 L65 15 A15 15 0 0 1 55 25 L55 50 A15 15 0 0 1 75 50 L75 25 L85 25 Z M35 30 A15 15 0 0 1 65 30 L65 20 A15 15 0 0 0 35 20 L35 30 Z" fill="currentColor"/>
</svg>