<svg viewBox="0 0 100 100" xmlns="http://www.w3.org/2000/svg">
  <path id="hair" d="M24.7,31.1c3.1-4.5,7.7-7.6,12.8-8.7c8.1-1.8,16.2,1.2,20.9,7.3c4.7,6.1,4.8,14.6,0.3,20.7c-4.5,6.1-12.1,9.1-20.3,7.3c-7.1-1.5-13.1-6.6-15.9-13.2C19.1,47.7,21.5,35.6,24.7,31.1z"/>
  <path id="face" d="M69.8,32.4c-2.8-5.2-8.6-8.8-15.1-9.4c-7.8-0.8-15.4,2.5-20.5,8.8c-4.3,5.4-6.1,12.7-5.1,20.1c0.7,5.4,3.3,10.2,7.2,13.5 c3.9,3.3,8.7,5.2,13.8,5.5c6.4,0.4,12.7-2.2,16.9-7.1c2.3-2.6,4.1-5.6,5.3-8.9c2-5.4,1.8-11.5-0.6-17.4 C71.3,35.4,70.7,33.6,69.8,32.4z M39.3,48.1c-0.7,0.7-1.1,1.7-1.1,2.7c0,1,0.4,2,1.1,2.7c0.7,0.7,1.7,1.1,2.7,1.1 c1,0,2-0.4,2.7-1.1c0.7-0.7,1.1-1.7,1.1-2.7c0-1-0.4-2-1.1-2.7c-0.7-0.7-1.7-1.1-2.7-1.1C41,47,40,47.4,39.3,48.1z M58.7,54.4c-2.6-0.7-5.2-0.2-7.6,1.2c-2.3,1.4-4.1,3.5-5.3,5.9c-0.9,2.1-1.2,4.4-0.8,6.6c0.8,4.4,5.9,6.6,10.3,4.5c2.5-1.2,4.8-3.1,6.2-5.5c1.1-2.1,1.4-4.5,1-6.7 C62.4,57.3,60.9,55.1,58.7,54.4z"/>
</svg>