<svg viewBox="0 0 100 100" xmlns="http://www.w3.org/2000/svg">
  <path id="hair" d="M20 25 C 20 10, 40 5, 50 5 C 60 5, 80 10, 80 25 C 80 40, 60 45, 50 45 C 40 45, 20 40, 20 25 Z M30 20 C 30 30, 35 35, 50 35 C 65 35, 70 30, 70 20" fill="none" stroke="currentColor" stroke-width="3"/>
  <path id="face" d="M20 25 C 20 50, 30 80, 50 80 C 70 80, 80 50, 80 25 C 80 15, 70 10, 50 10 C 30 10, 20 15, 20 25 Z M 32 40 A 5 5 0 1 0 42 40 M 55 40 A 3 3 0 1 0 61 40 M 30 60 C 40 70, 60 70, 70 60" fill="none" stroke="currentColor" stroke-width="3"/>
</svg>