<svg width="100" height="100" viewBox="0 0 100 100" fill="none" xmlns="http://www.w3.org/2000/svg">
<path id="hair" d="M50 15C68 15 82 29 82 47C82 65 68 79 50 79C32 79 18 65 18 47C18 29 32 15 50 15Z" fill="white"/>
<path id="face" d="M75 50C75 63.8071 63.8071 75 50 75C36.1929 75 25 63.8071 25 50C25 36.1929 36.1929 25 50 25C63.8071 25 75 36.1929 75 50ZM35 40C38 40 40 38 40 35C40 32 38 30 35 30C32 30 30 32 30 35C30 38 32 40 35 40ZM60 40C63 40 65 38 65 35C65 32 63 30 60 30C57 30 55 32 55 35C55 38 57 40 60 40ZM30 55C30 60 40 65 50 65C60 65 70 60 70 55C70 50 30 50 30 55ZM15 75C15 80 20 85 25 85H75C80 85 85 80 85 75C85 70 15 70 15 75Z" fill="white"/>
</svg>