<svg width="100" height="100" viewBox="0 0 100 100" fill="none" xmlns="http://www.w3.org/2000/svg">
    <path id="hair" d="M43.3333 22.5V29.1667C43.3333 31.8859 45.5538 34.1064 48.273 34.1064H51.727C54.4462 34.1064 56.6667 31.8859 56.6667 29.1667V22.5L59.6626 27.9509C61.6221 31.4066 64.9894 33.75 68.6749 33.75C72.3604 33.75 75.7277 31.4066 77.6872 27.9509L80.6667 22.5V35.8333C80.6667 38.5526 78.4462 40.773 75.727 40.773H24.273C21.5538 40.773 19.3333 38.5526 19.3333 35.8333V22.5L22.3128 27.9509C24.2723 31.4066 27.6396 33.75 31.3251 33.75C35.0106 33.75 38.3779 31.4066 40.3374 27.9509L43.3333 22.5Z" fill="white"/>
    <path id="face" d="M50 9.16666C27.9086 9.16666 9.16666 27.9086 9.16666 50C9.16666 72.0914 27.9086 90.8333 50 90.8333C72.0914 90.8333 90.8333 72.0914 90.8333 50C90.8333 27.9086 72.0914 9.16666 50 9.16666ZM25.8333 50C25.8333 55.421 28.0138 60.5881 32.0491 64.6234C36.0844 68.6587 41.2515 70.8333 46.6667 70.8333C49.3182 70.8333 51.8281 70.1173 54.0312 68.8617C54.5221 68.581 55.0481 68.375 55.6002 68.375C56.1524 68.375 56.6783 68.581 57.1692 68.8617C59.3723 70.1173 61.8821 70.8333 64.5333 70.8333C69.9485 70.8333 75.1156 68.6587 79.1509 64.6234C83.1862 60.5881 85.3667 55.421 85.3667 50C85.3667 42.7633 80.6435 36.2709 73.8833 33.1883C70.4604 31.6154 66.7635 30.8333 63.0333 30.8333C57.7704 30.8333 52.6485 33.0544 48.9416 36.9667C45.2346 33.0544 40.1127 30.8333 34.85 30.8333C31.1198 30.8333 27.4229 31.6154 24.9999 33.1883C18.2398 36.2709 13.5166 42.7633 13.5166 50H25.8333ZM34.1667 43.3333C37.7944 43.3333 40.6667 40.461 40.6667 36.8333C40.6667 33.2056 37.7944 30.3333 34.1667 30.3333C30.5389 30.3333 27.6667 33.2056 27.6667 36.8333C27.6667 40.461 30.5389 43.3333 34.1667 43.3333ZM53.2833 43.3333C54.2567 43.3333 55.23 43.0886 56.1333 42.6C57.0367 42.1114 57.8531 41.412 58.5333 40.55C59.2136 39.688 59.7491 38.6856 60.1167 37.5917C60.4844 36.4977 60.671 35.3488 60.6667 34.1667C60.6667 33.2194 60.482 32.2751 60.1167 31.3667C59.7514 30.4583 59.2162 29.6026 58.5333 28.8333C57.8505 28.0641 57.034 27.3664 56.1333 26.8667C55.2326 26.367 54.256 26.1219 53.2833 26.1667C51.8719 26.2103 50.5337 26.8499 49.4833 27.8917C48.4329 28.9334 47.7527 30.2557 47.5 31.6667C47.2473 33.0776 47.5654 34.4601 48.375 35.55C49.1846 36.6399 50.4281 37.3855 51.8333 37.6667C52.2454 37.7404 52.664 37.757 53.0833 37.7167C53.633 37.6353 54.1589 37.4524 54.6333 37.1833C55.1077 36.9143 55.5321 36.5624 55.8833 36.1417C56.2346 35.721 56.5011 35.2464 56.6667 34.7417C56.8323 34.2369 56.895 33.7143 56.85 33.1917C56.805 32.669 56.6528 32.1524 56.4 31.6667C56.1472 31.181 55.8005 30.7249 55.3833 30.325C54.966 29.9251 54.4882 29.5898 53.975 29.3417C53.4619 29.0937 52.9236 28.9341 52.375 28.8667C50.5565 28.7145 48.8857 29.5567 47.7667 30.9667C46.6477 32.3767 46.2319 34.1972 46.5833 35.9C46.9346 37.6028 48.0254 39.0699 49.5667 39.95C51.1079 40.8301 52.9495 41.0611 54.7167 40.6667C55.6894 40.4755 56.5818 40.0262 57.3333 39.4417C58.0848 38.8572 58.6764 38.1587 59.075 37.3833C59.4737 36.6079 59.6717 35.7735 59.6667 34.9167C59.6667 34.3463 59.5742 33.78 59.3917 33.2333C59.2091 32.6867 58.9394 32.1617 58.5917 31.675C58.2439 31.1883 57.8246 30.7431 57.35 30.3583C56.8754 29.9735 56.3515 29.6578 55.7917 29.425C55.2319 29.1922 54.648 29.0454 54.0583 28.9833C53.0856 28.8888 52.1281 29.1283 51.3167 29.6667C50.5052 30.205 49.8742 30.9154 49.4917 31.75C49.1091 32.5846 48.9815 33.4969 49.1167 34.3917C49.2519 35.2864 49.6456 36.1359 50.25 36.8167C50.8544 37.4974 51.6404 38.0095 52.5333 38.2917C52.9871 38.4362 53.4533 38.5094 53.9167 38.5083C54.38 38.5071 54.8456 38.4327 55.2917 38.2894C55.7377 38.1461 56.1621 37.9379 56.55 37.675C56.9379 37.4121 57.2859 37.0983 57.575 36.7417C57.8641 36.3851 58.0916 36.0004 58.2417 35.5917C58.3918 35.1831 58.4634 34.7565 58.45 34.325C58.4366 33.8935 58.3399 33.4666 58.1667 33.0583C57.9935 32.65 57.7462 32.2665 57.4333 31.925C57.1205 31.5835 56.7468 31.2957 56.325 31.075C55.9031 30.8543 55.4405 30.7039 54.9583 30.6333C54.0113 30.4969 53.1045 30.7324 52.375 31.3083C51.6455 31.8842 51.1337 32.6553 50.8917 33.525C50.6496 34.3946 50.6793 35.2813 50.975 36.1083C51.2706 36.9354 51.8271 37.6604 52.5833 38.1917C52.9645 38.4644 53.3641 38.6665 53.775 38.7917C54.1859 38.9169 54.6037 38.9631 55.0167 38.925C54.5672 39.2376 54.1428 39.6106 53.75 40.0333C53.3572 40.456 53.0091 40.9264 52.7167 41.4333C52.4243 41.9402 52.1896 42.4786 52.025 43.0333C52.0906 43.1341 52.159 43.2337 52.2292 43.3333H53.2833Z" fill="white"/>
    <path d="M76.9251 75.0167C70.5001 82.3167 60.0751 85.2333 50.0001 85.2333C39.9251 85.2333 29.5001 82.3167 23.0751 75.0167C23.4668 74.8167 23.8584 74.6333 24.2501 74.45H75.7501C76.1418 74.6333 76.5334 74.8167 76.9251 75.0167Z" fill="white"/>
</svg>