<?xml version="1.0" standalone="no"?>
<!DOCTYPE svg PUBLIC "-//W3C//DTD SVG 20010904//EN"
 "http://www.w3.org/TR/2001/REC-SVG-20010904/DTD/svg10.dtd">
<svg version="1.0" xmlns="http://www.w3.org/2000/svg"
 width="300.000000pt" height="300.000000pt" viewBox="0 0 300.000000 300.000000"
 preserveAspectRatio="xMidYMid meet">
<metadata>
Created by potrace 1.16, written by Peter Selinger 2001-2019
</metadata>
<g transform="translate(0.000000,300.000000) scale(0.100000,-0.100000)"
fill="#ffffff" stroke="none">
<path id="subpath_0" d="M2200 2608 c-18 -39 -39 -62 -75 -86 -93 -63 -126 -72 -248 -72 -61
0 -124 4 -141 9 -132 39 -221 54 -353 59 -126 4 -147 2 -197 -17 -164 -61
-228 -121 -266 -247 -11 -36 -18 -43 -61 -58 -56 -21 -121 -86 -148 -150 -32
-74 -54 -191 -49 -264 4 -51 -1 -86 -18 -146 -13 -43 -28 -84 -34 -91 -9 -11
-21 -57 -40 -165 -35 -188 27 -449 149 -629 43 -63 48 -84 30 -141 -13 -43
-57 -206 -74 -277 -11 -44 -11 -55 2 -72 20 -29 68 -27 144 8 35 15 93 41 129
56 36 15 86 38 112 51 60 30 89 30 170 0 35 -14 99 -29 142 -35 193 -27 334
-3 521 89 109 54 137 74 219 151 160 151 241 297 291 523 33 147 6 377 -61
520 -21 46 -29 82 -34 160 -8 103 -27 181 -61 249 l-20 37 24 43 c41 74 52
133 51 272 -1 112 -4 140 -26 200 -14 39 -31 71 -39 73 -8 1 -24 -19 -39 -50z" fill="#FF0000" stroke="none" />
<path id="subpath_1" d="M 1205 1937 c264 -64 346 -77 472 -77 90 0 155 6 217 20 119 26 126 26 159 -17
20 -28 27 -47 27 -83 0 -26 3 -75 7 -110 6 -63 6 -63 95 -154 51 -53 93 -105
99 -125 19 -57 5 -271 -24 -363 -75 -235 -285 -455 -502 -526 -118 -39 -169
-45 -299 -39 -103 5 -138 11 -211 36 -47 17 -96 31 -108 31 -24 0 -82 -21
-201 -73 -44 -19 -86 -33 -93 -30 -16 6 -14 22 28 167 25 89 27 102 15 131 -8
18 -19 36 -25 39 -17 11 -91 143 -117 209 -13 34 -31 93 -39 133 -19 94 -20
264 -1 307 8 18 48 66 91 107 42 41 83 87 91 102 9 17 14 57 14 105 0 102 17
133 110 201 50 37 73 38 195 9z" fill="#00FF00" stroke="none" />
</g>
</svg>