<?xml version="1.0" standalone="no"?>
<!DOCTYPE svg PUBLIC "-//W3C//DTD SVG 20010904//EN"
 "http://www.w3.org/TR/2001/REC-SVG-20010904/DTD/svg10.dtd">
<svg version="1.0" xmlns="http://www.w3.org/2000/svg"
 width="300.000000pt" height="300.000000pt" viewBox="0 0 300.000000 300.000000"
 preserveAspectRatio="xMidYMid meet">
<metadata>
Created by potrace 1.16, written by Peter Selinger 2001-2019
</metadata>
<g transform="translate(0.000000,300.000000) scale(0.100000,-0.100000)"
fill="#ffffff" stroke="none">
<path id="subpath_0" d="M1480 2718 c-5 -13 -30 -77 -56 -143 -56 -145 -52 -139 -70 -124 -8
7 -14 30 -14 55 0 32 -4 44 -15 44 -23 0 -73 -113 -81 -183 -8 -77 -11 -83
-35 -61 -11 9 -22 14 -27 10 -4 -4 -6 -46 -6 -92 l2 -84 -77 -37 c-239 -114
-431 -351 -501 -618 -30 -112 -30 -325 0 -440 22 -88 114 -283 154 -329 32
-36 32 -38 2 -128 -13 -40 -36 -126 -51 -191 -26 -113 -26 -119 -10 -138 30
-33 39 -30 235 59 25 11 84 35 132 52 l88 32 92 -27 c121 -37 329 -46 452 -20
273 56 528 262 656 530 91 191 105 458 34 667 -77 230 -229 412 -446 535 -119
67 -120 68 -113 106 9 49 13 110 8 124 -8 19 -21 16 -28 -7 -13 -42 -32 -21
-38 43 -7 74 -47 182 -68 182 -8 0 -20 -20 -29 -47 -19 -60 -27 -67 -36 -32
-10 40 -120 270 -133 278 -6 4 -15 -3 -21 -16z" fill="#FF0000" stroke="none" />
<path id="subpath_1" d="M 1263 1989 c130 -121 227 -153
327 -108 40 18 135 84 168 116 20 20 47 16 113 -17 176 -87 329 -269 392 -465
41 -126 47 -265 18 -407 -45 -221 -138 -368 -308 -489 -155 -110 -258 -146
-443 -155 -107 -5 -123 -4 -230 26 -63 17 -127 34 -141 37 -31 6 -136 -30
-239 -82 -56 -28 -72 -33 -76 -21 -3 8 8 64 25 125 39 141 40 180 3 223 -101
118 -173 320 -172 486 2 311 172 587 450 729 56 28 84 29 113 2z" fill="#00FF00" stroke="none" />
</g>
</svg>