<?xml version="1.0" standalone="no"?>
<!DOCTYPE svg PUBLIC "-//W3C//DTD SVG 20010904//EN"
 "http://www.w3.org/TR/2001/REC-SVG-20010904/DTD/svg10.dtd">
<svg version="1.0" xmlns="http://www.w3.org/2000/svg"
 width="300.000000pt" height="300.000000pt" viewBox="0 0 300.000000 300.000000"
 preserveAspectRatio="xMidYMid meet">
<metadata>
Created by potrace 1.16, written by Peter Selinger 2001-2019
</metadata>
<g transform="translate(0.000000,300.000000) scale(0.100000,-0.100000)"
fill="#ffffff" stroke="none">
<path id="subpath_0" d="M1315 2595 c-27 -8 -59 -15 -70 -15 -31 -1 -184 -72 -251 -117 -140
-96 -261 -253 -313 -409 -44 -134 -48 -187 -71 -794 -5 -151 -14 -376 -20
-500 -8 -181 -13 -470 -10 -572 0 -14 9 -18 39 -18 l38 0 7 213 c8 266 23 785
31 1112 9 340 28 458 103 613 92 191 211 297 415 371 82 31 196 44 310 38 121
-7 196 -26 236 -60 19 -15 47 -26 80 -30 75 -9 134 -39 202 -104 106 -100 182
-244 223 -418 9 -38 19 -79 22 -90 3 -11 9 -193 14 -405 13 -556 29 -1084 36
-1167 l6 -73 35 0 34 0 -6 432 c-3 238 -10 516 -16 618 -5 102 -9 264 -10 360
0 186 -11 266 -56 425 -26 90 -30 101 -74 185 -79 152 -253 297 -381 316 -24
3 -54 14 -68 23 -74 48 -182 74 -325 77 -73 2 -127 -2 -160 -11z" fill="#FF0000" stroke="none" />
</g>
</svg>