<?xml version="1.0" standalone="no"?>
<!DOCTYPE svg PUBLIC "-//W3C//DTD SVG 20010904//EN"
 "http://www.w3.org/TR/2001/REC-SVG-20010904/DTD/svg10.dtd">
<svg version="1.0" xmlns="http://www.w3.org/2000/svg"
 width="300.000000pt" height="300.000000pt" viewBox="0 0 300.000000 300.000000"
 preserveAspectRatio="xMidYMid meet">
<metadata>
Created by potrace 1.16, written by Peter Selinger 2001-2019
</metadata>
<g transform="translate(0.000000,300.000000) scale(0.100000,-0.100000)"
fill="#ffffff" stroke="none">
<path id="subpath_0" d="M973 2558 c-19 -23 -53 -128 -53 -161 0 -18 -5 -39 -10 -47 -9 -13
-12 -12 -26 5 -36 48 -55 65 -65 59 -21 -13 -60 -121 -66 -182 -3 -34 -10 -65
-15 -68 -5 -4 -20 3 -32 15 -32 31 -42 26 -55 -23 -24 -95 -6 -195 50 -276 14
-21 15 -35 8 -90 -10 -68 -34 -144 -54 -170 -17 -20 -52 -141 -64 -220 -21
-130 -9 -306 29 -407 28 -74 108 -232 138 -272 l26 -34 -16 -71 c-9 -39 -23
-96 -31 -126 -8 -30 -22 -90 -32 -133 -17 -74 -17 -79 0 -97 27 -30 58 -25
174 29 58 26 146 63 194 81 l88 34 47 -17 c92 -33 192 -47 327 -47 74 0 144 4
157 9 13 5 48 14 78 21 70 16 142 51 255 126 145 95 242 207 328 380 58 115
78 213 77 372 0 166 -8 216 -55 355 -31 92 -37 123 -40 219 -5 141 -28 207
-94 275 -57 59 -115 88 -206 103 -67 11 -71 13 -96 54 -32 53 -97 99 -169 120
-29 9 -113 21 -184 26 -134 10 -205 26 -249 55 -24 15 -26 15 -35 -1 -5 -9 -7
-36 -4 -60 6 -54 -6 -56 -88 -18 -53 25 -117 82 -173 157 -29 39 -48 46 -64
25z" fill="#FF0000" stroke="none" />
<path id="subpath_1" d="M 1046 2389 c10 -12 35 -30 54 -40 19 -11 49 -28 67 -39 43 -25 128 -50 175
-50 44 0 57 18 40 55 -16 34 -2 39 60 20 28 -8 83 -15 122 -15 106 0 207 -22
254 -56 47 -33 88 -92 102 -145 11 -41 37 -58 47 -31 10 25 23 32 68 32 69 0
143 -58 186 -147 16 -33 22 -70 26 -158 4 -79 3 -115 -5 -115 -6 0 -28 21 -49
46 -132 160 -168 184 -313 209 -99 17 -132 15 -274 -17 -117 -27 -220 -21
-331 18 -71 25 -87 35 -150 99 -69 71 -83 96 -119 212 -16 53 -21 124 -9 136
12 12 30 7 49 -14z" fill="#00FF00" stroke="none" />
<path id="subpath_2" d="M 899 2207 c6 -8 25 -20 41 -27 22 -9 31 -21 36 -46 10
-52 75 -145 128 -183 26 -18 46 -35 44 -36 -2 -2 -41 1 -87 7 -101 12 -126 6
-146 -33 -9 -16 -25 -39 -35 -49 -11 -11 -31 -38 -46 -61 -34 -54 -47 -41 -45
48 1 54 -3 75 -21 103 -37 59 -48 82 -48 101 0 20 20 25 36 10 5 -6 28 -13 52
-17 50 -8 51 -1 27 93 -16 59 -20 125 -9 136 7 7 53 -23 73 -46z" fill="#0000FF" stroke="none" />
<path id="subpath_3" d="M 1965 1841
c37 -17 74 -44 98 -72 124 -145 180 -219 202 -264 52 -106 51 -350 -2 -505
-33 -97 -45 -119 -110 -212 -89 -127 -277 -264 -395 -289 -29 -6 -58 -15 -64
-20 -20 -16 -227 -23 -296 -10 -76 15 -161 39 -206 58 -31 14 -39 13 -95 -8
-34 -12 -93 -39 -132 -59 -38 -21 -80 -41 -92 -45 -20 -6 -23 -3 -23 23 0 16
14 77 30 135 16 59 30 117 30 130 0 12 -24 58 -54 102 -115 172 -150 294 -144
496 4 130 6 139 38 203 28 57 110 176 213 310 l23 29 140 -11 c209 -18 334
-15 444 9 52 12 113 25 135 29 73 16 194 2 260 -29z" fill="#FFFF00" stroke="none" />
</g>
</svg>