<?xml version="1.0" standalone="no"?>
<!DOCTYPE svg PUBLIC "-//W3C//DTD SVG 20010904//EN"
 "http://www.w3.org/TR/2001/REC-SVG-20010904/DTD/svg10.dtd">
<svg version="1.0" xmlns="http://www.w3.org/2000/svg"
 width="300.000000pt" height="300.000000pt" viewBox="0 0 300.000000 300.000000"
 preserveAspectRatio="xMidYMid meet">
<metadata>
Created by potrace 1.16, written by Peter Selinger 2001-2019
</metadata>
<g transform="translate(0.000000,300.000000) scale(0.100000,-0.100000)"
fill="#ffffff" stroke="none">
<path id="subpath_0" d="M1405 2623 c-117 -28 -295 -147 -342 -227 -40 -70 -56 -72 -47 -7 4
28 4 51 1 51 -19 0 -82 -71 -111 -124 -58 -104 -79 -180 -80 -282 l-1 -91 -47
-52 c-47 -52 -120 -169 -133 -213 -4 -13 -13 -32 -20 -44 -48 -75 -71 -380
-40 -508 20 -80 54 -173 77 -211 10 -16 23 -41 30 -55 7 -14 27 -46 45 -71 18
-26 33 -54 33 -63 0 -8 -13 -64 -29 -123 -47 -178 -63 -260 -56 -282 8 -27 60
-28 118 -2 23 10 71 31 107 45 36 15 74 31 85 36 54 25 149 51 168 47 12 -3
65 -17 117 -32 181 -49 415 -33 575 40 168 76 340 222 421 357 21 35 42 65 46
66 4 2 8 9 8 15 0 7 7 26 16 42 68 131 99 358 70 520 -18 102 -45 189 -76 254
-15 29 -25 77 -31 142 -5 55 -18 121 -28 147 -29 73 -13 84 43 32 26 -24 49
-40 53 -37 3 4 -2 36 -11 71 -31 112 -162 242 -313 313 l-38 18 63 3 c34 2 62
7 62 12 0 14 -102 66 -195 98 -183 63 -330 63 -499 1 -44 -17 -86 -28 -93 -27
-9 2 3 25 37 66 47 58 60 84 43 81 -5 -1 -17 -3 -28 -6z" fill="#FF0000" stroke="none" />
<path id="subpath_1" d="M 1298 1990 c26 -6 69
-16 96 -22 95 -21 241 -104 378 -216 67 -54 105 -64 95 -25 -3 10 -8 36 -12
58 -4 22 -19 61 -33 87 -29 52 -24 72 11 42 12 -11 36 -29 52 -39 58 -35 153
-126 159 -151 5 -20 12 -25 27 -21 17 5 27 -8 65 -90 24 -53 47 -113 50 -135
8 -47 19 -56 35 -26 19 36 39 52 50 41 14 -14 29 -118 29 -205 0 -52 -9 -110
-26 -175 -14 -54 -28 -108 -31 -120 -3 -12 -11 -28 -19 -34 -8 -6 -14 -16 -14
-21 0 -13 -58 -97 -109 -157 -57 -66 -189 -166 -266 -201 -190 -85 -448 -87
-655 -4 -36 15 -43 14 -94 -5 -31 -11 -64 -25 -73 -30 -29 -17 -114 -52 -132
-56 -9 -2 -23 -5 -31 -7 -11 -2 -14 4 -11 27 2 17 7 38 12 47 11 20 49 176 49
199 0 9 -16 36 -34 61 -50 65 -110 189 -142 293 -24 76 -28 106 -26 190 1 119
16 210 45 285 70 180 217 356 332 397 66 24 150 29 223 13z" fill="#00FF00" stroke="none" />
</g>
</svg>