<?xml version="1.0" standalone="no"?>
<!DOCTYPE svg PUBLIC "-//W3C//DTD SVG 20010904//EN"
 "http://www.w3.org/TR/2001/REC-SVG-20010904/DTD/svg10.dtd">
<svg version="1.0" xmlns="http://www.w3.org/2000/svg"
 width="300.000000pt" height="300.000000pt" viewBox="0 0 300.000000 300.000000"
 preserveAspectRatio="xMidYMid meet">
<metadata>
Created by potrace 1.16, written by Peter Selinger 2001-2019
</metadata>
<g transform="translate(0.000000,300.000000) scale(0.100000,-0.100000)"
fill="#ffffff" stroke="none">
<path id="subpath_0" d="M1048 2591 c-46 -30 -83 -72 -111 -127 -14 -27 -23 -32 -69 -38 -92
-11 -156 -40 -178 -81 -16 -31 -9 -38 53 -55 20 -6 37 -15 37 -19 0 -5 -29
-38 -63 -73 -111 -113 -157 -244 -157 -448 0 -99 2 -111 23 -136 23 -26 23
-28 8 -78 -10 -36 -15 -101 -15 -221 0 -151 2 -178 23 -245 28 -88 111 -251
152 -298 16 -18 29 -35 29 -37 0 -3 -9 -38 -21 -78 -11 -39 -34 -125 -50 -190
-29 -113 -29 -120 -14 -144 14 -21 23 -24 48 -20 27 4 219 81 335 133 53 24
73 25 128 5 128 -49 307 -63 459 -37 278 47 531 239 664 505 84 165 108 299
91 489 -6 64 -15 135 -20 157 -5 22 -10 52 -10 67 0 21 4 25 19 21 16 -4 22 2
29 34 21 83 23 116 7 201 -35 188 -109 319 -242 423 -35 27 -63 53 -63 58 0 6
9 13 20 16 30 10 24 30 -19 67 -106 91 -364 167 -564 168 -118 0 -276 -35
-369 -81 -54 -28 -57 -25 -51 36 l6 55 -35 0 c-20 0 -52 -11 -80 -29z" fill="#FF0000" stroke="none" />
<path id="subpath_1" d="M 1705 2515 c124 -18 162 -28 248 -67 60 -28 88 -58 54 -58 -8 0 -21 -8 -31 -19 -15
-16 -15 -19 -1 -31 9 -7 38 -23 66 -36 57 -27 118 -68 170 -116 71 -65 159
-263 159 -360 l0 -48 -42 30 c-22 16 -47 30 -54 30 -15 0 -29 -62 -19 -87 10
-26 -37 -233 -52 -233 -7 0 -13 6 -13 13 0 30 -70 155 -103 184 -32 28 -130
73 -160 73 -21 0 -133 38 -207 69 -76 32 -142 75 -202 129 -21 19 -42 31 -49
27 -18 -12 -2 -83 37 -159 19 -38 32 -71 29 -74 -3 -3 -54 18 -113 48 -92 46
-119 65 -189 137 -44 46 -84 83 -88 83 -20 0 -68 -47 -86 -83 -12 -23 -23 -44
-25 -46 -2 -2 -17 8 -34 23 -17 14 -36 26 -41 26 -13 0 -64 -74 -89 -128 -12
-26 -25 -54 -29 -62 -13 -25 -30 -111 -35 -179 -5 -70 -8 -77 -23 -59 -29 36
-46 122 -39 200 5 60 4 78 -6 78 -20 0 -88 -49 -88 -63 0 -7 -4 -6 -10 3 -10
15 -7 46 12 135 32 149 82 229 188 307 39 28 70 56 70 64 0 14 -19 35 -52 59
-33 22 -14 30 44 18 71 -14 86 -8 98 41 12 47 34 89 49 94 6 2 11 -20 13 -54
4 -74 23 -89 68 -51 42 36 135 89 191 111 44 17 189 42 254 45 17 0 75 -6 130
-14z" fill="#00FF00" stroke="none" />
<path id="subpath_2" d="M 1216 1864 c99 -82 162 -115 331 -169 56 -18 134 -17 140 2 2 6 -10 27
-28 47 -33 38 -34 55 -2 38 10 -5 70 -24 133 -42 274 -75 297 -95 331 -291 23
-135 24 -139 43 -139 19 0 50 40 77 101 13 27 28 49 35 49 38 0 28 -269 -16
-395 -3 -11 -25 -58 -48 -105 -95 -196 -267 -339 -499 -416 -150 -50 -331 -39
-500 29 -75 30 -78 30 -243 -47 -63 -30 -119 -50 -123 -46 -4 4 6 58 22 121
39 145 39 165 -2 220 -114 151 -166 299 -167 469 0 113 8 170 25 170 6 0 22
-22 35 -50 22 -46 73 -110 89 -110 22 0 31 59 33 215 l3 170 37 78 c20 42 42
77 48 77 7 0 25 -11 42 -25 38 -32 56 -32 69 3 13 33 51 112 54 112 1 0 38
-30 81 -66z" fill="#0000FF" stroke="none" />
</g>
</svg>