<?xml version="1.0" standalone="no"?>
<!DOCTYPE svg PUBLIC "-//W3C//DTD SVG 20010904//EN"
 "http://www.w3.org/TR/2001/REC-SVG-20010904/DTD/svg10.dtd">
<svg version="1.0" xmlns="http://www.w3.org/2000/svg"
 width="300.000000pt" height="300.000000pt" viewBox="0 0 300.000000 300.000000"
 preserveAspectRatio="xMidYMid meet">
<metadata>
Created by potrace 1.16, written by Peter Selinger 2001-2019
</metadata>
<g transform="translate(0.000000,300.000000) scale(0.100000,-0.100000)"
fill="#ffffff" stroke="none">
<path id="subpath_0" d="M860 2693 c-127 -21 -261 -95 -315 -173 -78 -112 -86 -284 -19 -424
l23 -48 -28 -37 c-57 -73 -65 -109 -67 -306 -1 -141 -5 -191 -18 -230 -10 -30
-20 -97 -23 -165 -10 -207 43 -387 167 -569 l43 -62 -21 -72 c-92 -316 -96
-367 -27 -367 35 0 163 50 334 132 l84 40 76 -31 c178 -73 422 -67 606 15 261
117 389 239 518 500 45 89 63 156 77 280 10 86 9 120 -4 213 -9 62 -22 124
-28 139 -6 15 -12 92 -12 177 -1 169 -10 210 -61 284 -31 44 -35 58 -35 113 0
73 -21 123 -73 183 -33 39 -129 95 -160 95 -28 0 -259 71 -348 106 -49 20 -96
33 -105 30 -15 -6 -37 5 -213 103 -41 22 -79 41 -85 41 -7 0 -16 4 -21 9 -19
19 -200 35 -265 24z" fill="#FF0000" stroke="none" />
<path id="subpath_1" d="M 821 2261 c15 -43 69 -136 103 -176 29 -33 32 -45 14 -45
-21 1 -41 21 -106 106 -56 73 -62 88 -73 153 -9 62 -8 79 7 129 l18 57 13 -94
c7 -52 18 -110 24 -130z" fill="#00FF00" stroke="none" />
<path id="subpath_2" d="M 680 2372 c0 -39 9 -97 20 -137 34 -115 34 -113 -4
-70 -52 58 -70 111 -64 190 10 114 48 127 48 17z" fill="#0000FF" stroke="none" />
<path id="subpath_3" d="M 998 2360 c0 -16 -4 -30 -9
-30 -5 0 -9 14 -9 30 0 17 4 30 8 30 5 0 9 -13 10 -30z" fill="#FFFF00" stroke="none" />
<path id="subpath_4" d="M 944 2269 c3 -17 12
-45 20 -62 29 -65 36 -97 22 -97 -24 0 -44 35 -55 94 -13 72 -14 109 -2 102 4
-3 11 -20 15 -37z" fill="#00FFFF" stroke="none" />
<path id="subpath_5" d="M 1105 2238 c26 -71 45 -104 113 -187 37 -46 35 -50 -12 -22
-51 32 -103 115 -132 210 -16 54 -17 71 -5 71 5 0 21 -33 36 -72z" fill="#FF00FF" stroke="none" />
<path id="subpath_6" d="M 635 1962
c16 -16 51 -37 77 -46 41 -15 48 -22 54 -53 9 -45 -8 -75 -61 -110 -49 -33
-95 -84 -129 -142 -13 -24 -26 -39 -29 -34 -13 22 -18 216 -7 281 10 64 40
132 57 132 4 0 21 -13 38 -28z" fill="#FF0000" stroke="none" />
<path id="subpath_7" d="M 2119 1914 c23 -46 25 -59 24 -196 -1 -81 -4
-152 -8 -158 -5 -8 -18 8 -36 39 -33 61 -83 121 -115 138 -39 22 -65 77 -62
129 3 47 3 48 48 59 25 7 59 19 75 28 17 9 35 15 40 13 6 -1 21 -25 34 -52z" fill="#00FF00" stroke="none" />
<path id="subpath_8" d="M 1850 1894 c6 -14 10 -50 10 -81 0 -50 3 -58 31 -82 119 -100 182 -184 199
-267 6 -29 21 -65 32 -79 19 -25 20 -36 15 -168 -6 -157 -19 -210 -83 -326
-61 -110 -114 -173 -227 -267 -42 -35 -162 -102 -218 -123 -147 -54 -344 -54
-509 -2 -52 17 -103 31 -112 31 -17 0 -90 -26 -153 -54 -139 -63 -139 -63
-149 -48 -3 5 6 49 20 98 50 180 52 195 20 227 -27 27 -116 170 -116 186 0 9
-4 21 -10 27 -17 17 -51 187 -57 284 -5 83 -3 101 14 135 11 22 23 58 26 80
13 85 68 160 200 271 35 30 37 34 37 93 l0 62 203 -7 c193 -6 530 6 697 26
114 13 119 13 130 -16z" fill="#0000FF" stroke="none" />
</g>
</svg>