<?xml version="1.0" standalone="no"?>
<!DOCTYPE svg PUBLIC "-//W3C//DTD SVG 20010904//EN"
 "http://www.w3.org/TR/2001/REC-SVG-20010904/DTD/svg10.dtd">
<svg version="1.0" xmlns="http://www.w3.org/2000/svg"
 width="300.000000pt" height="300.000000pt" viewBox="0 0 300.000000 300.000000"
 preserveAspectRatio="xMidYMid meet">
<metadata>
Created by potrace 1.16, written by Peter Selinger 2001-2019
</metadata>
<g transform="translate(0.000000,300.000000) scale(0.100000,-0.100000)"
fill="#ffffff" stroke="none">
<path id="subpath_0" d="M1448 2446 c-22 -27 -35 -34 -79 -39 -37 -5 -57 -2 -72 8 -47 33
-119 10 -132 -42 -3 -16 -16 -38 -28 -51 -19 -20 -27 -22 -74 -16 -73 9 -96
-7 -112 -79 -15 -68 -33 -85 -96 -89 -47 -3 -51 -5 -61 -38 -9 -27 -9 -42 1
-67 13 -31 12 -34 -24 -79 -21 -25 -51 -71 -66 -102 -15 -32 -35 -73 -45 -92
-53 -103 -89 -305 -79 -442 4 -53 12 -112 18 -130 42 -131 53 -161 82 -214 17
-32 49 -87 71 -121 l40 -62 -22 -73 c-12 -40 -26 -84 -30 -98 -23 -63 -48
-223 -40 -246 14 -36 64 -32 163 15 150 71 192 88 249 106 52 17 61 17 110 3
113 -33 157 -40 261 -45 68 -4 129 -1 165 6 103 22 187 44 197 51 6 4 26 13
45 20 154 58 335 221 421 379 13 24 32 58 41 75 40 72 75 212 84 332 15 205
-64 489 -176 629 -29 37 -31 44 -25 91 10 85 -24 127 -91 110 -40 -10 -64 2
-64 32 0 50 -21 102 -46 119 -22 14 -32 15 -70 5 -41 -11 -47 -10 -74 10 -16
12 -35 36 -41 55 -20 61 -78 80 -132 45 -39 -26 -104 -9 -142 36 -38 46 -89
45 -127 -2z" fill="#FF0000" stroke="none" />
<path id="subpath_1" d="M 1421 2265 c4 -22 9 -72 12 -111 3 -40 13 -86 21 -103 30 -57 95
-50 121 13 13 31 32 152 26 171 -1 5 0 24 4 43 5 27 10 33 28 30 25 -3 27 -25
13 -165 -7 -75 -6 -83 13 -102 49 -49 105 -9 142 102 21 61 25 67 51 67 15 0
28 -4 28 -9 0 -5 -11 -39 -25 -75 -25 -66 -31 -121 -17 -142 4 -6 16 -16 28
-22 17 -9 27 -7 56 13 20 13 46 40 58 60 14 22 28 35 39 33 23 -5 16 -45 -15
-89 -33 -48 -30 -97 7 -118 23 -13 30 -12 73 8 57 28 62 25 113 -67 71 -127
113 -289 113 -437 0 -69 -31 -238 -50 -273 -5 -9 -20 -42 -33 -72 -51 -117
-223 -301 -327 -349 -19 -9 -37 -19 -40 -22 -10 -12 -156 -51 -250 -67 -80
-13 -110 -13 -194 -3 -54 7 -106 16 -115 21 -34 18 -117 43 -146 43 -17 0 -81
-23 -142 -51 -119 -55 -173 -72 -173 -53 0 6 6 28 14 48 8 21 24 75 36 120 26
93 23 140 -10 175 -41 43 -81 108 -111 180 -31 74 -69 251 -69 322 0 106 57
309 115 406 12 19 30 50 40 67 23 37 44 42 69 14 25 -28 64 -35 92 -16 35 23
32 71 -11 148 -41 74 -41 77 -15 77 11 0 20 -5 20 -10 0 -16 89 -108 111 -115
25 -8 58 11 69 39 9 24 -15 129 -39 174 -10 18 -10 26 0 38 14 17 38 18 43 2
3 -7 12 -40 21 -73 18 -63 61 -115 93 -115 53 1 72 58 60 180 -9 91 -4 112 25
108 17 -2 23 -12 28 -43z" fill="#00FF00" stroke="none" />
</g>
</svg>