<?xml version="1.0" standalone="no"?>
<!DOCTYPE svg PUBLIC "-//W3C//DTD SVG 20010904//EN"
 "http://www.w3.org/TR/2001/REC-SVG-20010904/DTD/svg10.dtd">
<svg version="1.0" xmlns="http://www.w3.org/2000/svg"
 width="300.000000pt" height="300.000000pt" viewBox="0 0 300.000000 300.000000"
 preserveAspectRatio="xMidYMid meet">
<metadata>
Created by potrace 1.16, written by Peter Selinger 2001-2019
</metadata>
<g transform="translate(0.000000,300.000000) scale(0.100000,-0.100000)"
fill="#ffffff" stroke="none">
<path id="subpath_0" d="M1502 2734 c-5 -11 -12 -35 -15 -55 -3 -20 -15 -69 -27 -110 l-22
-74 -24 30 c-13 17 -24 33 -24 37 0 18 -74 127 -82 122 -7 -4 -8 -47 -3 -120
4 -67 3 -114 -2 -114 -5 0 -31 25 -57 55 -26 30 -53 55 -61 55 -7 0 -15 6 -18
13 -9 25 -16 -1 -8 -29 16 -48 43 -146 57 -199 7 -27 22 -76 34 -107 24 -61
22 -88 -7 -88 -44 -1 -293 -129 -293 -151 0 -5 -6 -9 -13 -9 -21 0 -139 -128
-189 -205 -66 -103 -97 -169 -124 -270 -49 -176 -42 -385 17 -548 30 -83 85
-189 126 -245 16 -21 23 -42 20 -55 -2 -12 -25 -103 -51 -201 -42 -166 -45
-182 -31 -203 24 -35 54 -31 180 27 158 72 245 103 285 103 19 0 80 -12 135
-27 177 -46 414 -30 568 38 79 35 221 129 285 190 90 85 200 265 242 396 31
95 43 203 37 328 -8 174 -58 323 -161 481 -44 68 -165 196 -201 212 -11 5 -49
28 -85 50 -36 23 -99 55 -140 71 -41 16 -79 33 -84 38 -5 5 -4 23 4 42 7 18
18 47 25 63 42 107 96 303 86 310 -4 2 -38 -25 -74 -60 -97 -94 -102 -91 -93
52 8 138 4 138 -64 9 -24 -48 -49 -85 -55 -83 -10 4 -26 60 -48 169 -14 67
-30 90 -45 62z" fill="#FF0000" stroke="none" />
<path id="subpath_1" d="M 1319 2026 c4 -3 11 -25 14 -48 2 -24 17 -68 31 -100 l27 -56
102 -7 c141 -9 146 -6 179 96 15 46 29 93 30 104 10 59 217 -29 342 -146 152
-142 233 -293 262 -490 15 -104 15 -121 0 -226 -9 -62 -22 -126 -28 -141 -35
-86 -55 -125 -103 -197 -83 -125 -180 -212 -307 -276 -57 -29 -81 -36 -213
-66 -119 -26 -275 -11 -428 42 -27 9 -56 17 -65 18 -21 1 -134 -44 -224 -89
-37 -19 -72 -34 -78 -34 -16 0 -12 20 26 151 21 74 33 132 29 147 -3 13 -26
53 -50 88 -230 337 -197 749 83 1033 84 85 128 116 242 173 68 33 103 40 129
24z" fill="#00FF00" stroke="none" />
</g>
</svg>