<?xml version="1.0" standalone="no"?>
<!DOCTYPE svg PUBLIC "-//W3C//DTD SVG 20010904//EN"
 "http://www.w3.org/TR/2001/REC-SVG-20010904/DTD/svg10.dtd">
<svg version="1.0" xmlns="http://www.w3.org/2000/svg"
 width="300.000000pt" height="300.000000pt" viewBox="0 0 300.000000 300.000000"
 preserveAspectRatio="xMidYMid meet">
<metadata>
Created by potrace 1.16, written by Peter Selinger 2001-2019
</metadata>
<g transform="translate(0.000000,300.000000) scale(0.100000,-0.100000)"
fill="#ffffff" stroke="none">
<path id="subpath_0" d="M1502 2810 c17 -17 29 -33 26 -35 -2 -2 -26 2 -53 10 -90 28 -185 13
-265 -41 -19 -13 -45 -24 -59 -24 -30 0 -87 -34 -128 -77 -28 -29 -37 -33 -70
-28 -70 10 -150 -58 -152 -128 -1 -45 27 -47 63 -3 22 25 41 37 61 39 30 2 30
1 36 -60 7 -78 24 -119 66 -164 40 -42 37 -59 -15 -91 -160 -97 -264 -233
-365 -478 -57 -139 -81 -263 -74 -383 10 -185 53 -311 165 -481 l45 -69 -17
-71 c-10 -39 -22 -82 -28 -96 -6 -14 -14 -43 -18 -65 -4 -22 -15 -69 -25 -104
-14 -52 -15 -68 -5 -87 24 -44 43 -41 220 44 126 60 207 92 237 92 12 0 64
-12 115 -26 362 -99 746 29 973 326 23 30 49 69 57 85 8 17 28 53 43 80 93
169 119 421 65 630 -17 67 -85 219 -133 300 -7 11 -27 44 -45 75 -37 61 -137
162 -210 212 l-47 33 49 7 c81 11 166 109 166 191 0 12 -8 17 -27 17 -22 -1
-34 -10 -55 -45 -35 -57 -122 -114 -103 -67 22 56 37 145 31 186 -6 38 -19 58
-82 128 -41 46 -80 85 -87 87 -55 18 -61 22 -47 31 31 20 92 5 147 -36 21 -15
23 -15 29 0 10 26 -16 74 -53 97 -28 18 -46 21 -112 18 -72 -4 -81 -7 -126
-42 -48 -37 -75 -47 -75 -27 0 6 -10 24 -22 40 -19 27 -28 30 -74 30 l-52 0
30 -30z" fill="#FF0000" stroke="none" />
<path id="subpath_1" d="M 1485 2699 c23 -11 30 -21 30 -44 0 -37 -27 -45 -58 -18 -12 11 -43 28
-69 37 -29 11 -48 24 -48 33 0 13 11 15 58 11 31 -2 71 -11 87 -19z" fill="#00FF00" stroke="none" />
<path id="subpath_2" d="M 1827 2661
c36 -34 42 -141 9 -141 -10 0 -33 67 -41 120 0 3 -3 10 -7 16 -7 11 -1 24 12
24 3 0 16 -9 27 -19z" fill="#0000FF" stroke="none" />
<path id="subpath_3" d="M 1710 2625 c29 -30 34 -43 38 -95 4 -53 1 -65 -22 -100
-14 -22 -34 -40 -44 -40 -9 0 -35 23 -57 51 -22 28 -48 55 -58 61 -25 13 -16
49 26 102 53 69 68 72 117 21z" fill="#FFFF00" stroke="none" />
<path id="subpath_4" d="M 1204 2634 c9 -4 16 -18 16 -33 0 -26 17 -91 35
-133 13 -32 -22 -20 -65 20 -34 33 -40 45 -40 80 0 24 7 47 16 56 18 18 17 18
38 10z" fill="#00FFFF" stroke="none" />
<path id="subpath_5" d="M 1385 2583 c29 -20 68 -60 86 -88 18 -27 56 -74 84 -104 l50 -53 -80 6
c-92 7 -140 32 -179 95 -25 39 -56 130 -56 163 0 29 36 22 95 -19z" fill="#FF00FF" stroke="none" />
<path id="subpath_6" d="M 1099 2467
c40 -44 102 -84 160 -103 51 -16 53 -18 30 -29 -13 -7 -52 -18 -85 -25 -59
-12 -63 -11 -93 11 -54 40 -86 137 -65 194 6 16 8 16 17 -1 5 -11 21 -32 36
-47z" fill="#FF0000" stroke="none" />
<path id="subpath_7" d="M 1948 2461 c3 -46 -1 -58 -30 -96 -18 -24 -43 -48 -56 -54 -29 -14 -82 -14
-102 -1 -16 11 -18 9 64 73 20 16 50 53 67 83 17 30 36 53 43 51 6 -2 12 -27
14 -56z" fill="#00FF00" stroke="none" />
<path id="subpath_8" d="M 1663 2258 c28 -15 22 -29 -33 -69 -98 -72 -278 -129 -407 -129 -70 0
-189 -31 -271 -71 -42 -20 -78 -36 -79 -35 -1 1 13 25 32 53 59 88 225 196
357 232 123 35 350 45 401 19z" fill="#0000FF" stroke="none" />
<path id="subpath_9" d="M 1882 2174 c111 -56 208 -144 277 -252 40 -64 57
-100 49 -108 -6 -5 -170 80 -224 117 -22 15 -57 46 -78 69 -62 68 -115 200
-81 200 3 0 29 -12 57 -26z" fill="#FFFF00" stroke="none" />
<path id="subpath_10" d="M 1792 2015 c43 -82 133 -154 282 -225 49 -24 103
-56 121 -71 121 -107 136 -464 29 -683 -98 -199 -276 -362 -450 -414 -232 -69
-343 -68 -551 3 -82 28 -83 28 -125 11 -24 -10 -50 -22 -58 -27 -33 -19 -104
-49 -141 -61 -22 -6 -39 -15 -39 -20 0 -4 -5 -8 -11 -8 -15 0 -8 42 26 160 43
151 43 148 -7 211 -123 154 -170 289 -170 489 0 136 18 216 69 310 42 78 88
128 166 182 99 68 157 88 316 109 150 20 257 46 324 81 55 28 67 17 21 -19
-82 -65 -148 -91 -319 -127 -148 -32 -242 -68 -272 -105 -16 -19 -17 -81 -1
-81 6 0 26 11 43 24 44 34 135 65 225 77 119 16 260 63 331 112 37 24 83 67
108 101 38 50 46 57 51 40 3 -10 17 -41 32 -69z" fill="#00FFFF" stroke="none" />
</g>
</svg>