<?xml version="1.0" standalone="no"?>
<!DOCTYPE svg PUBLIC "-//W3C//DTD SVG 20010904//EN"
 "http://www.w3.org/TR/2001/REC-SVG-20010904/DTD/svg10.dtd">
<svg version="1.0" xmlns="http://www.w3.org/2000/svg"
 width="300.000000pt" height="300.000000pt" viewBox="0 0 300.000000 300.000000"
 preserveAspectRatio="xMidYMid meet">
<metadata>
Created by potrace 1.16, written by Peter Selinger 2001-2019
</metadata>
<g transform="translate(0.000000,300.000000) scale(0.100000,-0.100000)"
fill="#ffffff" stroke="none">
<path id="subpath_0" d="M1130 2676 c-110 -38 -223 -107 -290 -176 -93 -95 -132 -261 -95
-403 l15 -57 -36 -46 c-71 -94 -85 -145 -85 -302 1 -68 -4 -120 -10 -128 -20
-25 -51 -170 -56 -268 -4 -73 -1 -119 12 -180 28 -131 82 -267 131 -331 13
-17 32 -50 42 -73 l19 -43 -34 -122 c-19 -67 -41 -155 -50 -196 l-16 -75 24
-19 c26 -21 61 -18 114 8 87 43 294 128 323 132 19 3 49 -1 70 -11 164 -70
423 -69 605 3 175 70 364 220 455 361 19 30 43 66 52 80 34 51 79 178 95 269
22 120 16 282 -15 396 -17 64 -22 111 -23 231 l-2 150 -42 85 c-51 102 -69
120 -176 173 -64 31 -93 52 -118 86 -19 24 -57 63 -85 85 -43 35 -63 44 -135
58 -46 9 -142 21 -214 27 -130 10 -171 16 -190 30 -5 4 -26 10 -46 14 -44 8
-121 72 -139 115 -12 30 -10 101 4 134 11 24 -23 22 -104 -7z" fill="#FF0000" stroke="none" />
<path id="subpath_1" d="M 1902 1906 c40
-15 89 -51 108 -81 8 -11 21 -60 31 -109 17 -85 21 -92 71 -144 29 -29 75 -69
101 -89 75 -55 82 -76 81 -228 0 -187 -30 -287 -131 -436 -47 -71 -132 -159
-198 -207 -162 -115 -309 -158 -512 -149 -112 5 -138 9 -205 36 -42 17 -87 31
-100 31 -23 0 -94 -25 -183 -65 -87 -39 -99 -43 -113 -38 -17 7 -14 25 27 164
34 115 33 132 -9 179 -26 30 -85 128 -106 179 -61 143 -67 171 -68 316 l0 140
52 105 c61 121 99 183 160 260 65 81 66 82 122 60 27 -10 81 -22 122 -26 77
-7 156 9 428 85 118 33 256 40 322 17z" fill="#00FF00" stroke="none" />
</g>
</svg>