<?xml version="1.0" standalone="no"?>
<!DOCTYPE svg PUBLIC "-//W3C//DTD SVG 20010904//EN"
 "http://www.w3.org/TR/2001/REC-SVG-20010904/DTD/svg10.dtd">
<svg version="1.0" xmlns="http://www.w3.org/2000/svg"
 width="300.000000pt" height="300.000000pt" viewBox="0 0 300.000000 300.000000"
 preserveAspectRatio="xMidYMid meet">
<metadata>
Created by potrace 1.16, written by Peter Selinger 2001-2019
</metadata>
<g transform="translate(0.000000,300.000000) scale(0.100000,-0.100000)"
fill="#ffffff" stroke="none">
<path id="subpath_0" d="M1357 2509 c-9 -5 -29 -22 -43 -35 -17 -18 -30 -23 -42 -18 -9 4 -33
9 -52 11 -31 4 -40 0 -73 -36 -39 -42 -51 -48 -62 -31 -10 17 -73 11 -120 -11
-36 -17 -49 -30 -67 -71 l-23 -50 -43 5 c-35 4 -48 0 -70 -18 -15 -12 -50 -32
-79 -45 -69 -29 -86 -50 -81 -96 4 -33 1 -38 -33 -59 -20 -13 -47 -36 -59 -52
-19 -24 -21 -36 -16 -82 l7 -54 -48 -42 c-44 -39 -48 -46 -48 -88 0 -34 6 -52
23 -70 l23 -24 -26 -17 c-22 -14 -25 -24 -25 -72 0 -33 6 -64 16 -79 14 -22
14 -26 -2 -49 -24 -38 -15 -114 21 -166 26 -38 27 -43 16 -81 -17 -57 0 -103
50 -135 22 -14 39 -30 37 -37 -6 -33 15 -66 66 -100 42 -28 61 -49 86 -98 17
-34 43 -77 57 -96 24 -31 25 -38 15 -66 -21 -58 -83 -311 -84 -344 -2 -40 17
-63 49 -63 14 0 80 24 147 54 66 29 153 66 193 81 l71 27 69 -20 c115 -34 169
-42 291 -42 209 0 341 42 523 166 125 86 219 195 293 342 19 37 32 52 47 52
33 0 79 53 79 92 0 28 6 36 38 53 53 28 74 75 67 145 -6 50 -4 57 19 79 22 20
26 34 26 77 0 29 -5 65 -12 79 -9 21 -9 31 0 46 7 10 12 45 12 78 0 53 -3 62
-26 79 -25 18 -26 20 -11 43 9 13 19 43 23 66 7 44 -2 58 -69 108 -25 19 -26
22 -15 67 10 43 9 50 -13 83 -13 19 -41 47 -62 61 -34 22 -37 28 -32 58 6 28
2 36 -24 59 -17 14 -47 31 -68 37 -21 7 -48 23 -59 37 -21 25 -67 33 -113 22
-8 -3 -17 7 -21 23 -25 87 -131 145 -200 108 -16 -9 -27 -4 -60 26 -38 34 -43
36 -92 32 -48 -5 -56 -3 -97 28 -47 37 -72 41 -133 22 -29 -9 -41 -9 -50 0
-15 15 -87 15 -111 1z" fill="#FF0000" stroke="none" />
<path id="subpath_1" d="M 1325 1965 c26 -14 77 -34 113 -44 l65 -18 12 -47 c15
-59 29 -73 79 -80 48 -8 63 -19 81 -62 16 -38 39 -52 97 -60 37 -5 45 -3 57
17 10 16 10 24 2 27 -28 9 -55 42 -70 87 -12 35 -27 56 -49 70 -17 11 -31 28
-32 38 0 21 2 21 43 3 47 -19 83 -56 102 -103 15 -38 47 -63 80 -63 8 0 29 -9
48 -20 73 -43 131 -44 93 -1 -9 10 -16 21 -16 26 0 17 -34 45 -55 45 -30 0
-75 37 -75 61 0 32 33 22 106 -34 118 -90 220 -267 258 -446 58 -269 -59 -561
-294 -738 -231 -174 -496 -207 -794 -100 -35 13 -45 13 -95 -5 -31 -11 -98
-40 -150 -64 -51 -25 -96 -43 -98 -40 -6 6 11 85 38 175 29 96 26 140 -15 192
-18 24 -52 82 -74 129 -102 211 -106 394 -15 623 81 201 215 339 418 428 76
34 82 34 140 4z" fill="#00FF00" stroke="none" />
</g>
</svg>