<?xml version="1.0" standalone="no"?>
<!DOCTYPE svg PUBLIC "-//W3C//DTD SVG 20010904//EN"
 "http://www.w3.org/TR/2001/REC-SVG-20010904/DTD/svg10.dtd">
<svg version="1.0" xmlns="http://www.w3.org/2000/svg"
 width="300.000000pt" height="300.000000pt" viewBox="0 0 300.000000 300.000000"
 preserveAspectRatio="xMidYMid meet">
<metadata>
Created by potrace 1.16, written by Peter Selinger 2001-2019
</metadata>
<g transform="translate(0.000000,300.000000) scale(0.100000,-0.100000)"
fill="#ffffff" stroke="none">
<path id="subpath_0" d="M555 2352 c-5 -5 -26 -15 -45 -21 -45 -14 -122 -76 -153 -122 -50
-74 -67 -141 -67 -262 0 -62 5 -128 11 -147 100 -331 105 -487 18 -565 -25
-21 -28 -29 -18 -41 27 -33 153 3 209 61 33 34 54 43 64 27 3 -5 10 -38 16
-74 11 -71 51 -201 77 -251 9 -18 38 -67 65 -109 48 -74 49 -78 38 -115 -25
-79 -63 -245 -76 -330 -12 -76 22 -91 108 -47 28 14 112 50 187 80 128 51 193
65 205 45 14 -23 184 -51 302 -51 200 1 325 36 478 134 31 20 61 36 66 36 6 0
47 37 93 83 156 155 254 339 277 525 6 41 12 77 15 80 2 2 35 -16 73 -41 63
-42 144 -77 176 -77 8 0 19 7 26 15 11 14 7 22 -28 58 -22 23 -46 55 -52 70
-19 52 -15 157 10 247 12 47 26 101 30 120 4 19 17 71 29 114 50 188 8 375
-107 476 -49 43 -159 90 -212 90 -84 0 -182 -54 -249 -136 -24 -30 -47 -54
-53 -54 -5 0 -37 19 -71 42 -60 41 -205 108 -233 108 -8 0 -22 4 -32 9 -36 20
-229 31 -340 20 -59 -6 -116 -14 -127 -18 -11 -5 -45 -16 -75 -26 -67 -22
-190 -87 -215 -115 -10 -11 -24 -20 -31 -20 -7 0 -40 29 -75 64 -79 82 -151
119 -239 124 -36 2 -69 -1 -75 -6z" fill="#FF0000" stroke="none" />
<path id="subpath_1" d="M 730 2247 c55 -27 60 -41 20 -57 -18 -7
-50 -38 -72 -68 -38 -51 -40 -58 -36 -108 3 -35 13 -66 31 -93 15 -22 27 -52
27 -65 0 -14 -18 -66 -40 -117 -22 -51 -47 -124 -55 -163 -28 -133 -33 -145
-70 -190 -55 -68 -65 -62 -65 38 0 91 -14 159 -62 301 -40 118 -50 270 -23
343 50 133 160 220 260 207 22 -3 60 -16 85 -28z" fill="#00FF00" stroke="none" />
<path id="subpath_2" d="M 1457 2226 c-11 -104 -111
-239 -237 -319 -144 -91 -265 -131 -377 -125 -55 3 -58 4 -55 28 11 91 138
250 269 337 69 45 203 98 303 118 107 22 104 23 97 -39z" fill="#0000FF" stroke="none" />
<path id="subpath_3" d="M 1709 2249 c40 -10 79
-23 85 -28 6 -4 28 -14 48 -20 113 -37 280 -189 341 -312 20 -41 37 -84 37
-95 0 -18 -6 -20 -67 -17 -113 6 -145 16 -317 99 -145 69 -268 223 -291 360
l-6 42 48 -5 c26 -3 81 -14 122 -24z" fill="#FFFF00" stroke="none" />
<path id="subpath_4" d="M 2437 2258 c76 -28 142 -96 171 -174 28 -80
36 -150 22 -204 -6 -25 -17 -70 -23 -100 -7 -30 -16 -61 -21 -69 -5 -8 -13
-31 -17 -50 -31 -142 -39 -194 -39 -253 0 -48 -4 -68 -12 -67 -22 1 -87 88
-96 127 -37 157 -49 197 -82 269 -56 120 -58 136 -22 177 34 38 44 73 38 129
-4 49 -56 121 -101 143 -39 18 -42 26 -21 44 19 15 106 49 128 50 10 0 43 -10
75 -22z" fill="#00FFFF" stroke="none" />
<path id="subpath_5" d="M 862 2118 c7 -19 -91 -138 -112 -138 -26 0 -34 44 -15 81 27 51 116
91 127 57z" fill="#FF00FF" stroke="none" />
<path id="subpath_6" d="M 2210 2113 c46 -31 60 -54 60 -100 0 -28 -4 -43 -12 -42 -17 0 -120
138 -113 150 9 14 38 11 65 -8z" fill="#FF0000" stroke="none" />
<path id="subpath_7" d="M 1549 2026 c65 -104 143 -172 271 -236 114 -57
179 -75 350 -95 30 -4 56 -8 58 -10 2 -2 14 -34 27 -72 66 -189 55 -423 -29
-596 -37 -77 -130 -202 -188 -253 -62 -54 -161 -121 -219 -148 -116 -53 -275
-76 -404 -59 -77 10 -237 51 -264 67 -11 7 -122 -32 -142 -50 -8 -8 -22 -14
-30 -14 -8 0 -19 -4 -25 -9 -8 -7 -100 -41 -112 -41 -5 0 2 41 16 90 61 214
61 204 -3 280 -51 60 -108 185 -135 294 -18 74 -21 109 -18 210 4 103 9 134
36 210 17 49 34 91 36 94 3 3 48 9 101 13 107 9 127 14 245 61 144 58 260 149
340 266 19 28 40 52 45 52 6 0 25 -24 44 -54z" fill="#00FF00" stroke="none" />
</g>
</svg>