<?xml version="1.0" standalone="no"?>
<!DOCTYPE svg PUBLIC "-//W3C//DTD SVG 20010904//EN"
 "http://www.w3.org/TR/2001/REC-SVG-20010904/DTD/svg10.dtd">
<svg version="1.0" xmlns="http://www.w3.org/2000/svg"
 width="300.000000pt" height="300.000000pt" viewBox="0 0 300.000000 300.000000"
 preserveAspectRatio="xMidYMid meet">
<metadata>
Created by potrace 1.16, written by Peter Selinger 2001-2019
</metadata>
<g transform="translate(0.000000,300.000000) scale(0.100000,-0.100000)"
fill="#ffffff" stroke="none">
<path id="subpath_0" d="M670 2583 c0 -127 14 -204 56 -298 32 -74 34 -85 18 -85 -19 0 -81
35 -168 94 -37 25 -71 46 -76 46 -32 0 -7 -103 55 -228 25 -49 45 -97 45 -106
0 -13 -13 -16 -76 -16 -74 0 -75 -1 -69 -22 4 -13 15 -32 25 -43 30 -35 90
-139 100 -175 15 -51 12 -185 -5 -265 -49 -233 13 -502 164 -714 l24 -33 -17
-77 c-10 -42 -21 -87 -26 -101 -11 -34 -27 -94 -41 -157 -16 -66 -3 -103 37
-103 14 0 83 23 153 51 271 110 271 110 305 94 162 -74 493 -71 668 7 168 75
309 194 412 348 88 131 144 274 161 415 8 63 -9 251 -30 330 -17 63 -14 229 5
325 5 25 19 97 30 160 12 63 30 130 41 148 19 33 26 102 10 102 -14 0 -80 -48
-128 -93 -67 -63 -65 -65 -97 78 -18 80 -117 282 -157 321 l-26 25 1 -135 c1
-74 -2 -138 -7 -142 -4 -4 -15 2 -23 15 -48 67 -144 167 -207 213 -110 81
-209 139 -244 145 l-31 5 24 -73 c13 -40 27 -88 30 -106 l6 -34 -53 24 c-30
13 -97 43 -149 67 -52 23 -121 60 -152 81 -52 35 -64 39 -119 39 l-62 0 6 -48
c3 -27 19 -90 36 -142 17 -51 29 -95 27 -97 -9 -9 -155 62 -231 112 -44 30
-107 81 -140 114 -38 39 -67 61 -82 61 -23 0 -23 -1 -23 -127z" fill="#FF0000" stroke="none" />
<path id="subpath_1" d="M 1249 2585 c42 -24
108 -58 147 -73 116 -49 158 -69 213 -106 77 -52 85 -50 77 27 -3 34 -9 79
-12 100 -5 27 -3 37 7 37 21 -1 85 -52 168 -133 83 -82 123 -136 164 -221 27
-58 28 -59 48 -40 12 10 34 48 50 84 23 50 32 61 39 50 18 -28 39 -116 49
-200 10 -90 18 -120 31 -120 4 0 31 21 59 46 29 26 54 44 57 42 2 -3 -2 -34
-10 -69 -8 -35 -20 -108 -27 -161 -6 -54 -13 -98 -16 -98 -7 0 -53 53 -53 61
0 5 -9 9 -19 9 -15 0 -21 -12 -30 -63 -6 -35 -11 -69 -11 -75 0 -6 -5 -23 -11
-39 -11 -27 -12 -25 -34 52 -31 111 -85 245 -100 245 -6 0 -24 -27 -40 -60
-26 -55 -79 -120 -89 -109 -2 2 -9 47 -15 99 -6 52 -19 116 -27 142 -17 52
-28 53 -69 8 -11 -13 -63 -57 -115 -98 -52 -42 -120 -100 -152 -129 -32 -29
-62 -53 -67 -53 -10 0 -1 32 55 189 35 97 40 121 25 121 -12 0 -71 -32 -89
-47 -7 -7 -18 -13 -23 -13 -10 0 -206 -126 -225 -145 -21 -20 -124 -88 -128
-84 -6 5 18 116 33 152 14 35 14 77 1 77 -19 0 -110 -92 -156 -159 -53 -76
-92 -156 -109 -226 -24 -103 -51 -44 -70 158 -6 63 -9 68 -28 65 -13 -2 -29
-17 -39 -37 -9 -19 -21 -38 -26 -43 -11 -11 -34 23 -52 77 -7 22 -19 49 -26
60 -8 11 -14 22 -14 25 0 4 27 4 60 2 80 -6 84 7 32 106 -47 92 -61 142 -38
142 8 0 18 -4 21 -10 8 -13 160 -60 196 -60 37 0 37 13 -2 92 -85 173 -132
321 -115 365 6 14 11 12 39 -13 79 -73 190 -134 362 -199 39 -15 88 -33 109
-41 65 -25 65 -8 -4 133 -34 70 -66 137 -70 148 -15 37 -19 55 -14 55 3 0 40
-20 83 -45z" fill="#00FF00" stroke="none" />
<path id="subpath_2" d="M 1821 1873 c0 -27 2 -97 4 -158 4 -116 1 -125 -44 -125 -32 0 -101
-57 -118 -98 -12 -30 -12 -37 2 -58 10 -16 25 -24 45 -24 24 0 35 8 55 41 21
33 31 40 53 37 18 -2 31 -13 42 -33 18 -37 29 -45 57 -45 29 0 57 42 49 74 -8
33 -52 83 -87 102 -16 8 -29 20 -29 28 0 7 22 27 49 44 27 18 65 50 86 73 20
23 40 37 44 33 13 -15 49 -143 72 -257 17 -83 25 -107 37 -105 18 4 56 75 75
143 l14 50 25 -55 c14 -30 29 -82 33 -115 29 -221 -33 -442 -172 -613 -153
-190 -342 -286 -586 -299 -109 -6 -161 2 -307 48 l-95 31 -55 -21 c-30 -12
-63 -25 -72 -31 -29 -17 -141 -60 -155 -60 -18 0 -17 16 12 106 14 43 28 102
31 130 6 49 4 55 -31 100 -93 122 -165 330 -165 476 0 103 16 222 35 258 l13
25 11 -28 c6 -16 11 -36 11 -45 1 -23 37 -102 57 -124 34 -38 49 -19 78 102
29 118 34 137 55 184 36 85 45 83 41 -11 -3 -85 4 -101 31 -65 47 63 364 303
398 301 10 0 11 -2 3 -6 -7 -2 -22 -35 -34 -71 -25 -79 -36 -262 -16 -262 7 0
35 24 62 53 47 49 68 68 161 143 22 18 75 64 119 102 44 39 86 71 93 71 8 1
12 -15 13 -46z" fill="#0000FF" stroke="none" />
</g>
</svg>