<?xml version="1.0" standalone="no"?>
<!DOCTYPE svg PUBLIC "-//W3C//DTD SVG 20010904//EN"
 "http://www.w3.org/TR/2001/REC-SVG-20010904/DTD/svg10.dtd">
<svg version="1.0" xmlns="http://www.w3.org/2000/svg"
 width="300.000000pt" height="300.000000pt" viewBox="0 0 300.000000 300.000000"
 preserveAspectRatio="xMidYMid meet">
<metadata>
Created by potrace 1.16, written by Peter Selinger 2001-2019
</metadata>
<g transform="translate(0.000000,300.000000) scale(0.100000,-0.100000)"
fill="#ffffff" stroke="none">
<path id="subpath_0" d="M1440 2593 c-75 -11 -221 -48 -257 -64 -24 -11 -53 -23 -66 -28 -13
-5 -52 -31 -88 -58 -35 -27 -85 -62 -111 -77 -47 -28 -48 -28 -48 -6 0 40 -34
17 -64 -43 -36 -73 -44 -140 -22 -202 16 -49 14 -65 -8 -65 -25 0 -93 -58
-124 -106 -30 -45 -32 -53 -32 -139 0 -51 4 -115 9 -142 8 -42 6 -64 -15 -139
-34 -120 -43 -312 -20 -438 17 -96 46 -167 133 -319 39 -69 54 -104 49 -120
-3 -12 -17 -65 -31 -117 -39 -143 -57 -240 -51 -266 6 -21 13 -24 49 -24 23 0
56 7 72 16 17 9 50 24 75 34 64 26 180 78 212 95 36 21 60 19 142 -9 98 -34
222 -49 331 -41 91 6 244 39 255 53 3 5 21 14 40 22 255 100 480 364 540 635
28 129 28 323 -1 431 -16 57 -21 101 -19 159 7 174 4 207 -24 275 -42 99 -42
98 -12 93 23 -5 26 -2 26 23 0 34 -49 138 -82 175 -29 33 -95 81 -131 97 -26
11 -28 16 -23 50 6 36 5 38 -41 69 -67 43 -88 54 -152 70 -105 28 -218 38
-290 25 -36 -6 -67 -9 -70 -6 -2 2 6 15 19 29 12 13 20 30 17 38 -9 23 -103
33 -187 20z" fill="#FF0000" stroke="none" />
<path id="subpath_1" d="M 1470 2500 c0 -5 -6 -13 -14 -17 -23 -13 -83 -134 -100 -199 -21 -83
-20 -149 4 -226 11 -34 20 -69 20 -75 0 -47 -100 53 -124 123 -9 27 -20 85
-23 130 -5 73 -3 86 21 140 30 67 70 100 144 120 58 16 72 17 72 4z" fill="#00FF00" stroke="none" />
<path id="subpath_2" d="M 1190 2426
c0 -7 -7 -30 -15 -50 -9 -21 -18 -72 -21 -114 -6 -69 -3 -86 25 -166 17 -49
31 -91 31 -93 0 -1 -10 -3 -23 -3 -38 0 -104 56 -131 113 -65 132 -31 238 98
314 28 16 36 16 36 -1z" fill="#0000FF" stroke="none" />
<path id="subpath_3" d="M 1830 2430 c0 -6 -23 -21 -51 -34 -71 -33 -142 -97 -178
-158 -38 -67 -81 -199 -81 -249 0 -39 -15 -58 -31 -42 -17 17 -58 147 -65 205
-9 76 3 161 25 184 72 74 151 103 284 103 61 1 97 -3 97 -9z" fill="#FFFF00" stroke="none" />
<path id="subpath_4" d="M 2038 2344 c36 -25
27 -42 -25 -50 -105 -15 -209 -89 -287 -204 -42 -62 -103 -130 -117 -130 -16
0 -10 68 12 127 62 168 189 273 329 273 43 0 73 -5 88 -16z" fill="#00FFFF" stroke="none" />
<path id="subpath_5" d="M 930 2237 c0
-63 10 -92 65 -184 11 -17 16 -35 13 -39 -15 -14 -70 20 -103 63 -38 50 -50
89 -41 138 7 34 40 85 57 85 5 0 9 -28 9 -63z" fill="#FF00FF" stroke="none" />
<path id="subpath_6" d="M 2117 2219 c32 -9 59 -26 95 -62
52 -52 51 -67 -4 -48 -74 26 -142 12 -289 -58 -73 -36 -139 -52 -139 -36 0 4
7 20 16 38 34 66 153 151 239 170 33 8 34 7 82 -4z" fill="#FF0000" stroke="none" />
<path id="subpath_7" d="M 2164 2036 c34 -14 88 -82
120 -151 15 -31 19 -67 21 -158 1 -65 -2 -116 -6 -115 -3 2 -34 29 -68 60 -54
50 -61 61 -61 95 0 84 -40 154 -122 213 -33 24 -36 29 -22 41 12 10 50 21 97
28 4 0 22 -5 41 -13z" fill="#00FF00" stroke="none" />
<path id="subpath_8" d="M 894 1957 c8 -12 7 -22 -2 -34 -26 -36 -42 -83 -42
-122 0 -33 -8 -48 -44 -88 -24 -26 -55 -61 -68 -78 l-26 -29 -7 74 c-20 189
-5 233 97 292 33 18 75 12 92 -15z" fill="#0000FF" stroke="none" />
<path id="subpath_9" d="M 1350 1887 c58 -20 119 -41 135 -47 27 -11
38 -9 95 18 93 44 162 62 262 69 92 6 159 -9 202 -46 30 -26 57 -88 50 -116
-9 -38 18 -94 78 -155 30 -32 69 -87 91 -131 l38 -76 0 -129 c0 -139 -16 -223
-65 -342 -70 -174 -258 -349 -456 -427 -148 -58 -358 -60 -521 -5 -110 38
-119 37 -287 -36 -56 -25 -107 -42 -112 -39 -13 8 -13 40 -1 63 11 20 51 185
51 209 0 9 -23 52 -51 96 -156 242 -200 486 -122 672 19 44 72 124 114 170 59
65 79 105 79 160 0 38 6 60 22 80 37 47 71 56 188 51 86 -3 124 -11 210 -39z" fill="#FFFF00" stroke="none" />
</g>
</svg>