<?xml version="1.0" standalone="no"?>
<!DOCTYPE svg PUBLIC "-//W3C//DTD SVG 20010904//EN"
 "http://www.w3.org/TR/2001/REC-SVG-20010904/DTD/svg10.dtd">
<svg version="1.0" xmlns="http://www.w3.org/2000/svg"
 width="300.000000pt" height="300.000000pt" viewBox="0 0 300.000000 300.000000"
 preserveAspectRatio="xMidYMid meet">
<metadata>
Created by potrace 1.16, written by Peter Selinger 2001-2019
</metadata>
<g transform="translate(0.000000,300.000000) scale(0.100000,-0.100000)"
fill="#ffffff" stroke="none">
<path id="subpath_0" d="M1324 2749 c-90 -34 -167 -116 -183 -194 -5 -22 -20 -37 -63 -62 -99
-58 -177 -166 -178 -244 0 -25 -14 -59 -45 -110 -42 -69 -75 -165 -75 -215 0
-13 -6 -29 -13 -36 -79 -83 -125 -184 -133 -296 -3 -42 -15 -106 -25 -141 -14
-46 -19 -94 -19 -177 0 -192 50 -353 166 -534 39 -61 40 -49 -6 -215 -66 -242
-64 -232 -46 -260 9 -14 26 -25 38 -25 23 0 218 77 340 134 76 36 77 36 120
20 287 -106 558 -78 801 84 159 107 245 199 331 355 96 174 131 410 90 602 -8
39 -19 108 -24 154 -12 97 -36 156 -109 264 -39 59 -51 85 -51 115 0 62 -28
140 -66 181 -22 26 -34 48 -34 68 0 92 -73 207 -174 271 -41 26 -58 46 -85 99
-40 81 -77 117 -156 154 -58 28 -66 29 -205 28 -120 0 -154 -4 -196 -20z" fill="#FF0000" stroke="none" />
<path id="subpath_1" d="M 1662 2681 c48 -21 147 -106 136 -117 -4 -4 -43 1 -85 11 -105 25 -260 25 -380 0 -51
-10 -96 -16 -99 -12 -8 8 24 47 38 47 5 0 20 13 33 28 13 16 43 34 67 41 24 8
54 17 68 22 38 13 174 1 222 -20z" fill="#00FF00" stroke="none" />
<path id="subpath_2" d="M 1625 2509 c98 -12 231 -53 300 -93 65 -39
142 -136 107 -136 -5 0 -35 14 -67 30 -32 17 -68 30 -80 30 -11 0 -25 4 -30 9
-25 23 -140 35 -335 35 -231 0 -287 -9 -433 -68 -48 -20 -90 -36 -93 -36 -18
0 4 39 44 79 73 73 174 116 347 146 92 16 132 17 240 4z" fill="#0000FF" stroke="none" />
<path id="subpath_3" d="M 1685 2299 c93 -12 229
-51 255 -73 8 -8 31 -21 50 -30 60 -28 186 -164 168 -182 -7 -6 -88 25 -108
41 -33 28 -120 64 -212 89 -281 76 -606 46 -845 -79 -59 -31 -109 -52 -111
-46 -5 16 53 95 97 133 50 42 174 105 243 122 159 41 279 48 463 25z" fill="#FFFF00" stroke="none" />
<path id="subpath_4" d="M 1802 2071 c83 -23 219 -85 283 -129 52 -35 175 -163 175 -181 0 -8 7 -23 16 -32 16
-18 29 -64 41 -146 4 -34 2 -43 -9 -43 -14 0 -98 110 -98 129 0 5 -28 39 -63
75 -45 47 -80 73 -128 94 -112 51 -195 51 -399 3 -81 -19 -90 -19 -180 -5 -52
8 -101 21 -109 27 -9 8 -53 12 -125 12 -107 -1 -114 -2 -186 -38 -101 -49
-175 -122 -259 -254 -18 -29 -38 -53 -43 -53 -7 0 -9 22 -5 60 6 72 57 185
111 247 45 52 143 122 227 163 35 17 71 35 79 39 14 7 88 26 200 50 25 6 124
8 220 7 140 -3 191 -8 252 -25z" fill="#00FFFF" stroke="none" />
<path id="subpath_5" d="M 1315 1782 c21 -12 187 -42 232 -42 24 0 47 6
187 46 129 37 261 0 357 -103 43 -46 148 -192 197 -273 49 -82 34 -303 -30
-459 -79 -190 -292 -388 -485 -451 -170 -55 -343 -55 -505 0 -50 16 -98 30
-108 30 -10 0 -78 -24 -152 -54 -131 -53 -165 -59 -154 -27 6 19 40 137 59
207 16 58 16 59 -65 177 -76 109 -124 238 -134 358 -11 126 1 182 50 242 23
29 72 98 109 154 77 116 107 144 192 185 55 26 68 28 145 25 47 -3 95 -9 105
-15z" fill="#FF00FF" stroke="none" />
</g>
</svg>