<?xml version="1.0" standalone="no"?>
<!DOCTYPE svg PUBLIC "-//W3C//DTD SVG 20010904//EN"
 "http://www.w3.org/TR/2001/REC-SVG-20010904/DTD/svg10.dtd">
<svg version="1.0" xmlns="http://www.w3.org/2000/svg"
 width="300.000000pt" height="300.000000pt" viewBox="0 0 300.000000 300.000000"
 preserveAspectRatio="xMidYMid meet">
<metadata>
Created by potrace 1.16, written by Peter Selinger 2001-2019
</metadata>
<g transform="translate(0.000000,300.000000) scale(0.100000,-0.100000)"
fill="#ffffff" stroke="none">
<path id="subpath_0" d="M1586 2695 c-17 -7 -46 -32 -67 -56 l-37 -44 -22 38 c-28 47 -65 67
-128 67 -63 0 -107 -29 -147 -98 -16 -28 -35 -52 -41 -52 -6 0 -17 13 -24 30
-12 28 -11 45 5 98 6 19 4 22 -17 22 -48 0 -87 -61 -74 -115 6 -23 4 -25 -29
-25 -54 0 -99 -24 -124 -64 -22 -35 -24 -36 -84 -36 -70 -1 -93 -11 -133 -59
-23 -27 -28 -43 -28 -90 l-1 -56 -35 -3 c-62 -6 -100 -59 -92 -130 3 -29 11
-48 27 -60 l23 -17 -42 -49 c-22 -27 -46 -68 -52 -90 l-11 -41 -12 28 c-6 16
-11 46 -11 68 0 25 -5 39 -13 39 -28 0 -37 -25 -37 -100 0 -85 12 -109 68
-133 l31 -13 -31 -34 c-44 -50 -55 -70 -62 -112 -8 -43 1 -63 51 -125 33 -40
34 -43 19 -65 -9 -13 -16 -43 -16 -70 0 -39 6 -54 31 -83 67 -76 97 -70 66 15
l-22 60 23 22 c23 23 23 23 38 4 8 -12 14 -43 14 -77 0 -111 63 -280 157 -421
l45 -67 -17 -73 c-9 -40 -23 -93 -30 -118 -24 -82 -45 -178 -45 -208 0 -16 8
-36 18 -45 24 -22 63 -11 201 57 144 70 208 96 242 96 16 0 68 -12 116 -26
101 -30 317 -45 381 -26 20 5 62 16 92 22 159 35 325 132 440 257 57 63 117
150 164 242 28 53 95 254 89 264 -8 13 18 137 29 137 21 0 48 -22 48 -39 0 -9
-11 -27 -25 -39 -33 -29 -33 -62 -1 -62 43 0 72 17 95 56 28 47 22 91 -19 138
-29 33 -39 66 -21 66 5 0 23 12 40 26 31 25 31 27 31 120 0 83 -2 94 -20 104
-17 9 -20 21 -20 71 0 33 -7 73 -14 88 -17 33 -76 86 -104 95 -20 7 -36 42
-26 58 8 12 62 10 70 -4 4 -6 10 -25 13 -42 10 -44 38 -46 56 -3 28 68 -9 128
-92 149 -57 14 -58 14 -63 53 -6 49 -33 91 -71 111 -36 18 -60 18 -126 -3 -65
-21 -83 -11 -59 35 18 35 33 42 92 42 24 0 44 4 44 8 0 17 -42 52 -63 53 -43
2 -82 -2 -116 -13 -26 -8 -35 -7 -42 3 -14 22 -10 56 7 63 21 8 -79 92 -120
100 -36 8 -96 -8 -128 -34 l-25 -19 -17 37 c-27 59 -52 83 -102 98 -56 17 -70
17 -108 -1z" fill="#FF0000" stroke="none" />
<path id="subpath_1" d="M 1345 2609 c9 -14 -21 -46 -56 -58 -42 -14 -47 4 -10 40 32 30 55
37 66 18z" fill="#00FF00" stroke="none" />
<path id="subpath_2" d="M 1711 2574 c17 -33 4 -42 -24 -17 -12 11 -32 24 -44 28 -27 8 -30 22
-5 27 26 6 58 -11 73 -38z" fill="#0000FF" stroke="none" />
<path id="subpath_3" d="M 1960 2500 c0 -5 -4 -10 -10 -10 -5 0 -10 5 -10 10 0
6 5 10 10 10 6 0 10 -4 10 -10z" fill="#FFFF00" stroke="none" />
<path id="subpath_4" d="M 830 2366 c0 -18 -20 -33 -50 -38 -19 -2
-26 -10 -28 -31 -4 -37 -26 -29 -30 11 -4 42 27 72 73 72 23 0 35 -5 35 -14z" fill="#00FFFF" stroke="none" />
<path id="subpath_5" d="M 2343 2208 c8 -29 2 -34 -28 -20 -32 15 -33 42 -1 42 16 0 26 -7 29 -22z" fill="#FF00FF" stroke="none" />
<path id="subpath_6" d="M 650 2151 c0 -12 -46 -41 -54 -34 -3 4 -6 15 -6 25 0 13 8 18 30 18 17 0 30
-4 30 -9z" fill="#FF0000" stroke="none" />
<path id="subpath_7" d="M 1549 2098 c45 -26 61 -46 61 -73 0 -37 41 -71 94 -79 41 -7 53 -4 87
18 48 32 54 32 75 0 16 -23 16 -28 1 -60 -18 -37 -50 -45 -87 -22 -31 20 -46
-2 -30 -42 16 -39 37 -50 97 -50 42 0 55 5 86 34 24 22 37 43 37 59 0 27 21
49 27 30 7 -20 50 -65 74 -77 21 -10 25 -20 29 -85 4 -59 9 -76 24 -85 11 -6
35 -25 55 -42 l35 -32 -37 -53 c-41 -60 -47 -101 -22 -149 8 -16 24 -34 34
-40 28 -14 118 -13 125 3 7 15 2 -41 -13 -142 -6 -41 -15 -79 -21 -85 -5 -5
-10 -18 -10 -28 0 -62 -168 -287 -276 -370 -67 -51 -141 -88 -229 -113 -33 -9
-71 -21 -84 -26 -13 -6 -67 -13 -120 -16 -105 -6 -184 7 -320 54 -81 28 -90
27 -186 -17 -145 -67 -195 -88 -196 -82 -4 21 5 66 27 137 13 44 27 101 30
128 6 45 5 50 -38 105 -104 133 -155 266 -160 417 -3 65 -2 70 17 67 87 -15
84 -15 120 21 24 24 35 44 35 64 0 32 -25 84 -46 96 -23 13 -16 34 20 55 57
34 69 61 57 128 -11 55 -10 57 19 90 16 19 33 46 36 60 5 20 12 24 32 22 14
-2 30 -11 36 -20 9 -15 5 -23 -23 -48 -39 -36 -36 -60 9 -60 95 0 139 91 88
182 l-23 40 23 19 c13 10 39 21 59 25 40 7 47 1 63 -59 11 -38 16 -41 103 -76
23 -9 28 -16 25 -39 -3 -25 -6 -27 -40 -24 -42 3 -49 -10 -21 -40 26 -29 98
-25 128 8 55 59 37 134 -41 178 -22 12 -39 28 -39 36 0 8 19 25 43 38 23 13
42 28 42 33 0 17 73 9 109 -13z" fill="#00FF00" stroke="none" />
<path id="subpath_8" d="M 1780 2075 c20 -24 4 -45 -35 -45 -36 0 -42 10
-29 44 8 20 48 21 64 1z" fill="#0000FF" stroke="none" />
<path id="subpath_9" d="M 2567 1633 c-3 -10 -5 -4 -5 12 0 17 2 24 5 18 2 -7 2
-21 0 -30z" fill="#FFFF00" stroke="none" />
<path id="subpath_10" d="M 770 1490 c13 -25 5 -40 -21 -40 -21 0 -22 3 -13 38 8 27 20 28
34 2z" fill="#00FFFF" stroke="none" />
<path id="subpath_11" d="M 2294 1471 c26 -29 17 -55 -21 -59 -24 -2 -33 1 -38 17 -7 24 10 61 29
61 7 0 21 -9 30 -19z" fill="#FF00FF" stroke="none" />
</g>
</svg>