<?xml version="1.0" standalone="no"?>
<!DOCTYPE svg PUBLIC "-//W3C//DTD SVG 20010904//EN"
 "http://www.w3.org/TR/2001/REC-SVG-20010904/DTD/svg10.dtd">
<svg version="1.0" xmlns="http://www.w3.org/2000/svg"
 width="300.000000pt" height="300.000000pt" viewBox="0 0 300.000000 300.000000"
 preserveAspectRatio="xMidYMid meet">
<metadata>
Created by potrace 1.16, written by Peter Selinger 2001-2019
</metadata>
<g transform="translate(0.000000,300.000000) scale(0.100000,-0.100000)"
fill="#ffffff" stroke="none">
<path id="subpath_0" d="M1311 2486 c-31 -32 -34 -33 -77 -24 -62 14 -90 4 -141 -48 -34 -34
-51 -44 -76 -44 -45 0 -90 -31 -111 -75 -13 -26 -30 -42 -61 -56 -54 -24 -57
-28 -90 -129 -15 -47 -34 -98 -42 -114 -8 -16 -21 -65 -28 -110 -7 -45 -27
-111 -43 -147 -58 -128 -72 -220 -87 -539 -4 -74 -15 -174 -25 -221 -18 -82
-67 -200 -90 -214 -5 -3 -10 -41 -10 -83 l0 -77 61 3 c34 2 66 -1 72 -7 15
-15 -37 -86 -91 -123 -32 -22 -42 -35 -40 -51 3 -19 11 -22 58 -25 30 -2 85 2
123 9 37 7 70 9 74 6 3 -4 6 -24 7 -44 l1 -38 47 -3 c43 -3 67 6 232 88 l183
91 39 -15 c151 -59 351 -73 515 -37 46 10 93 23 104 29 11 5 51 25 89 42 79
37 91 35 120 -26 23 -49 56 -89 113 -137 40 -33 51 -37 99 -37 52 0 54 1 54
28 0 15 -4 43 -10 61 -5 19 -9 36 -7 37 1 1 40 -11 87 -27 64 -22 100 -28 145
-27 56 3 60 5 63 28 2 19 -7 34 -40 61 -24 20 -54 55 -67 79 l-24 43 67 -7 66
-8 0 85 c0 63 -4 88 -15 97 -8 7 -20 31 -27 54 -6 22 -15 46 -19 51 -9 12 -35
123 -44 185 -3 25 -10 137 -15 250 -10 227 -26 322 -71 420 -17 36 -36 99 -44
142 -7 42 -24 102 -38 135 -14 32 -36 85 -48 118 -28 74 -39 88 -88 110 -28
12 -43 27 -54 55 -17 43 -75 80 -127 80 -21 0 -38 9 -57 31 -40 45 -83 61
-143 53 -46 -6 -52 -4 -85 25 -44 39 -109 43 -161 10 l-34 -21 -26 21 c-19 15
-41 21 -78 21 -46 0 -56 -4 -85 -34z" fill="#FF0000" stroke="none" />
<path id="subpath_1" d="M 1461 2399 c31 -37 38 -40 57 -30 11 6 27
23 34 39 19 39 68 43 97 6 11 -15 21 -33 21 -40 0 -7 9 -18 20 -24 17 -9 28
-7 53 9 63 38 103 32 118 -18 15 -50 53 -70 98 -51 42 17 68 0 78 -52 9 -43
10 -44 93 -82 17 -8 26 -21 28 -41 2 -16 12 -41 22 -56 40 -56 78 -185 82
-277 1 -23 -1 -45 -4 -48 -10 -9 -84 43 -106 73 -10 15 -21 51 -24 79 -6 62
-52 133 -102 157 -66 31 -112 30 -276 -5 -202 -43 -328 -45 -470 -6 -122 34
-180 42 -234 34 -95 -15 -166 -96 -166 -190 0 -61 -6 -72 -56 -106 -69 -48
-78 -43 -70 38 9 80 44 207 69 242 9 13 17 36 17 50 0 40 25 67 69 75 47 8 56
17 65 68 9 51 40 66 97 47 39 -13 42 -13 60 9 11 13 19 34 19 47 0 43 60 53
102 17 22 -20 69 -13 82 12 32 59 37 65 64 65 19 0 37 -11 63 -41z" fill="#00FF00" stroke="none" />
<path id="subpath_2" d="M 1207 1965
c58 -17 128 -31 226 -45 55 -8 92 -6 195 10 70 11 152 27 182 35 74 20 155 19
191 -2 32 -19 49 -63 49 -125 0 -51 48 -109 117 -143 88 -43 116 -95 134 -251
14 -120 4 -209 -37 -334 -38 -114 -59 -155 -128 -246 -78 -105 -257 -231 -371
-262 -212 -58 -337 -57 -510 6 -38 13 -83 25 -100 25 -16 0 -85 -25 -153 -56
-68 -32 -130 -57 -138 -57 -20 0 -18 12 16 145 17 64 30 124 30 134 0 10 -18
44 -40 75 -127 181 -183 380 -161 569 6 53 19 121 29 149 16 50 21 55 94 96
101 56 129 92 137 179 10 90 35 113 125 113 34 0 85 -7 113 -15z" fill="#0000FF" stroke="none" />
<path id="subpath_3" d="M 2444 820
c15 -36 38 -82 51 -102 14 -21 22 -38 19 -38 -11 0 -108 54 -142 79 -28 20
-35 22 -43 10 -5 -8 -9 -19 -9 -26 0 -35 26 -125 51 -175 16 -32 29 -60 29
-63 0 -15 -50 11 -109 57 -77 58 -82 55 -89 -59 -3 -40 -8 -73 -11 -73 -14 0
-80 77 -100 117 -33 67 -29 79 57 159 86 80 164 185 208 281 l28 62 17 -82 c9
-45 28 -111 43 -147z" fill="#FFFF00" stroke="none" />
<path id="subpath_4" d="M 672 965 c11 -22 41 -71 65 -108 51 -76 50 -74 12
-216 -20 -75 -26 -86 -62 -112 -38 -27 -67 -37 -67 -23 0 4 14 44 31 89 26 69
30 91 25 129 -5 30 -12 46 -22 46 -8 0 -14 -4 -14 -10 0 -11 -119 -74 -127
-67 -2 3 14 42 35 88 22 46 48 118 57 159 25 108 24 108 67 25z" fill="#00FFFF" stroke="none" />
</g>
</svg>