<?xml version="1.0" standalone="no"?>
<!DOCTYPE svg PUBLIC "-//W3C//DTD SVG 20010904//EN"
 "http://www.w3.org/TR/2001/REC-SVG-20010904/DTD/svg10.dtd">
<svg version="1.0" xmlns="http://www.w3.org/2000/svg"
 width="300.000000pt" height="300.000000pt" viewBox="0 0 300.000000 300.000000"
 preserveAspectRatio="xMidYMid meet">
<metadata>
Created by potrace 1.16, written by Peter Selinger 2001-2019
</metadata>
<g transform="translate(0.000000,300.000000) scale(0.100000,-0.100000)"
fill="#ffffff" stroke="none">
<path id="subpath_0" d="M1295 2588 c-11 -6 -25 -19 -32 -27 -9 -13 -33 -16 -115 -17 -58 -1
-114 -6 -126 -13 -11 -6 -31 -29 -43 -51 -25 -44 -69 -65 -128 -61 -50 3 -96
-37 -105 -91 -9 -54 -34 -81 -100 -108 -66 -26 -86 -58 -86 -135 0 -63 -17
-100 -70 -148 -34 -32 -40 -83 -15 -127 20 -35 18 -62 -9 -143 -38 -114 -46
-165 -48 -287 -2 -220 27 -324 144 -506 l59 -92 -51 -188 c-27 -103 -50 -198
-50 -211 0 -44 55 -55 123 -24 110 49 256 111 263 111 4 0 16 7 26 17 23 20
95 20 135 0 96 -50 331 -64 480 -28 190 45 406 182 522 329 60 76 141 225 168
309 23 72 26 93 26 268 l1 190 -36 99 c-36 98 -37 116 -12 146 11 14 18 58 15
101 -1 9 -19 28 -41 43 -55 36 -74 77 -71 152 1 53 -2 66 -24 92 -14 17 -41
36 -60 42 -41 14 -85 63 -85 95 0 13 -11 36 -23 51 -19 22 -36 29 -86 35 -72
8 -106 28 -128 74 -22 46 -49 55 -163 55 -96 0 -100 1 -133 30 -37 32 -85 39
-122 18z" fill="#FF0000" stroke="none" />
<path id="subpath_1" d="M 1281 2450 c17 -10 19 -23 20 -128 0 -64 4 -139 7 -167 7 -47 9 -50
37 -50 39 0 43 17 44 192 1 134 2 143 22 153 27 15 107 4 137 -18 l23 -18 -31
-42 c-16 -23 -30 -47 -30 -52 0 -6 -9 -28 -20 -50 -11 -22 -20 -50 -20 -64 0
-14 -4 -28 -10 -31 -5 -3 -10 -24 -10 -45 0 -29 5 -42 20 -50 26 -14 56 19 75
84 23 77 95 196 122 202 26 7 113 -33 113 -52 0 -6 -24 -35 -53 -65 -54 -56
-95 -107 -116 -147 -10 -19 -10 -28 4 -48 23 -35 40 -30 77 23 18 25 56 70 84
100 41 42 57 53 83 53 34 0 86 -41 78 -63 -2 -7 -30 -27 -63 -45 -85 -48 -128
-93 -120 -126 8 -34 46 -35 89 -2 39 29 112 66 129 66 23 -1 84 -58 73 -68 -5
-6 -39 -17 -75 -26 -76 -20 -110 -39 -110 -65 0 -31 26 -44 70 -37 22 3 58 9
80 12 46 8 75 -10 83 -52 5 -31 -26 -47 -73 -38 -41 9 -77 -2 -83 -25 -8 -33
15 -52 76 -60 32 -4 64 -14 72 -22 29 -31 55 -173 55 -307 0 -215 -46 -348
-175 -509 -98 -121 -264 -236 -387 -268 -35 -9 -79 -20 -99 -26 -53 -13 -204
-11 -279 5 -36 7 -96 26 -134 40 -41 16 -78 24 -90 20 -18 -6 -124 -51 -233
-100 -30 -14 -63 -19 -63 -10 0 16 33 141 50 190 11 33 20 68 20 78 0 11 -25
56 -57 100 -63 91 -106 192 -134 318 -31 142 -23 265 27 407 24 66 29 73 61
82 19 5 41 7 49 4 20 -7 64 24 64 46 0 31 -25 44 -70 36 -46 -8 -90 13 -90 42
0 24 40 63 63 63 11 0 44 -7 73 -17 49 -15 54 -15 78 1 56 36 15 67 -136 100
-32 7 -36 30 -11 58 25 27 61 22 143 -22 81 -43 111 -48 130 -25 23 28 -24 76
-144 148 -40 23 -46 31 -41 50 28 93 138 49 236 -95 21 -31 43 -59 49 -63 15
-9 48 12 55 36 9 26 -47 112 -122 188 -29 30 -53 60 -53 68 0 17 58 53 87 53
29 0 78 -61 104 -129 31 -84 67 -158 79 -166 6 -4 22 1 36 10 22 14 24 21 18
48 -12 56 -73 206 -98 244 -27 39 -23 57 18 73 31 11 95 11 117 0z" fill="#00FF00" stroke="none" />
</g>
</svg>