<?xml version="1.0" standalone="no"?>
<!DOCTYPE svg PUBLIC "-//W3C//DTD SVG 20010904//EN"
 "http://www.w3.org/TR/2001/REC-SVG-20010904/DTD/svg10.dtd">
<svg version="1.0" xmlns="http://www.w3.org/2000/svg"
 width="300.000000pt" height="300.000000pt" viewBox="0 0 300.000000 300.000000"
 preserveAspectRatio="xMidYMid meet">
<metadata>
Created by potrace 1.16, written by Peter Selinger 2001-2019
</metadata>
<g transform="translate(0.000000,300.000000) scale(0.100000,-0.100000)"
fill="#ffffff" stroke="none">
<path id="subpath_0" d="M1380 2609 c-14 -6 -37 -22 -53 -37 -25 -24 -30 -25 -60 -14 -19 7
-44 12 -56 12 -35 0 -81 -32 -98 -68 -12 -25 -20 -31 -34 -27 -64 21 -117 -2
-148 -64 -17 -32 -27 -39 -58 -44 -21 -4 -55 -18 -75 -32 -34 -23 -38 -30 -38
-70 0 -40 -3 -45 -32 -55 -51 -19 -72 -55 -71 -117 1 -49 -2 -56 -35 -89 -31
-30 -37 -43 -37 -77 0 -27 8 -53 22 -73 l22 -31 -26 -23 c-23 -20 -25 -27 -20
-73 5 -37 13 -57 32 -72 l25 -22 -25 -109 c-17 -76 -25 -139 -25 -209 0 -101
26 -275 42 -275 4 0 8 -9 8 -19 0 -31 73 -181 115 -235 l38 -50 -49 -193 c-50
-200 -51 -212 -11 -237 19 -12 41 -5 280 93 l148 61 47 -16 c315 -107 643 -52
887 148 115 94 184 183 253 329 68 143 92 247 92 395 0 86 -23 243 -41 276 -8
15 -4 28 20 65 35 52 40 105 15 141 -14 21 -14 26 0 63 26 65 21 95 -24 140
-40 40 -42 49 -24 107 8 27 -27 74 -72 93 -41 18 -44 23 -44 57 0 62 -38 100
-110 111 -29 5 -38 13 -54 47 -24 54 -70 78 -132 68 -35 -5 -44 -3 -44 9 0 25
-33 57 -74 71 -35 12 -44 11 -84 -6 l-45 -20 -20 27 c-39 53 -86 59 -174 24
-28 -11 -34 -11 -51 4 -24 22 -70 29 -102 16z" fill="#FF0000" stroke="none" />
<path id="subpath_1" d="M 1231 1983 l104 -36 185 -1 185
0 90 34 c104 39 154 43 210 14 57 -29 85 -87 85 -179 0 -88 18 -119 100 -175
50 -34 67 -52 85 -94 22 -50 47 -207 41 -256 -2 -14 -7 -56 -11 -95 -7 -75
-44 -195 -78 -254 -22 -38 -104 -147 -147 -194 -68 -75 -219 -165 -350 -207
-94 -30 -247 -37 -341 -16 -41 10 -83 21 -94 26 -144 59 -120 60 -303 -24 -67
-31 -126 -54 -131 -52 -11 7 2 75 33 165 36 105 34 124 -24 200 -122 161 -177
366 -151 559 15 115 42 171 113 237 32 30 63 55 68 55 21 0 40 61 40 125 0
109 38 167 127 191 26 7 50 13 54 13 3 1 52 -16 110 -36z" fill="#00FF00" stroke="none" />
</g>
</svg>