<?xml version="1.0" standalone="no"?>
<!DOCTYPE svg PUBLIC "-//W3C//DTD SVG 20010904//EN"
 "http://www.w3.org/TR/2001/REC-SVG-20010904/DTD/svg10.dtd">
<svg version="1.0" xmlns="http://www.w3.org/2000/svg"
 width="300.000000pt" height="300.000000pt" viewBox="0 0 300.000000 300.000000"
 preserveAspectRatio="xMidYMid meet">
<metadata>
Created by potrace 1.16, written by Peter Selinger 2001-2019
</metadata>
<g transform="translate(0.000000,300.000000) scale(0.100000,-0.100000)"
fill="#ffffff" stroke="none">
<path id="subpath_0" d="M1715 2559 c-311 -55 -628 -141 -771 -211 -89 -43 -166 -122 -216
-223 l-41 -80 -3 -147 c-2 -106 -6 -155 -17 -175 -43 -81 -81 -208 -98 -321
-23 -164 21 -358 122 -537 90 -158 84 -134 55 -238 -75 -266 -78 -327 -19
-327 16 0 81 23 146 50 65 28 124 50 131 50 6 0 17 5 24 12 16 16 81 38 113
38 15 0 44 -7 65 -17 106 -45 336 -56 498 -24 99 20 271 96 311 137 5 5 26 22
45 36 54 39 152 140 184 189 16 24 37 55 46 69 74 110 127 279 137 439 9 142
-33 321 -106 461 -15 28 -20 66 -24 180 -4 131 -7 151 -32 204 -15 32 -47 82
-71 112 -24 30 -44 62 -44 73 0 20 54 81 71 81 23 0 6 32 -23 44 -79 34 -125
41 -255 40 l-133 -1 0 42 c0 40 -13 58 -38 54 -4 -1 -29 -5 -57 -10z" fill="#FF0000" stroke="none" />
<path id="subpath_1" d="M 1736 2435
c2 -60 -9 -56 142 -49 90 4 146 2 165 -5 25 -10 27 -14 21 -49 -8 -48 11 -87
75 -158 62 -69 79 -127 83 -281 1 -67 0 -124 -3 -127 -6 -6 -54 17 -116 57
-37 24 -43 32 -53 84 -11 61 -34 110 -59 131 -79 64 -202 73 -374 28 l-108
-29 -77 17 c-42 10 -90 22 -106 27 -50 16 -216 10 -262 -9 -82 -35 -124 -88
-130 -164 -1 -27 -8 -56 -14 -63 -17 -21 -141 -87 -149 -80 -3 4 -6 59 -6 123
0 158 16 202 110 298 73 75 120 104 195 123 25 7 61 18 80 26 52 20 293 86
390 106 47 10 110 17 140 16 47 -2 55 -5 56 -22z" fill="#00FF00" stroke="none" />
<path id="subpath_2" d="M 1300 2000 c203 -43 268 -47
319 -20 20 11 156 40 185 40 12 0 45 -7 73 -15 64 -19 93 -59 93 -130 0 -63
29 -101 111 -145 147 -78 174 -114 203 -271 20 -105 20 -189 1 -294 -17 -97
-30 -135 -67 -198 -15 -26 -28 -50 -28 -54 0 -7 -54 -76 -118 -150 -56 -65
-182 -156 -262 -187 -25 -10 -54 -22 -65 -26 -40 -16 -115 -30 -197 -36 -99
-8 -230 12 -350 53 l-77 26 -93 -41 c-92 -40 -124 -53 -143 -58 -5 -1 -18 -5
-27 -9 -13 -5 -18 -2 -18 11 0 21 41 173 59 218 8 20 9 32 1 40 -5 5 -10 16
-10 23 0 8 -18 37 -41 65 -91 116 -147 268 -155 425 -7 132 5 213 47 303 37
82 48 93 159 160 47 28 91 58 99 65 8 8 16 44 19 90 5 84 12 93 90 121 51 18
82 17 192 -6z" fill="#0000FF" stroke="none" />
</g>
</svg>