<?xml version="1.0" standalone="no"?>
<!DOCTYPE svg PUBLIC "-//W3C//DTD SVG 20010904//EN"
 "http://www.w3.org/TR/2001/REC-SVG-20010904/DTD/svg10.dtd">
<svg version="1.0" xmlns="http://www.w3.org/2000/svg"
 width="300.000000pt" height="300.000000pt" viewBox="0 0 300.000000 300.000000"
 preserveAspectRatio="xMidYMid meet">
<metadata>
Created by potrace 1.16, written by Peter Selinger 2001-2019
</metadata>
<g transform="translate(0.000000,300.000000) scale(0.100000,-0.100000)"
fill="#ffffff" stroke="none">
<path id="subpath_0" d="M1105 2627 c-4 -13 3 -51 14 -85 24 -70 25 -82 10 -82 -13 0 -88 75
-105 105 -11 18 -14 14 -38 -39 -14 -32 -26 -64 -26 -72 0 -7 -5 -25 -11 -41
l-11 -28 -16 30 -15 30 -15 -35 c-8 -19 -18 -37 -22 -40 -16 -10 -81 -142
-100 -203 -12 -37 -23 -107 -26 -172 -6 -103 -9 -116 -50 -202 -25 -51 -59
-134 -76 -185 -30 -88 -31 -101 -32 -253 -1 -149 1 -166 28 -250 33 -106 62
-166 123 -257 51 -76 50 -73 13 -213 -11 -44 -27 -108 -35 -143 -8 -34 -17
-67 -20 -72 -3 -5 -3 -26 1 -45 9 -51 41 -56 118 -18 34 17 125 57 204 88
l142 58 38 -17 c46 -20 142 -41 252 -56 168 -23 369 28 538 136 29 19 56 34
60 34 18 0 165 146 207 204 135 190 181 344 172 581 -6 166 -34 283 -97 402
-36 69 -40 84 -41 152 -1 149 -52 271 -159 381 -67 68 -136 109 -255 148 -171
57 -439 99 -456 71 -6 -10 -16 -10 -51 0 -115 33 -147 46 -195 77 -29 19 -55
34 -58 34 -2 0 -7 -11 -10 -23z" fill="#FF0000" stroke="none" />
<path id="subpath_1" d="M 1194 2040 c76 -24 266 -60 315 -60 30 0 117 16
194 36 155 40 217 41 285 6 59 -30 74 -60 79 -149 7 -135 6 -133 85 -198 62
-51 76 -69 111 -144 47 -100 55 -160 37 -283 -21 -151 -59 -249 -137 -359 -78
-109 -222 -226 -335 -272 -136 -55 -165 -61 -318 -61 -132 0 -153 2 -230 27
-47 15 -93 32 -103 38 -23 13 -111 -13 -177 -51 -49 -28 -124 -60 -142 -60
-14 0 -7 44 27 170 13 52 25 102 25 112 0 9 -20 42 -43 75 -50 66 -84 135
-124 249 -25 72 -27 91 -28 229 0 199 13 228 150 338 72 59 84 82 85 170 0 37
6 83 14 102 29 69 146 112 230 85z" fill="#00FF00" stroke="none" />
</g>
</svg>