<?xml version="1.0" standalone="no"?>
<!DOCTYPE svg PUBLIC "-//W3C//DTD SVG 20010904//EN"
 "http://www.w3.org/TR/2001/REC-SVG-20010904/DTD/svg10.dtd">
<svg version="1.0" xmlns="http://www.w3.org/2000/svg"
 width="300.000000pt" height="300.000000pt" viewBox="0 0 300.000000 300.000000"
 preserveAspectRatio="xMidYMid meet">
<metadata>
Created by potrace 1.16, written by Peter Selinger 2001-2019
</metadata>
<g transform="translate(0.000000,300.000000) scale(0.100000,-0.100000)"
fill="#ffffff" stroke="none">
<path id="subpath_0" d="M1285 2440 c-55 -8 -167 -52 -242 -95 -75 -44 -156 -133 -192 -212
-60 -132 -63 -136 -147 -193 -133 -90 -142 -98 -170 -156 -26 -53 -27 -58 -20
-177 l7 -123 -61 -74 c-33 -41 -65 -91 -70 -110 -16 -58 -12 -146 11 -208 45
-125 46 -150 3 -172 -20 -11 -24 -21 -24 -56 0 -37 5 -47 32 -68 63 -47 138
-72 261 -85 43 -5 80 -10 82 -12 4 -5 -23 -133 -35 -164 -15 -40 -30 -116 -30
-150 0 -28 5 -38 25 -47 21 -10 37 -5 117 32 111 51 271 111 314 117 17 3 45
-2 61 -10 16 -9 70 -23 119 -33 116 -22 327 -15 424 14 141 43 295 133 382
225 l37 40 71 -7 c100 -10 205 9 293 53 l72 36 3 48 c3 42 0 51 -24 69 -23 19
-26 26 -20 65 3 24 13 58 22 75 9 18 19 67 22 115 6 101 -7 139 -78 238 -53
74 -59 100 -41 192 24 125 -41 247 -170 320 -30 17 -67 43 -83 59 -29 29 -75
111 -81 145 -4 21 -35 69 -69 108 -54 61 -161 101 -272 101 -44 0 -73 5 -83
14 -35 31 -145 78 -204 87 -70 10 -168 10 -242 -1z" fill="#FF0000" stroke="none" />
<path id="subpath_1" d="M 1580 2346 c25 -9 72 -35
106 -56 57 -38 64 -40 140 -40 138 0 208 -49 259 -179 35 -88 86 -156 142
-189 106 -63 135 -86 154 -124 19 -37 20 -51 14 -167 l-7 -127 56 -82 c103
-152 104 -155 56 -302 -31 -94 -33 -105 -21 -143 25 -82 23 -87 -46 -113 -74
-28 -193 -43 -193 -25 0 7 18 42 40 79 49 80 62 125 62 212 0 81 -10 108 -60
157 -71 68 -77 89 -77 253 0 122 -3 150 -18 179 -32 58 -74 96 -162 145 -111
63 -164 117 -215 221 -23 46 -49 86 -57 90 -21 7 -50 -20 -75 -70 -27 -51
-123 -147 -176 -174 -59 -30 -188 -51 -320 -51 -188 0 -297 -52 -355 -170 -19
-40 -22 -60 -22 -180 0 -150 -2 -156 -80 -230 -102 -97 -102 -208 0 -366 58
-89 58 -104 3 -104 -57 0 -196 34 -215 52 -12 12 -12 23 -2 62 14 58 6 143
-21 214 -37 96 -28 139 55 257 59 84 64 106 58 237 -6 149 4 165 157 258 81
49 104 80 165 225 20 48 110 140 180 184 35 23 97 52 137 66 66 23 84 25 183
21 66 -2 128 -11 155 -20z" fill="#00FF00" stroke="none" />
<path id="subpath_2" d="M 1766 1948 c27 -63 109 -138 202 -186 88 -46 135
-93 149 -151 5 -20 6 -75 2 -124 -5 -51 -4 -110 1 -139 6 -28 10 -52 10 -54 0
-2 27 -35 60 -75 75 -90 78 -119 22 -227 -77 -148 -155 -233 -293 -319 -142
-89 -246 -118 -424 -118 -132 0 -147 3 -286 51 l-67 23 -53 -20 c-30 -12 -86
-36 -125 -54 -100 -47 -124 -53 -124 -27 0 12 5 33 10 48 21 53 50 174 50 204
0 20 -19 59 -58 118 -55 81 -82 137 -103 205 -7 25 -2 35 47 90 30 34 66 86
81 116 24 50 25 60 20 151 -7 110 3 158 41 208 50 65 121 87 322 97 130 7 205
17 255 37 59 22 161 97 194 142 19 25 38 46 41 46 4 0 15 -19 26 -42z" fill="#0000FF" stroke="none" />
</g>
</svg>