<?xml version="1.0" standalone="no"?>
<!DOCTYPE svg PUBLIC "-//W3C//DTD SVG 20010904//EN"
 "http://www.w3.org/TR/2001/REC-SVG-20010904/DTD/svg10.dtd">
<svg version="1.0" xmlns="http://www.w3.org/2000/svg"
 width="300.000000pt" height="300.000000pt" viewBox="0 0 300.000000 300.000000"
 preserveAspectRatio="xMidYMid meet">
<metadata>
Created by potrace 1.16, written by Peter Selinger 2001-2019
</metadata>
<g transform="translate(0.000000,300.000000) scale(0.100000,-0.100000)"
fill="#ffffff" stroke="none">
<path id="subpath_0" d="M1360 2440 c-171 -21 -349 -105 -478 -224 -105 -96 -185 -252 -222
-431 -7 -33 -22 -80 -35 -105 -30 -61 -55 -176 -62 -285 -4 -69 -1 -115 15
-195 29 -145 60 -220 150 -358 43 -65 41 -87 -34 -337 -27 -90 -30 -136 -9
-151 21 -16 76 -19 90 -5 6 4 66 32 135 61 69 28 141 61 160 72 38 23 111 28
132 11 7 -6 45 -20 84 -32 100 -29 301 -30 416 -1 44 12 87 25 96 30 9 5 46
22 82 39 216 99 399 294 477 508 44 121 65 255 58 368 -6 100 -36 230 -74 319
-11 25 -27 81 -36 123 -68 336 -391 583 -780 598 -55 2 -129 0 -165 -5z" fill="#FF0000" stroke="none" />
<path id="subpath_1" d="M 1688 2339 c140 -29 282 -110 375 -214 68 -77 139 -207 153 -281 3 -22 10 -43 14
-49 4 -5 11 -53 15 -105 4 -57 13 -107 23 -125 14 -24 17 -60 17 -190 0 -182
-13 -239 -85 -373 -157 -291 -430 -454 -735 -439 -117 6 -171 17 -261 53 -74
29 -51 33 -194 -29 -25 -11 -68 -30 -96 -43 -57 -27 -84 -30 -84 -11 0 11 13
58 55 207 19 69 19 71 -5 100 -73 93 -124 192 -161 311 -32 105 -33 311 -2
419 11 41 24 109 27 150 6 79 39 198 69 243 9 14 17 29 17 33 0 20 67 107 89
116 15 6 21 12 14 15 -24 9 -13 21 85 91 118 84 223 124 387 145 54 7 188 -4
283 -24z" fill="#00FF00" stroke="none" />
</g>
</svg>