<?xml version="1.0" standalone="no"?>
<!DOCTYPE svg PUBLIC "-//W3C//DTD SVG 20010904//EN"
 "http://www.w3.org/TR/2001/REC-SVG-20010904/DTD/svg10.dtd">
<svg version="1.0" xmlns="http://www.w3.org/2000/svg"
 width="300.000000pt" height="300.000000pt" viewBox="0 0 300.000000 300.000000"
 preserveAspectRatio="xMidYMid meet">
<metadata>
Created by potrace 1.16, written by Peter Selinger 2001-2019
</metadata>
<g transform="translate(0.000000,300.000000) scale(0.100000,-0.100000)"
fill="#ffffff" stroke="none">
<path id="subpath_0" d="M1177 2662 c-56 -19 -134 -89 -161 -146 -22 -47 -18 -151 8 -191 27
-42 21 -59 -31 -77 -91 -33 -193 -110 -270 -204 -40 -49 -84 -102 -99 -119
-68 -76 -166 -264 -185 -354 -25 -120 -31 -207 -20 -307 17 -165 73 -313 166
-443 l34 -47 -15 -55 c-9 -30 -20 -72 -25 -94 -5 -22 -20 -85 -33 -140 -20
-82 -22 -104 -13 -125 17 -34 51 -36 106 -7 48 26 152 69 285 118 60 22 83 26
98 18 35 -19 112 -39 213 -55 86 -14 114 -15 200 -4 145 18 317 80 416 151 15
10 32 19 38 19 5 0 50 40 98 90 109 111 197 253 242 391 25 77 32 120 37 215
13 263 -60 469 -237 670 -30 34 -70 83 -89 110 -42 57 -118 112 -218 156 -54
24 -72 36 -68 48 3 8 14 40 25 70 25 68 26 104 2 156 -36 79 -124 154 -180
154 -11 0 -23 5 -26 10 -10 17 -243 11 -298 -8z" fill="#FF0000" stroke="none" />
<path id="subpath_1" d="M 1504 2564 c80 -40 101 -70 101
-144 -1 -45 -6 -66 -22 -87 -20 -27 -24 -28 -84 -23 -93 6 -256 4 -315 -5
l-51 -7 -17 37 c-46 97 -40 143 27 200 57 49 114 65 217 62 71 -3 95 -8 144
-33z" fill="#00FF00" stroke="none" />
<path id="subpath_2" d="M 1495 2215 c44 -7 94 -19 110 -25 51 -19 149 -69 175 -89 29 -23 22 -38 -9
-21 -25 13 -133 4 -171 -15 -42 -21 -183 -45 -261 -45 -73 1 -138 12 -254 45
-33 10 -91 17 -128 17 -64 1 -67 1 -52 18 20 22 135 83 187 99 94 31 281 38
403 16z" fill="#0000FF" stroke="none" />
<path id="subpath_3" d="M 1025 1991 c3 -6 27 -13 53 -16 26 -3 62 -13 80 -21 19 -8 82 -17 143
-21 112 -6 139 -2 335 47 126 32 217 0 317 -111 99 -108 164 -263 188 -442 36
-272 -85 -539 -322 -716 -124 -93 -266 -146 -419 -156 -89 -7 -250 7 -275 23
-5 4 -39 16 -74 28 l-63 22 -62 -20 c-33 -12 -67 -25 -74 -31 -12 -9 -162 -77
-170 -77 -7 0 5 62 23 120 9 30 23 83 31 118 l14 64 -44 56 c-64 85 -93 146
-139 297 -16 56 -21 97 -21 200 0 114 3 141 27 215 53 167 172 337 274 389 68
34 165 52 178 32z" fill="#FFFF00" stroke="none" />
</g>
</svg>