<?xml version="1.0" standalone="no"?>
<!DOCTYPE svg PUBLIC "-//W3C//DTD SVG 20010904//EN"
 "http://www.w3.org/TR/2001/REC-SVG-20010904/DTD/svg10.dtd">
<svg version="1.0" xmlns="http://www.w3.org/2000/svg"
 width="300.000000pt" height="300.000000pt" viewBox="0 0 300.000000 300.000000"
 preserveAspectRatio="xMidYMid meet">
<metadata>
Created by potrace 1.16, written by Peter Selinger 2001-2019
</metadata>
<g transform="translate(0.000000,300.000000) scale(0.100000,-0.100000)"
fill="#ffffff" stroke="none">
<path id="subpath_0" d="M987 2369 c-43 -29 -72 -64 -107 -134 -15 -29 -17 -30 -105 -36 -55
-3 -103 -12 -122 -23 -44 -22 -43 -40 1 -32 40 8 86 -8 86 -29 0 -8 -14 -24
-32 -34 -46 -29 -136 -136 -163 -196 -15 -32 -27 -81 -31 -131 -4 -48 -18
-106 -35 -149 -15 -38 -35 -106 -44 -150 -22 -103 -22 -296 -2 -393 18 -83 99
-256 152 -327 25 -32 35 -55 32 -69 -3 -11 -26 -104 -52 -205 -44 -174 -45
-184 -29 -202 24 -27 64 -24 141 12 152 70 172 79 179 79 4 0 37 12 73 26 l65
26 85 -28 c81 -27 96 -29 256 -29 242 0 322 21 498 132 126 79 232 186 302
308 94 162 124 257 132 415 7 143 -7 249 -48 365 -17 50 -37 131 -44 180 -19
138 -56 223 -141 324 -78 91 -248 199 -374 236 -156 47 -405 42 -545 -10 -122
-46 -121 -47 -80 35 41 81 29 90 -48 39z" fill="#FF0000" stroke="none" />
<path id="subpath_1" d="M 1000 1804 c93 -61 160 -94 270 -131
97 -32 250 -56 250 -39 0 4 -35 41 -77 84 -87 85 -85 96 14 67 51 -15 82 -29
183 -80 47 -25 149 -93 180 -120 14 -13 35 -26 48 -30 27 -8 29 9 6 84 -8 29
-12 56 -9 59 22 23 125 -190 146 -301 6 -34 13 -68 15 -74 7 -27 36 -11 66 37
22 36 34 47 40 38 14 -22 9 -235 -8 -316 -16 -82 -92 -239 -155 -323 -73 -98
-297 -249 -389 -264 -25 -4 -50 -11 -56 -16 -7 -5 -63 -12 -126 -16 -120 -6
-145 -3 -316 44 -93 26 -94 26 -150 8 -31 -9 -97 -37 -145 -62 -48 -24 -93
-41 -98 -37 -6 4 -8 20 -5 38 3 17 7 40 9 51 2 11 16 57 31 102 17 52 25 91
21 104 -4 12 -28 52 -52 88 -80 116 -126 235 -144 373 -12 93 -6 223 11 233 5
3 20 -19 34 -49 14 -30 33 -62 43 -71 16 -16 17 -16 24 1 4 11 8 42 8 71 1 87
21 147 72 220 27 37 78 112 115 166 36 53 71 97 78 97 6 0 36 -16 66 -36z" fill="#00FF00" stroke="none" />
</g>
</svg>