<?xml version="1.0" standalone="no"?>
<!DOCTYPE svg PUBLIC "-//W3C//DTD SVG 20010904//EN"
 "http://www.w3.org/TR/2001/REC-SVG-20010904/DTD/svg10.dtd">
<svg version="1.0" xmlns="http://www.w3.org/2000/svg"
 width="300.000000pt" height="300.000000pt" viewBox="0 0 300.000000 300.000000"
 preserveAspectRatio="xMidYMid meet">
<metadata>
Created by potrace 1.16, written by Peter Selinger 2001-2019
</metadata>
<g transform="translate(0.000000,300.000000) scale(0.100000,-0.100000)"
fill="#ffffff" stroke="none">
<path id="subpath_0" d="M1338 2519 c-138 -20 -288 -85 -395 -172 -90 -74 -180 -197 -214
-294 -24 -66 -49 -184 -49 -226 0 -18 -13 -59 -28 -92 -16 -33 -39 -94 -52
-135 -42 -134 -31 -436 20 -539 4 -9 17 -38 30 -66 12 -27 46 -87 76 -132 l53
-82 -14 -53 c-8 -29 -22 -82 -31 -118 -9 -36 -20 -74 -24 -85 -15 -32 -33
-143 -27 -159 11 -27 70 -30 117 -6 54 28 231 100 245 100 5 0 21 9 35 20 31
24 99 26 140 5 85 -44 327 -59 469 -30 255 54 510 250 643 495 114 211 127
509 32 751 -24 63 -39 120 -44 174 -15 152 -79 287 -191 403 -169 173 -373
253 -639 251 -52 -1 -121 -5 -152 -10z" fill="#FF0000" stroke="none" />
<path id="subpath_1" d="M 1750 2038 c22 -95 113 -270 130 -251 5
4 4 35 -1 67 -13 82 -4 100 24 49 12 -23 43 -69 70 -102 41 -54 50 -60 67 -51
11 6 20 15 20 20 0 6 6 10 14 10 23 0 66 -220 66 -341 0 -43 3 -50 17 -47 15
3 94 110 107 143 7 19 19 -5 27 -52 24 -149 -2 -327 -69 -463 -32 -65 -151
-229 -182 -250 -12 -8 -45 -32 -73 -54 -217 -161 -504 -200 -751 -101 l-63 25
-64 -24 c-35 -13 -99 -40 -143 -60 -79 -36 -106 -43 -106 -27 0 5 9 44 21 87
11 44 24 95 29 114 17 64 12 89 -34 153 -113 161 -176 364 -161 524 13 136 26
157 62 94 34 -60 73 -101 95 -101 17 0 19 5 14 38 -7 42 19 311 31 323 4 4 40
4 78 -1 39 -5 106 -9 151 -10 97 0 131 15 226 103 34 32 64 54 66 48 2 -6 -10
-36 -27 -66 -42 -75 -41 -88 7 -79 58 11 83 22 139 65 61 46 143 157 169 229
10 27 21 47 25 45 4 -3 12 -29 19 -57z" fill="#00FF00" stroke="none" />
</g>
</svg>