<?xml version="1.0" standalone="no"?>
<!DOCTYPE svg PUBLIC "-//W3C//DTD SVG 20010904//EN"
 "http://www.w3.org/TR/2001/REC-SVG-20010904/DTD/svg10.dtd">
<svg version="1.0" xmlns="http://www.w3.org/2000/svg"
 width="300.000000pt" height="300.000000pt" viewBox="0 0 300.000000 300.000000"
 preserveAspectRatio="xMidYMid meet">
<metadata>
Created by potrace 1.16, written by Peter Selinger 2001-2019
</metadata>
<g transform="translate(0.000000,300.000000) scale(0.100000,-0.100000)"
fill="#ffffff" stroke="none">
<path id="subpath_0" d="M1498 2591 c-70 -28 -107 -54 -166 -115 -45 -47 -60 -56 -100 -61
-26 -4 -65 -16 -87 -27 -32 -17 -62 -21 -150 -23 -177 -3 -224 -38 -211 -156
l7 -57 -34 -11 c-61 -21 -137 -125 -137 -189 0 -38 34 -83 94 -124 9 -6 -11
-54 -70 -172 -8 -16 -26 -76 -40 -135 -39 -165 -35 -318 13 -466 26 -82 115
-259 150 -297 17 -19 15 -43 -13 -138 -9 -30 -28 -104 -41 -163 -38 -163 -14
-190 113 -128 32 15 77 34 99 41 22 7 51 18 65 25 26 14 120 49 157 60 13 3
32 0 45 -9 39 -25 220 -57 325 -58 120 -1 257 24 341 62 134 61 299 188 382
296 25 31 95 145 119 192 74 145 96 419 48 607 -14 55 -37 130 -51 168 -14 37
-21 67 -16 67 15 0 50 75 56 123 3 23 1 61 -5 84 -14 52 -85 132 -145 163 -36
20 -48 33 -62 70 -35 94 -89 140 -165 140 -33 0 -51 7 -85 35 -61 50 -87 57
-194 53 l-95 -3 -5 80 -5 80 -45 2 c-26 2 -65 -5 -92 -16z" fill="#FF0000" stroke="none" />
<path id="subpath_1" d="M 1560 2444 c0 -88
-24 -140 -93 -199 -46 -39 -81 -45 -97 -15 -9 16 -4 26 25 58 53 59 44 98 -17
68 -36 -19 -38 -19 -38 -7 0 23 108 125 154 146 28 13 54 24 59 24 4 1 7 -33
7 -75z" fill="#00FF00" stroke="none" />
<path id="subpath_2" d="M 1888 2309 c41 -23 63 -29 84 -25 39 8 96 -17 107 -47 5 -13 12 -46 16
-73 9 -60 17 -70 59 -78 48 -9 112 -59 136 -106 21 -41 20 -90 -2 -133 -9 -18
-10 -18 -27 0 -9 10 -27 35 -40 56 -20 33 -27 37 -62 37 -34 0 -50 8 -95 47
-30 26 -54 53 -54 60 0 22 -69 90 -96 96 -24 4 -25 3 -18 -39 4 -32 3 -44 -6
-44 -19 0 -81 39 -113 71 -40 40 -115 62 -177 54 -55 -8 -56 -6 -36 33 23 44
69 81 126 101 82 29 133 27 198 -10z" fill="#0000FF" stroke="none" />
<path id="subpath_3" d="M 1273 2280 c5 -19 22 -49 38 -67 16 -19
29 -38 29 -43 0 -17 -88 -61 -117 -58 -24 3 -30 11 -47 59 -24 73 -17 103 32
128 46 25 54 23 65 -19z" fill="#FFFF00" stroke="none" />
<path id="subpath_4" d="M 1075 2268 c21 -11 35 -27 35 -40 0 -5 -27 -8 -59 -8
-51 0 -61 -3 -66 -20 -3 -11 -3 -25 0 -31 12 -18 49 -27 72 -16 31 14 53 3 46
-24 -9 -33 -83 -63 -129 -50 -41 11 -94 64 -114 111 -12 28 -11 37 1 58 8 15
25 29 39 33 33 9 149 0 175 -13z" fill="#00FFFF" stroke="none" />
<path id="subpath_5" d="M 1646 2085 c28 -8 59 -24 70 -36 29 -32 89
-59 164 -73 66 -13 135 -52 215 -123 74 -66 140 -182 181 -318 36 -120 38
-308 6 -426 -79 -287 -302 -510 -572 -573 -161 -38 -308 -30 -476 27 l-91 30
-74 -28 c-41 -15 -81 -34 -90 -41 -8 -8 -23 -14 -31 -14 -9 0 -29 -7 -44 -15
-33 -17 -54 -19 -54 -6 0 5 14 66 30 135 33 139 34 132 -25 215 -41 57 -97
179 -127 274 -17 58 -22 96 -22 193 1 140 16 224 55 311 16 34 29 64 29 67 0
2 19 33 42 68 52 78 120 151 175 189 54 37 170 79 219 79 22 0 57 10 79 22
105 57 147 69 220 63 39 -3 93 -12 121 -20z" fill="#FF00FF" stroke="none" />
<path id="subpath_6" d="M 780 2026 c13 -37 27 -39 42 -9
10 21 20 28 43 28 41 0 43 -25 8 -70 -27 -36 -29 -36 -86 -33 -78 6 -96 31
-56 82 25 32 37 33 49 2z" fill="#FF0000" stroke="none" />
</g>
</svg>