<?xml version="1.0" standalone="no"?>
<!DOCTYPE svg PUBLIC "-//W3C//DTD SVG 20010904//EN"
 "http://www.w3.org/TR/2001/REC-SVG-20010904/DTD/svg10.dtd">
<svg version="1.0" xmlns="http://www.w3.org/2000/svg"
 width="300.000000pt" height="300.000000pt" viewBox="0 0 300.000000 300.000000"
 preserveAspectRatio="xMidYMid meet">
<metadata>
Created by potrace 1.16, written by Peter Selinger 2001-2019
</metadata>
<g transform="translate(0.000000,300.000000) scale(0.100000,-0.100000)"
fill="#ffffff" stroke="none">
<path id="subpath_0" d="M1047 2673 c-11 -11 -8 -58 5 -71 7 -7 22 -12 33 -12 44 0 245 -79
204 -80 -9 0 -51 9 -95 21 -123 33 -171 40 -279 40 -85 0 -114 -5 -194 -31
-175 -58 -221 -94 -192 -148 19 -35 48 -37 110 -6 31 15 59 32 62 36 8 12 177
48 224 48 47 0 85 -9 85 -20 0 -4 -21 -11 -47 -15 -125 -18 -308 -102 -418
-191 -66 -54 -202 -216 -211 -250 -8 -33 20 -74 51 -74 17 0 39 18 77 62 147
173 279 271 435 322 61 20 108 17 58 -3 -111 -45 -214 -111 -299 -191 -120
-112 -196 -247 -276 -488 -44 -133 -34 -202 29 -202 48 0 64 31 93 180 6 30
14 57 18 60 3 3 19 39 34 80 15 41 47 107 72 147 53 85 174 202 174 167 0 -3
-14 -19 -31 -37 -16 -18 -42 -54 -56 -82 -14 -27 -30 -53 -35 -56 -12 -8 -64
-136 -93 -229 -29 -93 -58 -304 -50 -356 3 -22 19 -68 35 -104 16 -36 43 -103
62 -149 18 -47 55 -119 81 -160 57 -90 63 -111 49 -159 -19 -62 -51 -193 -69
-276 -16 -76 -16 -79 3 -93 21 -16 73 -10 108 12 12 7 41 20 66 28 25 8 96 38
158 67 l114 52 61 -20 c151 -50 179 -54 328 -50 132 3 152 7 239 37 299 104
486 285 615 595 24 55 50 115 59 131 31 58 16 320 -24 435 -69 194 -113 280
-187 363 -34 38 -37 70 -5 45 94 -72 228 -301 262 -448 7 -30 16 -59 20 -65 5
-5 11 -27 15 -48 9 -46 28 -67 60 -67 42 0 58 38 46 105 -25 134 -101 334
-164 429 -57 86 -142 185 -189 218 -61 45 -183 111 -242 132 -10 3 -16 9 -13
12 3 3 43 -6 88 -20 148 -45 289 -148 423 -308 54 -65 67 -72 100 -56 31 13
42 53 22 82 -25 39 -157 196 -164 196 -4 0 -23 15 -42 33 -82 77 -286 171
-417 192 -74 12 -43 35 47 35 55 0 198 -35 219 -54 9 -7 42 -23 73 -36 54 -22
58 -22 82 -6 48 31 29 75 -49 118 -98 53 -303 96 -395 83 -37 -6 -207 -47
-287 -71 -13 -4 -23 -2 -23 4 0 17 82 51 159 66 48 9 79 20 88 32 47 65 -45
94 -182 59 -107 -28 -155 -62 -233 -163 l-17 -23 -62 60 c-98 95 -202 141
-324 141 -42 0 -79 -3 -82 -7z" fill="#FF0000" stroke="none" />
<path id="subpath_1" d="M 1437 2094 l65 -26 58 26 c106 48 170 32 276
-67 41 -38 90 -95 108 -127 69 -118 126 -346 126 -508 0 -40 5 -82 10 -93 15
-27 70 -26 97 4 21 21 21 28 13 162 -5 77 -14 163 -20 190 -19 80 -52 178 -68
204 -9 13 -16 31 -17 40 -1 9 -25 49 -54 89 -80 113 -47 110 58 -4 92 -100
147 -210 198 -394 21 -74 12 -332 -15 -440 -58 -236 -293 -481 -527 -550 -135
-40 -154 -42 -272 -38 -101 4 -134 10 -227 41 l-109 36 -61 -25 c-34 -14 -74
-31 -91 -38 -88 -38 -145 -59 -150 -54 -3 3 1 25 8 49 20 62 42 136 57 190
l12 46 -50 71 c-64 89 -135 237 -156 323 -21 86 -21 268 0 362 21 92 85 249
136 335 38 62 139 172 160 172 4 0 -3 -17 -17 -37 -70 -104 -144 -290 -160
-403 -13 -92 -14 -107 -21 -210 -6 -98 -5 -107 16 -132 24 -31 37 -34 74 -17
30 14 34 30 37 137 2 90 26 233 53 322 32 103 103 233 160 291 97 100 176 120
293 73z" fill="#00FF00" stroke="none" />
</g>
</svg>