<?xml version="1.0" standalone="no"?>
<!DOCTYPE svg PUBLIC "-//W3C//DTD SVG 20010904//EN"
 "http://www.w3.org/TR/2001/REC-SVG-20010904/DTD/svg10.dtd">
<svg version="1.0" xmlns="http://www.w3.org/2000/svg"
 width="300.000000pt" height="300.000000pt" viewBox="0 0 300.000000 300.000000"
 preserveAspectRatio="xMidYMid meet">
<metadata>
Created by potrace 1.16, written by Peter Selinger 2001-2019
</metadata>
<g transform="translate(0.000000,300.000000) scale(0.100000,-0.100000)"
fill="#ffffff" stroke="none">
<path id="subpath_0" d="M1270 2490 c-158 -39 -304 -123 -406 -232 -106 -113 -173 -266 -182
-413 -2 -44 -10 -87 -17 -95 -14 -18 -40 -83 -67 -165 -24 -78 -35 -277 -19
-368 18 -103 68 -241 123 -336 27 -47 55 -92 61 -99 11 -13 5 -48 -28 -167 -8
-27 -24 -92 -36 -143 -33 -140 -11 -168 89 -119 26 13 90 41 142 61 52 21 114
46 138 57 57 25 87 24 179 -8 64 -22 101 -27 206 -31 157 -5 254 9 366 54 191
77 377 232 465 389 9 17 28 50 42 75 13 24 40 93 59 153 67 212 56 392 -37
617 -19 47 -38 110 -42 140 -12 95 -36 172 -77 249 -91 169 -238 288 -442 357
-109 36 -117 37 -277 40 -136 3 -178 0 -240 -16z" fill="#FF0000" stroke="none" />
<path id="subpath_1" d="M 1651 2414 c137 -26 257 -77
336 -144 101 -85 163 -164 197 -248 23 -59 55 -232 43 -232 -23 0 -86 45 -97
69 -7 14 -16 52 -20 85 -10 68 -38 104 -108 137 -38 19 -55 21 -126 16 -50 -4
-104 -15 -142 -30 -103 -41 -159 -50 -268 -44 -78 4 -121 12 -190 37 -160 57
-278 51 -347 -18 -31 -32 -37 -46 -47 -111 -8 -58 -17 -80 -38 -102 -29 -30
-68 -38 -77 -16 -8 22 11 128 34 186 79 198 255 350 459 396 41 9 86 21 100
25 42 14 203 11 291 -6z" fill="#00FF00" stroke="none" />
<path id="subpath_2" d="M 1192 1996 c230 -75 359 -79 558 -15 79 26 106 30
163 26 44 -3 74 -10 84 -20 9 -9 22 -48 30 -89 16 -85 38 -113 143 -176 l65
-39 28 -89 c55 -174 42 -416 -30 -558 -98 -194 -283 -371 -450 -430 -137 -48
-155 -51 -293 -50 -127 1 -141 3 -245 38 -122 41 -108 42 -240 -19 -158 -73
-165 -75 -165 -49 0 8 12 61 26 117 39 151 38 162 -13 229 -56 73 -116 201
-144 303 -40 151 -13 396 57 502 8 13 39 37 69 54 67 38 125 100 125 135 0 56
22 114 49 129 34 18 128 19 183 1z" fill="#0000FF" stroke="none" />
</g>
</svg>