<?xml version="1.0" standalone="no"?>
<!DOCTYPE svg PUBLIC "-//W3C//DTD SVG 20010904//EN"
 "http://www.w3.org/TR/2001/REC-SVG-20010904/DTD/svg10.dtd">
<svg version="1.0" xmlns="http://www.w3.org/2000/svg"
 width="300.000000pt" height="300.000000pt" viewBox="0 0 300.000000 300.000000"
 preserveAspectRatio="xMidYMid meet">
<metadata>
Created by potrace 1.16, written by Peter Selinger 2001-2019
</metadata>
<g transform="translate(0.000000,300.000000) scale(0.100000,-0.100000)"
fill="#ffffff" stroke="none">
<path id="subpath_0" d="M1440 2572 c-20 -9 -48 -38 -65 -64 -24 -38 -36 -47 -59 -47 -16 -1
-48 -10 -71 -22 -40 -20 -44 -20 -73 -5 -17 9 -45 16 -62 16 -42 0 -105 -38
-117 -70 -8 -22 -18 -28 -54 -33 -34 -4 -51 -14 -74 -40 -21 -24 -42 -37 -70
-42 -27 -4 -50 -18 -74 -43 -18 -20 -54 -43 -79 -52 -60 -20 -87 -57 -87 -120
0 -33 6 -54 19 -69 16 -18 18 -27 9 -54 -5 -18 -6 -45 -1 -63 9 -34 69 -94 93
-94 20 0 19 -13 -5 -60 -11 -22 -20 -46 -20 -54 0 -8 -5 -16 -10 -18 -19 -6
-61 -190 -67 -294 -11 -185 48 -379 170 -558 l40 -59 -16 -46 c-9 -25 -27 -95
-42 -156 -14 -60 -30 -127 -36 -147 -8 -31 -6 -41 8 -58 26 -31 57 -25 193 34
246 107 250 108 313 81 117 -49 364 -60 518 -24 162 38 303 122 444 264 50 50
97 104 105 120 8 17 27 51 43 77 38 63 86 196 103 287 30 157 1 388 -66 520
-16 33 -30 64 -30 68 0 4 14 16 31 25 42 25 70 90 60 144 -6 33 -4 46 10 65
12 16 19 41 19 73 0 43 -4 53 -38 87 -28 27 -51 40 -80 45 -25 4 -44 13 -47
23 -7 21 -66 61 -92 61 -11 0 -37 15 -56 34 -20 19 -54 40 -74 47 -21 7 -54
29 -73 50 -45 49 -83 57 -141 31 -43 -20 -44 -20 -64 -2 -11 10 -44 22 -73 26
-36 4 -56 12 -59 23 -13 35 -57 84 -89 97 -44 18 -72 18 -114 -4z" fill="#FF0000" stroke="none" />
<path id="subpath_1" d="M 1528 2499 c34
-12 47 -37 44 -84 -3 -46 11 -61 43 -47 44 20 82 15 110 -15 46 -50 27 -102
-44 -120 -54 -14 -60 -35 -23 -73 55 -54 36 -130 -32 -130 -34 0 -67 19 -104
60 l-22 25 -33 -37 c-52 -59 -124 -59 -156 0 -12 23 -3 62 15 62 16 0 34 31
34 59 0 14 -13 24 -45 36 -63 25 -80 47 -69 87 12 42 70 65 122 50 44 -14 62
5 62 63 0 38 4 46 28 59 33 19 32 18 70 5z" fill="#00FF00" stroke="none" />
<path id="subpath_2" d="M 1126 2364 c17 -4 23 -16 26 -48 6
-46 40 -102 69 -111 29 -9 32 -37 8 -56 -22 -16 -22 -19 -9 -73 10 -45 11 -58
0 -71 -19 -23 -53 -18 -95 15 -21 17 -40 30 -43 30 -4 0 -15 -11 -27 -24 -32
-39 -86 -39 -104 0 -10 22 -9 33 9 66 11 21 20 43 20 47 0 5 -16 18 -35 30
-27 16 -35 27 -35 49 0 50 40 71 115 60 16 -2 22 5 29 37 13 53 26 62 72 49z" fill="#0000FF" stroke="none" />
<path id="subpath_3" d="M 1921 2360 c10 -6 19 -20 19 -31 0 -43 18 -58 65 -57 52 1 85 -22 85 -58 0 -25
-35 -64 -57 -64 -17 0 -16 -9 2 -53 20 -48 19 -63 -5 -87 -16 -16 -24 -17 -48
-9 -16 5 -39 19 -51 31 l-23 20 -31 -30 c-43 -40 -74 -49 -92 -25 -19 24 -19
78 1 97 14 15 13 19 -5 45 -27 37 -26 47 3 67 27 17 66 76 66 99 0 28 20 65
35 65 9 0 25 -5 36 -10z" fill="#FFFF00" stroke="none" />
<path id="subpath_4" d="M 834 2174 c9 -3 16 -15 16 -26 0 -10 7 -32 15 -48
14 -27 17 -80 5 -80 -3 0 -12 9 -20 20 -20 28 -74 27 -94 -2 -37 -52 -2 -127
52 -113 15 4 36 15 48 26 11 10 25 19 31 19 18 0 44 -37 50 -73 4 -27 1 -39
-16 -56 -26 -26 -53 -21 -93 17 -25 23 -29 24 -50 10 -34 -22 -67 -28 -94 -18
-29 11 -31 36 -7 85 17 36 12 66 -12 67 -14 1 -45 38 -45 55 0 26 39 54 65 47
45 -11 57 -9 68 11 40 70 44 73 81 59z" fill="#00FFFF" stroke="none" />
<path id="subpath_5" d="M 2224 2158 c9 -12 16 -30 16 -40 0 -22
19 -33 33 -19 26 26 79 6 91 -35 5 -16 -2 -31 -29 -58 -38 -40 -43 -57 -20
-76 23 -19 19 -77 -5 -90 -15 -8 -31 -6 -70 11 l-49 21 -27 -21 c-27 -21 -69
-27 -91 -13 -21 13 -25 58 -9 89 20 39 42 58 51 43 4 -7 21 -20 37 -30 24 -14
36 -16 59 -8 38 13 46 46 23 93 -17 37 -18 37 -67 32 l-49 -6 7 27 c24 101 24
102 55 102 18 0 34 -8 44 -22z" fill="#FF00FF" stroke="none" />
<path id="subpath_6" d="M 1550 1970 c44 -23 87 -25 124 -9 22 10 30 8
61 -16 41 -31 86 -35 152 -15 36 12 44 12 67 -3 19 -13 26 -26 26 -50 0 -67
65 -127 143 -131 45 -2 53 -9 92 -86 106 -210 110 -482 10 -681 -90 -179 -231
-322 -391 -398 -86 -40 -213 -66 -329 -65 -122 0 -194 12 -302 50 l-72 26
-118 -51 c-65 -27 -131 -53 -147 -57 -33 -8 -35 -23 13 154 35 127 34 132 -28
207 -104 125 -172 346 -156 505 13 133 34 201 97 325 37 71 41 75 94 75 66 0
105 33 130 109 24 77 53 99 98 75 51 -26 115 -15 157 27 20 20 25 21 53 9 53
-21 89 -22 126 -2 46 26 54 26 100 2z" fill="#FF0000" stroke="none" />
</g>
</svg>